<svg width="1256" height="722" viewBox="0 0 1256 722" fill="none" xmlns="http://www.w3.org/2000/svg">
<path d="M1 38.3293C27.0883 41.0943 70.7401 59.3777 126.224 51.6012C181.707 43.8247 208.53 0.656442 267.321 1.00206C326.111 1.34769 349.627 48.9399 408.418 53.2602C467.208 57.5804 490.724 20.1841 549.515 21.7394C608.305 23.2947 631.821 61.4168 690.612 60.7256C749.402 60.0344 772.918 20.1495 831.709 18.4214C890.499 16.6933 914.015 53.2947 972.806 52.4307C1031.6 51.5666 1055.11 9.78087 1113.9 14.274C1172.69 18.7671 1225.6 61.5551 1255 73.9975" stroke="white" stroke-width="2" stroke-linecap="round"/>
<path d="M1 685.334C27.0883 688.099 70.7401 706.383 126.224 698.606C181.707 690.83 208.53 647.661 267.321 648.007C326.111 648.353 349.627 695.945 408.418 700.265C467.208 704.585 490.724 667.189 549.515 668.744C608.305 670.3 631.821 708.422 690.612 707.73C749.402 707.039 772.918 667.154 831.709 665.426C890.499 663.698 914.015 700.3 972.806 699.436C1031.6 698.571 1055.11 656.786 1113.9 661.279C1172.69 665.772 1225.6 708.56 1255 721.002" stroke="white" stroke-width="2" stroke-linecap="round"/>
<path d="M1 660.449C27.0883 663.214 70.7401 681.498 126.224 673.721C181.707 665.945 208.53 622.777 267.321 623.122C326.111 623.468 349.627 671.06 408.418 675.38C467.208 679.701 490.724 642.304 549.515 643.86C608.305 645.415 631.821 683.537 690.612 682.846C749.402 682.154 772.918 642.27 831.709 640.542C890.499 638.813 914.015 675.415 972.806 674.551C1031.6 673.687 1055.11 631.901 1113.9 636.394C1172.69 640.887 1225.6 683.675 1255 696.118" stroke="white" stroke-width="2" stroke-linecap="round"/>
<path d="M1 635.565C27.0883 638.33 70.7401 656.613 126.224 648.837C181.707 641.06 208.53 597.892 267.321 598.237C326.111 598.583 349.627 646.175 408.418 650.496C467.208 654.816 490.724 617.419 549.515 618.975C608.305 620.53 631.821 658.652 690.612 657.961C749.402 657.27 772.918 617.385 831.709 615.657C890.499 613.929 914.015 650.53 972.806 649.666C1031.6 648.802 1055.11 607.016 1113.9 611.509C1172.69 616.002 1225.6 658.79 1255 671.233" stroke="white" stroke-width="2" stroke-linecap="round"/>
<path d="M1 610.68C27.0883 613.445 70.7401 631.728 126.224 623.952C181.707 616.175 208.53 573.007 267.321 573.353C326.111 573.698 349.627 621.29 408.418 625.611C467.208 629.931 490.724 592.535 549.515 594.09C608.305 595.645 631.821 633.767 690.612 633.076C749.402 632.385 772.918 592.5 831.709 590.772C890.499 589.044 914.015 625.645 972.806 624.781C1031.6 623.917 1055.11 582.131 1113.9 586.625C1172.69 591.118 1225.6 633.906 1255 646.348" stroke="white" stroke-width="2" stroke-linecap="round"/>
<path d="M1 585.795C27.0883 588.56 70.7401 606.843 126.224 599.067C181.707 591.29 208.53 548.122 267.321 548.468C326.111 548.814 349.627 596.406 408.418 600.726C467.208 605.046 490.724 567.65 549.515 569.205C608.305 570.761 631.821 608.883 690.612 608.191C749.402 607.5 772.918 567.615 831.709 565.887C890.499 564.159 914.015 600.761 972.806 599.896C1031.6 599.032 1055.11 557.247 1113.9 561.74C1172.69 566.233 1225.6 609.021 1255 621.463" stroke="white" stroke-width="2" stroke-linecap="round"/>
<path d="M1 560.91C27.0883 563.675 70.7401 581.959 126.224 574.182C181.707 566.406 208.53 523.237 267.321 523.583C326.111 523.929 349.627 571.521 408.418 575.841C467.208 580.161 490.724 542.765 549.515 544.32C608.305 545.876 631.821 583.998 690.612 583.307C749.402 582.615 772.918 542.731 831.709 541.002C890.499 539.274 914.015 575.876 972.806 575.012C1031.6 574.148 1055.11 532.362 1113.9 536.855C1172.69 541.348 1225.6 584.136 1255 596.579" stroke="white" stroke-width="2" stroke-linecap="round"/>
<path d="M1 536.025C27.0883 538.79 70.7401 557.074 126.224 549.297C181.707 541.521 208.53 498.352 267.321 498.698C326.111 499.044 349.627 546.636 408.418 550.956C467.208 555.276 490.724 517.88 549.515 519.435C608.305 520.991 631.821 559.113 690.612 558.422C749.402 557.73 772.918 517.846 831.709 516.117C890.499 514.389 914.015 550.991 972.806 550.127C1031.6 549.263 1055.11 507.477 1113.9 511.97C1172.69 516.463 1225.6 559.251 1255 571.694" stroke="white" stroke-width="2" stroke-linecap="round"/>
<path d="M1 511.141C27.0883 513.906 70.7401 532.189 126.224 524.412C181.707 516.636 208.53 473.468 267.321 473.813C326.111 474.159 349.627 521.751 408.418 526.071C467.208 530.392 490.724 492.995 549.515 494.551C608.305 496.106 631.821 534.228 690.612 533.537C749.402 532.846 772.918 492.961 831.709 491.233C890.499 489.505 914.015 526.106 972.806 525.242C1031.6 524.378 1055.11 482.592 1113.9 487.085C1172.69 491.578 1225.6 534.366 1255 546.809" stroke="white" stroke-width="2" stroke-linecap="round"/>
<path d="M1 486.256C27.0883 489.021 70.7401 507.304 126.224 499.528C181.707 491.751 208.53 448.583 267.321 448.929C326.111 449.274 349.627 496.866 408.418 501.187C467.208 505.507 490.724 468.111 549.515 469.666C608.305 471.221 631.821 509.343 690.612 508.652C749.402 507.961 772.918 468.076 831.709 466.348C890.499 464.62 914.015 501.221 972.806 500.357C1031.6 499.493 1055.11 457.707 1113.9 462.2C1172.69 466.694 1225.6 509.482 1255 521.924" stroke="white" stroke-width="2" stroke-linecap="round"/>
<path d="M1 461.371C27.0883 464.136 70.7401 482.419 126.224 474.643C181.707 466.866 208.53 423.698 267.321 424.044C326.111 424.389 349.627 471.982 408.418 476.302C467.208 480.622 490.724 443.226 549.515 444.781C608.305 446.336 631.821 484.459 690.612 483.767C749.402 483.076 772.918 443.191 831.709 441.463C890.499 439.735 914.015 476.336 972.806 475.472C1031.6 474.608 1055.11 432.823 1113.9 437.316C1172.69 441.809 1225.6 484.597 1255 497.039" stroke="white" stroke-width="2" stroke-linecap="round"/>
<path d="M1 436.486C27.0883 439.251 70.7401 457.535 126.224 449.758C181.707 441.982 208.53 398.813 267.321 399.159C326.111 399.505 349.627 447.097 408.418 451.417C467.208 455.737 490.724 418.341 549.515 419.896C608.305 421.452 631.821 459.574 690.612 458.883C749.402 458.191 772.918 418.307 831.709 416.578C890.499 414.85 914.015 451.452 972.806 450.588C1031.6 449.724 1055.11 407.938 1113.9 412.431C1172.69 416.924 1225.6 459.712 1255 472.154" stroke="white" stroke-width="2" stroke-linecap="round"/>
<path d="M1 411.601C27.0883 414.366 70.7401 432.65 126.224 424.873C181.707 417.097 208.53 373.929 267.321 374.274C326.111 374.62 349.627 422.212 408.418 426.532C467.208 430.853 490.724 393.456 549.515 395.012C608.305 396.567 631.821 434.689 690.612 433.998C749.402 433.307 772.918 393.422 831.709 391.694C890.499 389.966 914.015 426.567 972.806 425.703C1031.6 424.839 1055.11 383.053 1113.9 387.546C1172.69 392.039 1225.6 434.827 1255 447.27" stroke="white" stroke-width="2" stroke-linecap="round"/>
<path d="M1 386.716C27.0883 389.481 70.7401 407.765 126.224 399.988C181.707 392.212 208.53 349.044 267.321 349.389C326.111 349.735 349.627 397.327 408.418 401.647C467.208 405.968 490.724 368.571 549.515 370.127C608.305 371.682 631.821 409.804 690.612 409.113C749.402 408.422 772.918 368.537 831.709 366.809C890.499 365.081 914.015 401.682 972.806 400.818C1031.6 399.954 1055.11 358.168 1113.9 362.661C1172.69 367.154 1225.6 409.942 1255 422.385" stroke="white" stroke-width="2" stroke-linecap="round"/>
<path d="M1 361.832C27.0883 364.597 70.7401 382.88 126.224 375.104C181.707 367.327 208.53 324.159 267.321 324.505C326.111 324.85 349.627 372.442 408.418 376.763C467.208 381.083 490.724 343.687 549.515 345.242C608.305 346.797 631.821 384.919 690.612 384.228C749.402 383.537 772.918 343.652 831.709 341.924C890.499 340.196 914.015 376.797 972.806 375.933C1031.6 375.069 1055.11 333.283 1113.9 337.776C1172.69 342.269 1225.6 385.058 1255 397.5" stroke="white" stroke-width="2" stroke-linecap="round"/>
<path d="M1 336.947C27.0883 339.712 70.7401 357.995 126.224 350.219C181.707 342.442 208.53 299.274 267.321 299.62C326.111 299.965 349.627 347.558 408.418 351.878C467.208 356.198 490.724 318.802 549.515 320.357C608.305 321.912 631.821 360.035 690.612 359.343C749.402 358.652 772.918 318.767 831.709 317.039C890.499 315.311 914.015 351.912 972.806 351.048C1031.6 350.184 1055.11 308.399 1113.9 312.892C1172.69 317.385 1225.6 360.173 1255 372.615" stroke="white" stroke-width="2" stroke-linecap="round"/>
<path d="M1 312.062C27.0883 314.827 70.7401 333.111 126.224 325.334C181.707 317.558 208.53 274.389 267.321 274.735C326.111 275.081 349.627 322.673 408.418 326.993C467.208 331.313 490.724 293.917 549.515 295.472C608.305 297.028 631.821 335.15 690.612 334.459C749.402 333.767 772.918 293.882 831.709 292.154C890.499 290.426 914.015 327.028 972.806 326.164C1031.6 325.3 1055.11 283.514 1113.9 288.007C1172.69 292.5 1225.6 335.288 1255 347.73" stroke="white" stroke-width="2" stroke-linecap="round"/>
<path d="M1 287.177C27.0883 289.942 70.7401 308.226 126.224 300.449C181.707 292.673 208.53 249.505 267.321 249.85C326.111 250.196 349.627 297.788 408.418 302.108C467.208 306.429 490.724 269.032 549.515 270.588C608.305 272.143 631.821 310.265 690.612 309.574C749.402 308.883 772.918 268.998 831.709 267.27C890.499 265.541 914.015 302.143 972.806 301.279C1031.6 300.415 1055.11 258.629 1113.9 263.122C1172.69 267.615 1225.6 310.403 1255 322.846" stroke="white" stroke-width="2" stroke-linecap="round"/>
<path d="M1 262.293C27.0883 265.058 70.7401 283.341 126.224 275.565C181.707 267.788 208.53 224.62 267.321 224.965C326.111 225.311 349.627 272.903 408.418 277.224C467.208 281.544 490.724 244.147 549.515 245.703C608.305 247.258 631.821 285.38 690.612 284.689C749.402 283.998 772.918 244.113 831.709 242.385C890.499 240.657 914.015 277.258 972.806 276.394C1031.6 275.53 1055.11 233.744 1113.9 238.237C1172.69 242.73 1225.6 285.518 1255 297.961" stroke="white" stroke-width="2" stroke-linecap="round"/>
<path d="M1 237.408C27.0883 240.173 70.7401 258.456 126.224 250.68C181.707 242.903 208.53 199.735 267.321 200.08C326.111 200.426 349.627 248.018 408.418 252.339C467.208 256.659 490.724 219.262 549.515 220.818C608.305 222.373 631.821 260.495 690.612 259.804C749.402 259.113 772.918 219.228 831.709 217.5C890.499 215.772 914.015 252.373 972.806 251.509C1031.6 250.645 1055.11 208.859 1113.9 213.352C1172.69 217.845 1225.6 260.633 1255 273.076" stroke="white" stroke-width="2" stroke-linecap="round"/>
<path d="M1 212.523C27.0883 215.288 70.7401 233.571 126.224 225.795C181.707 218.018 208.53 174.85 267.321 175.196C326.111 175.541 349.627 223.133 408.418 227.454C467.208 231.774 490.724 194.378 549.515 195.933C608.305 197.488 631.821 235.61 690.612 234.919C749.402 234.228 772.918 194.343 831.709 192.615C890.499 190.887 914.015 227.488 972.806 226.624C1031.6 225.76 1055.11 183.974 1113.9 188.468C1172.69 192.961 1225.6 235.749 1255 248.191" stroke="white" stroke-width="2" stroke-linecap="round"/>
<path d="M1 187.638C27.0883 190.403 70.7401 208.687 126.224 200.91C181.707 193.134 208.53 149.965 267.321 150.311C326.111 150.657 349.627 198.249 408.418 202.569C467.208 206.889 490.724 169.493 549.515 171.048C608.305 172.604 631.821 210.726 690.612 210.034C749.402 209.343 772.918 169.458 831.709 167.73C890.499 166.002 914.015 202.604 972.806 201.74C1031.6 200.875 1055.11 159.09 1113.9 163.583C1172.69 168.076 1225.6 210.864 1255 223.306" stroke="white" stroke-width="2" stroke-linecap="round"/>
<path d="M1 162.753C27.0883 165.518 70.7401 183.802 126.224 176.025C181.707 168.249 208.53 125.081 267.321 125.426C326.111 125.772 349.627 173.364 408.418 177.684C467.208 182.005 490.724 144.608 549.515 146.163C608.305 147.719 631.821 185.841 690.612 185.15C749.402 184.458 772.918 144.574 831.709 142.846C890.499 141.117 914.015 177.719 972.806 176.855C1031.6 175.991 1055.11 134.205 1113.9 138.698C1172.69 143.191 1225.6 185.979 1255 198.422" stroke="white" stroke-width="2" stroke-linecap="round"/>
<path d="M1 137.869C27.0883 140.634 70.7401 158.917 126.224 151.14C181.707 143.364 208.53 100.196 267.321 100.541C326.111 100.887 349.627 148.479 408.418 152.799C467.208 157.12 490.724 119.723 549.515 121.279C608.305 122.834 631.821 160.956 690.612 160.265C749.402 159.574 772.918 119.689 831.709 117.961C890.499 116.233 914.015 152.834 972.806 151.97C1031.6 151.106 1055.11 109.32 1113.9 113.813C1172.69 118.306 1225.6 161.094 1255 173.537" stroke="white" stroke-width="2" stroke-linecap="round"/>
<path d="M1 112.984C27.0883 115.749 70.7401 134.032 126.224 126.255C181.707 118.479 208.53 75.3107 267.321 75.6564C326.111 76.002 349.627 123.594 408.418 127.914C467.208 132.235 490.724 94.8384 549.515 96.3937C608.305 97.949 631.821 136.071 690.612 135.38C749.402 134.689 772.918 94.8038 831.709 93.0757C890.499 91.3476 914.015 127.949 972.806 127.085C1031.6 126.221 1055.11 84.4352 1113.9 88.9283C1172.69 93.4213 1225.6 136.209 1255 148.652" stroke="white" stroke-width="2" stroke-linecap="round"/>
<path d="M1 88.0988C27.0883 90.8638 70.7401 109.147 126.224 101.371C181.707 93.5942 208.53 50.426 267.321 50.7716C326.111 51.1172 349.627 98.7094 408.418 103.03C467.208 107.35 490.724 69.9536 549.515 71.5089C608.305 73.0642 631.821 111.186 690.612 110.495C749.402 109.804 772.918 69.9191 831.709 68.191C890.499 66.4628 914.015 103.064 972.806 102.2C1031.6 101.336 1055.11 59.5504 1113.9 64.0435C1172.69 68.5366 1225.6 111.325 1255 123.767" stroke="white" stroke-width="2" stroke-linecap="round"/>
<path d="M1 63.214C27.0883 65.979 70.7401 84.2624 126.224 76.4859C181.707 68.7094 208.53 25.5412 267.321 25.8868C326.111 26.2325 349.627 73.8246 408.418 78.1449C467.208 82.4652 490.724 45.0689 549.515 46.6242C608.305 48.1795 631.821 86.3016 690.612 85.6104C749.402 84.9191 772.918 45.0343 831.709 43.3062C890.499 41.5781 914.015 78.1795 972.806 77.3154C1031.6 76.4514 1055.11 34.6656 1113.9 39.1587C1172.69 43.6518 1225.6 86.4399 1255 98.8823" stroke="white" stroke-width="2" stroke-linecap="round"/>
</svg>
