<svg width="1029" height="536" viewBox="0 0 1029 536" fill="none" xmlns="http://www.w3.org/2000/svg">
<g clip-path="url(#clip0_4_596)">
<path opacity="0.91" d="M518.294 -60.6283C529.24 -61.2983 540.238 -61.8075 551.287 -62.1425C562.335 -62.4373 573.423 -62.5445 584.575 -62.4641C595.726 -62.3167 606.93 -61.9616 618.159 -61.3988C629.413 -60.7556 640.681 -59.9047 651.987 -58.8394C663.267 -57.6937 674.561 -56.3403 685.828 -54.7792C697.07 -53.1444 708.26 -51.3153 719.361 -49.2986C730.371 -47.2216 741.266 -44.9704 751.967 -42.5584C762.527 -40.1062 772.83 -37.5066 782.85 -34.773C792.638 -32.026 802.054 -29.1584 811.058 -26.1903C819.753 -23.2289 827.959 -20.1804 835.638 -17.0515C842.982 -13.9561 849.774 -10.7937 855.999 -7.57769C861.903 -4.40859 867.292 -1.19259 872.167 2.05691C879.049 6.86751 891.397 16.5691 897.481 21.4467C901.957 24.6426 906.716 27.8787 911.887 31.1483C917.803 34.3576 924.338 37.6071 931.605 40.9035C939.785 44.153 948.776 47.4494 958.539 50.8061C969.15 54.1226 980.392 57.4994 992.149 60.9499C1004.3 64.3669 1016.56 67.8643 1028.7 71.4354C1040.54 74.9931 1051.7 78.6312 1061.93 82.3631C1071.1 86.0883 1078.88 89.9006 1085.08 93.8067C1089.79 97.7128 1092.76 101.719 1094.03 105.82C1094.01 109.927 1092.59 114.128 1090.07 118.423C1087.1 122.731 1083.76 127.132 1080.45 131.621C1077.93 136.124 1076.27 140.72 1075.83 145.397C1077.18 150.087 1080.22 154.864 1085.04 159.708C1091.78 164.572 1100.08 169.51 1109.62 174.515C1120.16 179.527 1131.04 184.612 1141.7 189.751C1151.76 194.896 1160.47 200.102 1167.32 205.362C1172.16 210.628 1174.49 215.934 1174.17 221.294C1171.55 226.654 1166.58 232.055 1159.62 237.495C1151.52 242.935 1142.58 248.409 1133.47 253.923C1125.19 259.431 1118.11 264.911 1112.75 270.352C1109.62 275.799 1108.67 281.206 1109.85 286.586C1113.25 291.959 1118.23 297.306 1124.32 302.619C1131.28 307.939 1138.22 313.225 1144.52 318.491C1149.96 323.764 1153.75 329.01 1155.54 334.236C1155.37 339.489 1152.87 344.715 1148.06 349.934C1141.34 355.18 1132.77 360.42 1122.72 365.652C1111.77 370.925 1100.21 376.198 1088.53 381.485C1077.26 386.804 1066.67 392.144 1057.09 397.504C1048.89 402.904 1042.07 408.331 1036.68 413.772C1032.88 419.273 1030.36 424.793 1028.94 430.334C1028.61 435.922 1028.87 441.53 1029.4 447.145C1030.2 452.799 1030.68 458.461 1030.58 464.116C1029.96 469.791 1028.33 475.445 1025.57 481.053C1021.81 486.661 1016.78 492.209 1010.5 497.676C1003.18 503.09 994.721 508.403 985.254 513.582C975.029 518.674 964.057 523.592 952.545 528.328C940.673 532.925 928.531 537.293 916.299 541.414C904.105 545.353 892.04 549.018 880.206 552.375C868.682 555.517 857.517 558.344 846.725 560.83C836.371 563.095 826.415 565.011 816.833 566.579C807.7 567.939 798.877 568.964 790.31 569.667C782.104 570.197 774.078 570.431 766.155 570.404C758.476 570.277 750.81 569.935 743.105 569.413C735.542 568.897 727.863 568.267 720.03 567.564C712.248 566.974 704.273 566.391 696.067 565.855C687.86 565.54 679.41 565.353 670.715 565.306C661.981 565.58 652.99 566.056 643.755 566.753C634.481 567.818 624.95 569.131 615.187 570.686C605.399 572.609 595.379 574.759 585.141 577.111C574.889 579.771 564.432 582.578 553.782 585.493C543.119 588.588 532.289 591.704 521.278 594.772C510.268 597.868 499.219 600.776 488.157 603.442C477.108 605.975 466.047 608.159 454.985 609.961C443.923 611.496 432.874 612.581 421.851 613.197C410.828 613.465 399.843 613.224 388.885 612.487C377.964 611.382 367.083 609.78 356.265 607.71C345.486 605.305 334.785 602.471 324.173 599.235C313.613 595.751 303.169 591.938 292.866 587.838C282.64 583.59 272.556 579.128 262.652 574.512C252.851 569.842 243.242 565.091 233.84 560.287C224.553 555.544 215.498 550.814 206.674 546.124C197.966 541.574 189.49 537.112 181.258 532.75C173.129 528.583 165.219 524.543 157.54 520.63C149.899 516.932 142.452 513.374 135.185 509.937C127.904 506.708 120.766 503.599 113.743 500.59C106.643 497.77 99.6327 495.023 92.6869 492.329C85.6254 489.79 78.6282 487.278 71.6696 484.778C64.5952 482.38 57.5723 479.961 50.6266 477.496C43.5908 475.097 36.6707 472.631 29.8793 470.072C23.0622 467.546 16.438 464.913 10.0068 462.153C3.62698 459.392 -2.49557 456.498 -8.37374 453.463C-14.1747 450.401 -19.7056 447.185 -24.9535 443.815C-30.1499 440.411 -35.102 436.847 -39.8225 433.121C-44.5431 429.363 -49.0578 425.443 -53.4054 421.376C-57.7915 417.263 -62.0232 413.001 -66.1006 408.606C-70.2295 404.171 -74.1912 399.601 -77.9727 394.911C-81.7543 390.181 -85.3044 385.337 -88.5843 380.386C-91.7999 375.408 -94.694 370.329 -97.2536 365.157C-99.7104 359.971 -101.807 354.691 -103.569 349.338C-105.267 343.971 -106.656 338.531 -107.775 333.023C-108.933 327.509 -109.897 321.935 -110.695 316.307C-111.608 310.672 -112.406 304.991 -113.087 299.255C-113.911 293.52 -114.592 287.745 -115.081 281.923C-115.621 276.107 -115.904 270.312 -115.866 264.55C-115.75 258.788 -115.261 253.059 -114.374 247.357C-113.345 241.656 -111.917 235.987 -110.103 230.353C-108.2 224.718 -105.962 219.11 -103.44 213.536C-100.907 207.955 -98.1669 202.407 -95.2471 196.886C-92.3916 191.365 -89.4075 185.871 -86.269 180.404C-83.2206 174.93 -80.0179 169.49 -76.635 164.076C-73.3036 158.656 -69.7407 153.262 -65.9463 147.909C-62.1261 142.542 -58.0359 137.203 -53.6626 131.903C-49.2379 126.597 -44.5302 121.33 -39.5782 116.104C-34.5747 110.878 -29.3525 105.692 -23.9245 100.56C-18.5351 95.4281 -12.9785 90.3562 -7.28042 85.3446C-1.65951 80.3464 4.0643 75.4152 9.90388 70.5644C15.6663 65.7337 21.5444 60.9834 27.5512 56.3336C33.5066 51.7173 39.6291 47.2015 45.9317 42.7929C52.2601 38.4379 58.8071 34.1968 65.5985 30.083C72.4928 26.0295 79.6444 22.11 87.0789 18.3379C94.6549 14.6261 102.501 11.0684 110.63 7.66481C118.888 4.32821 127.403 1.15241 136.162 -1.85589C145.012 -4.80389 154.067 -7.59109 163.302 -10.2108C172.589 -12.7769 182.004 -15.1822 191.535 -17.4334C201.041 -19.6377 210.649 -21.6946 220.309 -23.6108C229.917 -25.5002 239.564 -27.2556 249.262 -28.8904C258.858 -30.5252 268.492 -32.0461 278.151 -33.4665C287.708 -34.907 297.316 -36.2604 306.95 -37.5334C316.494 -38.8533 326.103 -40.0995 335.75 -41.2854C345.332 -42.5383 354.992 -43.7376 364.729 -44.8833C374.401 -46.1094 384.177 -47.2819 394.055 -48.4142C403.895 -49.6202 413.851 -50.7793 423.935 -51.8848C433.993 -53.0573 444.18 -54.1695 454.522 -55.208C464.838 -56.3001 475.308 -57.3051 485.932 -58.2096C496.544 -59.1409 507.322 -59.9516 518.281 -60.6283" stroke="url(#paint0_linear_4_596)" stroke-width="2.5" stroke-linecap="round" stroke-dasharray="19 2"/>
<path opacity="0.36" d="M561.812 -48.0211C572.573 -48.3823 583.329 -48.5826 594.079 -48.6152C604.837 -48.6141 615.576 -48.4323 626.28 -48.0637C636.99 -47.6344 647.665 -47.005 658.304 -46.1752C668.908 -45.266 679.465 -44.1569 689.934 -42.8491C700.367 -41.4552 710.688 -39.8567 720.884 -38.0741C730.994 -36.2069 740.941 -34.1567 750.675 -31.9319C760.299 -29.6433 769.672 -27.1879 778.745 -24.5873C787.659 -21.938 796.235 -19.1581 804.436 -16.2487C812.416 -13.326 819.984 -10.295 827.117 -7.17011C834.006 -4.05266 840.448 -0.854965 846.417 2.4155C852.171 5.65252 857.494 8.94342 862.401 12.2752C867.207 15.5771 871.687 18.916 875.893 22.2867C880.168 25.6126 884.337 28.9688 888.489 32.3647C892.943 35.7028 897.573 39.0798 902.47 42.4986C907.938 45.8678 913.866 49.2846 920.328 52.7514C927.543 56.1808 935.408 59.6638 943.924 63.207C953.19 66.7196 963.068 70.2912 973.48 73.9328C984.398 77.5363 995.605 81.209 1006.92 84.9388C1018.25 88.6356 1029.28 92.3902 1039.81 96.1962C1049.7 99.9563 1058.64 103.754 1066.41 107.603C1073.02 111.39 1078.18 115.22 1081.79 119.082C1084.09 122.898 1084.89 126.755 1084.28 130.649C1082.76 134.515 1080.26 138.445 1077.07 142.435C1073.86 146.43 1070.65 150.506 1067.81 154.688C1066 158.908 1065.22 163.24 1065.74 167.692C1067.99 172.211 1071.78 176.85 1077.15 181.626C1084.14 186.452 1092.36 191.388 1101.48 196.427C1111.25 201.492 1121.07 206.625 1130.42 211.811C1139 216.981 1146.15 222.167 1151.47 227.357C1154.86 232.488 1155.9 237.601 1154.51 242.692C1151.07 247.728 1145.53 252.746 1138.21 257.757C1129.9 262.744 1120.86 267.748 1111.66 272.795C1103.22 277.865 1095.86 282.948 1090 288.064C1086.17 293.235 1084.28 298.446 1084.35 303.703C1086.47 309.023 1090.12 314.37 1094.9 319.738C1100.62 325.136 1106.51 330.531 1112.02 335.895C1116.97 341.255 1120.6 346.561 1122.55 351.809C1122.84 357.026 1121.05 362.173 1117.12 367.247C1111.39 372.293 1103.76 377.287 1094.56 382.233C1084.23 387.178 1073.02 392.103 1061.32 397.026C1049.62 401.983 1038.21 406.962 1027.4 411.973C1017.59 417.048 1008.84 422.175 1001.3 427.354C995.174 432.616 990.296 437.923 986.56 443.271C984.042 448.684 982.344 454.129 981.238 459.578C980.746 465.067 980.334 470.537 979.783 475.977C979.118 481.406 977.867 486.771 975.84 492.051C973.175 497.272 969.48 502.38 964.73 507.355C959.089 512.229 952.359 516.942 944.605 521.47C936.042 525.872 926.588 530.058 916.4 534.014C905.649 537.819 894.385 541.373 882.765 544.661C870.921 547.767 858.94 550.594 846.928 553.132C835.003 555.471 823.227 557.513 811.654 559.245C800.36 560.791 789.358 562.031 778.673 562.972C768.343 563.742 758.327 564.233 748.627 564.446C739.274 564.542 730.181 564.397 721.319 564.031C712.72 563.62 704.282 563.039 695.949 562.32C687.806 561.634 679.684 560.875 671.555 560.068C663.539 559.399 655.431 558.748 647.226 558.154C639.047 557.789 630.713 557.533 622.197 557.42C613.672 557.601 604.946 557.971 595.992 558.535C587.012 559.441 577.789 560.554 568.349 561.882C558.86 563.531 549.13 565.373 539.199 567.391C529.213 569.675 519.02 572.081 508.637 574.568C498.223 577.215 487.629 579.863 476.86 582.459C466.101 585.082 455.311 587.523 444.534 589.736C433.77 591.829 423.03 593.606 412.316 595.03C401.654 596.226 391.039 597.001 380.512 597.349C370.033 597.384 359.644 596.957 349.359 596.071C339.151 594.852 329.058 593.174 319.107 591.049C309.241 588.619 299.512 585.777 289.954 582.564C280.502 579.1 271.215 575.311 262.114 571.247C253.11 567.011 244.31 562.566 235.723 557.94C227.234 553.25 218.951 548.446 210.895 543.567C202.927 538.719 195.166 533.856 187.636 529.001C180.158 524.255 172.894 519.555 165.815 514.935C158.756 510.47 151.88 506.105 145.145 501.851C138.39 497.778 131.751 493.823 125.227 489.978C118.605 486.325 112.074 482.783 105.583 479.335C98.9694 476.065 92.3978 472.877 85.858 469.75C79.1716 466.78 72.5071 463.843 65.8902 460.942C59.1449 458.151 52.4637 455.363 45.874 452.563C39.1982 449.841 32.6552 447.084 26.2596 444.277C19.8723 441.51 13.6859 438.676 7.7405 435.762C1.84416 432.87 -3.78328 429.878 -9.1403 426.774C-14.4082 423.679 -19.3656 420.46 -24.0648 417.121C-28.6974 413.764 -33.071 410.281 -37.1847 406.665C-41.2833 403.029 -45.1726 399.252 -48.8543 395.347C-52.5706 391.407 -56.1171 387.332 -59.4693 383.135C-62.87 378.91 -66.0885 374.556 -69.1137 370.087C-72.148 365.584 -74.9511 360.975 -77.511 356.265C-80.0293 351.53 -82.2531 346.697 -84.1838 341.778C-86.048 336.842 -87.6063 331.821 -88.8466 326.722C-90.0348 321.618 -90.9564 316.435 -91.6128 311.187C-92.2806 305.925 -92.7353 300.602 -92.9899 295.218C-93.3344 289.832 -93.4915 284.384 -93.5014 278.886C-93.5875 273.38 -93.4878 267.826 -93.1895 262.224C-92.9169 256.622 -92.3761 251.041 -91.5551 245.489C-90.6956 239.938 -89.5045 234.417 -87.969 228.927C-86.3564 223.44 -84.3994 217.983 -82.1116 212.563C-79.7725 207.144 -77.1395 201.748 -74.2535 196.394C-71.3539 191.033 -68.2519 185.705 -64.9603 180.41C-61.7065 175.107 -58.288 169.829 -54.7064 164.59C-51.1754 159.342 -47.4676 154.127 -43.5711 148.951C-39.6866 143.768 -35.574 138.619 -31.234 133.51C-26.8684 128.403 -22.2369 123.336 -17.3532 118.318C-12.4052 113.302 -7.21786 108.334 -1.77822 103.413C3.67276 98.5063 9.33672 93.653 15.1744 88.8588C20.9841 84.0839 26.9419 79.3672 33.0205 74.7213C39.0062 70.0994 45.0991 65.5546 51.2729 61.0928C57.3401 56.6614 63.5003 52.32 69.739 48.0817C75.9089 43.8816 82.1959 39.7858 88.6234 35.815C95.0198 31.8903 101.595 28.0986 108.36 24.4403C115.184 20.8374 122.236 17.3825 129.517 14.0755C136.905 10.8323 144.56 7.74485 152.467 4.81953C160.496 1.95834 168.789 -0.740347 177.323 -3.27732C185.964 -5.75056 194.833 -8.06248 203.901 -10.2072C213.055 -12.309 222.372 -14.2581 231.84 -16.0617C241.342 -17.824 250.971 -19.4481 260.673 -20.9358C270.388 -22.4163 280.153 -23.7678 289.983 -25.01C299.775 -26.26 309.607 -27.408 319.479 -28.4542C329.279 -29.5429 339.121 -30.5498 348.98 -31.4823C358.781 -32.4702 368.613 -33.3901 378.477 -34.2553C388.285 -35.1894 398.152 -36.0747 408.052 -36.912C417.922 -37.824 427.839 -38.701 437.84 -39.5218C447.799 -40.4243 457.843 -41.2774 467.97 -42.0741C478.093 -42.9448 488.298 -43.7459 498.611 -44.4765C508.917 -45.2544 519.329 -45.9484 529.858 -46.5382C540.391 -47.1614 551.026 -47.6607 561.8 -48.0215" stroke="url(#paint1_linear_4_596)" stroke-width="2.5" stroke-linecap="round" stroke-dasharray="13 16"/>
<path opacity="0.88" d="M598.912 -34.1461C609.379 -34.21 619.772 -34.1234 630.093 -33.886C640.392 -33.6095 650.613 -33.1624 660.717 -32.5403C670.807 -31.8584 680.766 -30.9956 690.604 -29.9446C700.386 -28.8162 710.023 -27.5077 719.486 -26.0008C728.881 -24.4239 738.065 -22.6576 747.026 -20.7093C755.881 -18.6934 764.49 -16.5037 772.815 -14.1494C780.997 -11.7363 788.873 -9.17344 796.406 -6.46975C803.8 -3.7207 810.815 -0.846502 817.455 2.13954C823.937 5.14275 830.031 8.25037 835.744 11.4424C841.339 14.6407 846.555 17.9101 851.446 21.2405C856.275 24.5603 860.845 27.9384 865.183 31.3696C869.604 34.7722 873.899 38.2211 878.156 41.7215C882.679 45.1912 887.295 48.707 892.095 52.2679C897.341 55.809 902.912 59.3971 908.884 63.0437C915.458 66.6665 922.522 70.3533 930.102 74.1056C938.336 77.8307 947.087 81.6213 956.313 85.4817C966.039 89.3122 976.113 93.2045 986.397 97.1435C996.856 101.053 1007.24 104.998 1017.39 108.976C1027.21 112.9 1036.43 116.834 1044.85 120.78C1052.44 124.641 1058.94 128.502 1064.18 132.346C1069.65 137.966 1072.24 149.034 1069.85 154.514C1067.37 158.132 1064.31 161.796 1060.96 165.517C1057.91 169.256 1055.19 173.096 1053.09 177.055C1052.13 181.084 1052.29 185.263 1053.73 189.595C1056.76 194.033 1061.17 198.629 1066.89 203.386C1073.94 208.226 1081.88 213.195 1090.39 218.272C1099.26 223.372 1107.92 228.534 1115.91 233.721C1123.02 238.855 1128.66 243.965 1132.51 249.026C1134.55 253.982 1134.42 258.866 1132.1 263.668C1127.95 268.365 1121.92 272.999 1114.33 277.599C1105.9 282.147 1096.81 286.708 1087.58 291.314C1079.04 295.963 1071.43 300.663 1065.17 305.438C1060.69 310.324 1057.97 315.31 1057 320.398C1057.93 325.603 1060.29 330.889 1063.76 336.244C1068.26 341.662 1073.03 347.097 1077.66 352.516C1081.97 357.929 1085.27 363.28 1087.21 368.547C1087.79 373.744 1086.56 378.836 1083.41 383.81C1078.58 388.701 1071.94 393.487 1063.66 398.179C1054.16 402.823 1043.56 407.412 1032.19 411.954C1020.51 416.511 1008.74 421.069 997.198 425.648C986.25 430.29 976.053 434.985 966.751 439.736C958.632 444.579 951.584 449.495 945.64 454.459C940.891 459.517 937.08 464.612 934.041 469.728C931.847 474.889 930.056 480.041 928.482 485.153C927.156 490.252 925.629 495.272 923.738 500.182C921.552 505.02 918.699 509.715 915.057 514.234C910.795 518.633 905.621 522.828 899.539 526.799C892.742 530.611 885.07 534.173 876.586 537.482C867.499 540.6 857.746 543.454 847.45 546.018C836.769 548.396 825.74 550.483 814.465 552.279C803.05 553.897 791.559 555.22 780.081 556.261C768.68 557.131 757.418 557.733 746.332 558.069C735.446 558.269 724.807 558.235 714.416 557.966C704.274 557.625 694.383 557.09 684.739 556.382C675.33 555.668 666.118 554.824 657.084 553.883C648.24 553.015 639.513 552.093 630.852 551.162C622.313 550.379 613.79 549.639 605.253 548.958C596.769 548.503 588.207 548.165 579.549 547.963C570.894 548.037 562.096 548.278 553.155 548.699C544.169 549.428 535 550.334 525.66 551.425C516.267 552.81 506.681 554.359 496.921 556.045C487.094 557.97 477.091 559.985 466.931 562.065C456.739 564.285 446.395 566.488 435.922 568.636C425.442 570.811 414.989 572.812 404.585 574.601C394.203 576.289 383.885 577.691 373.668 578.769C363.51 579.642 353.462 580.143 343.556 580.248C333.735 580.089 324.077 579.501 314.579 578.491C305.2 577.185 295.995 575.458 286.998 573.325C278.104 570.909 269.44 568.109 260.974 564.949C252.637 561.562 244.528 557.858 236.636 553.878C228.859 549.735 221.302 545.371 213.968 540.817C206.73 536.182 199.703 531.418 192.892 526.559C186.132 521.704 179.551 516.799 173.181 511.879C166.796 507.027 160.587 502.198 154.51 497.412C148.392 492.751 142.377 488.151 136.471 483.645C130.455 479.274 124.508 475.001 118.604 470.826C112.56 466.811 106.547 462.885 100.539 459.054C94.3669 455.375 88.2036 451.77 82.0492 448.241C75.7467 444.851 69.4591 441.508 63.2136 438.209C56.85 435.031 50.5615 431.865 44.3722 428.717C38.1362 425.662 32.0467 422.588 26.1421 419.499C20.248 416.478 14.5959 413.418 9.17446 410.311C3.8477 407.244 -1.21975 404.119 -5.98504 400.918C-10.6527 397.743 -15.0407 394.477 -19.1378 391.128C-23.1583 387.784 -26.9089 384.335 -30.3911 380.788C-33.8718 377.234 -37.118 373.559 -40.1596 369.783C-43.2223 365.985 -46.103 362.07 -48.792 358.052C-51.526 354.004 -54.0796 349.846 -56.44 345.579C-58.8229 341.296 -60.9869 336.906 -62.9225 332.422C-64.8535 327.918 -66.5192 323.329 -67.9181 318.648C-69.2756 313.956 -70.3564 309.187 -71.148 304.342C-71.8996 299.492 -72.3875 294.564 -72.6145 289.571C-72.8272 284.572 -72.819 279.513 -72.5755 274.387C-72.3703 269.258 -71.9441 264.069 -71.3112 258.826C-70.7294 253.579 -69.9154 248.279 -68.8721 242.939C-67.8529 237.591 -66.567 232.266 -65.027 226.964C-63.4616 221.663 -61.6166 216.386 -59.4808 211.14C-57.2955 205.904 -54.8434 200.692 -52.1006 195.511C-49.3465 190.337 -46.3272 185.193 -43.0952 180.082C-39.8632 174.972 -36.4299 169.887 -32.811 164.841C-29.2177 159.793 -25.4486 154.769 -21.4954 149.791C-17.5805 144.81 -13.453 139.862 -9.13995 134.953C-4.80285 130.052 -0.256148 125.198 4.53999 120.386C9.37293 115.583 14.4666 110.83 19.7924 106.138C25.1805 101.457 30.815 96.832 36.6546 92.2732C42.5311 87.7234 48.5983 83.2461 54.8307 78.8397C61.0459 74.4525 67.3737 70.1397 73.8141 65.9013C80.1704 61.6914 86.5979 57.5669 93.0825 53.5336C99.4573 49.5272 105.875 45.618 112.359 41.814C118.718 38.0496 125.168 34.3987 131.681 30.8664C138.144 27.385 144.719 24.0387 151.432 20.8223C158.145 17.6666 165.032 14.6566 172.105 11.7996C179.229 8.99988 186.577 6.35556 194.146 3.88001C201.819 1.45811 209.727 -0.800884 217.856 -2.89112C226.103 -4.93357 234.573 -6.81392 243.254 -8.53959C252.041 -10.2183 261.013 -11.7438 270.148 -13.1312C279.38 -14.4856 288.737 -15.7109 298.232 -16.7995C307.766 -17.8924 317.403 -18.8643 327.119 -19.7302C336.853 -20.6152 346.655 -21.4015 356.502 -22.1041C366.344 -22.8407 376.235 -23.5069 386.15 -24.1041C396.052 -24.7628 405.981 -25.366 415.934 -25.9068C425.878 -26.5225 435.839 -27.0966 445.841 -27.6211C455.822 -28.2277 465.845 -28.7913 475.896 -29.3059C485.94 -29.9019 496.036 -30.4475 506.172 -30.9366C516.299 -31.5006 526.488 -31.9932 536.739 -32.4213C546.974 -32.8909 557.282 -33.2818 567.644 -33.5681C577.999 -33.8819 588.419 -34.0836 598.899 -34.1468" stroke="url(#paint2_linear_4_596)" stroke-width="2.5" stroke-linecap="round" stroke-dasharray="21 26"/>
<path opacity="0.93" d="M628.228 -19.5867C638.281 -19.3743 648.198 -19.0316 657.962 -18.5466C667.702 -18.0298 677.281 -17.3509 686.678 -16.5189C696.044 -15.6353 705.22 -14.5787 714.17 -13.3594C723.083 -12.0687 731.754 -10.6032 740.171 -8.97061C748.522 -7.26242 756.609 -5.38836 764.404 -3.35079C772.11 -1.24655 779.501 1.01886 786.592 3.43341C793.559 5.90451 800.216 8.51699 806.531 11.2541C812.748 14.0436 818.626 16.9511 824.179 19.9646C829.67 23.0064 834.855 26.1422 839.758 29.3744C844.645 32.6187 849.307 35.9442 853.786 39.3479C858.344 42.7522 862.798 46.2285 867.204 49.7684C871.832 53.3085 876.504 56.9139 881.296 60.5849C886.454 64.256 891.84 67.9889 897.503 71.7885C903.648 75.592 910.164 79.4572 917.072 83.3997C924.506 87.3298 932.347 91.3317 940.582 95.4042C949.281 99.4585 958.272 103.574 967.507 107.739C976.948 111.876 986.444 116.046 995.852 120.241C1005.12 124.375 1014.03 128.517 1022.4 132.65C1030.23 136.691 1037.26 140.699 1043.32 144.672C1050.53 150.419 1057.63 161.478 1057.52 166.797C1055.3 171.953 1047.03 182.23 1042.33 187.483C1039.79 191.051 1037.78 194.744 1036.53 198.582C1036.48 202.525 1037.54 206.646 1039.79 210.952C1043.45 215.389 1048.26 220.007 1054.12 224.791C1060.98 229.675 1068.45 234.684 1076.18 239.792C1084.04 244.905 1091.46 250.059 1098.08 255.2C1103.74 260.251 1107.93 265.241 1110.41 270.134C1111.22 274.871 1110.06 279.493 1106.9 283.997C1102.14 288.346 1095.73 292.61 1087.94 296.807C1079.45 300.939 1070.37 305.078 1061.15 309.264C1052.56 313.516 1044.79 317.837 1038.17 322.272C1033.16 326.856 1029.67 331.588 1027.75 336.46C1027.55 341.499 1028.7 346.668 1030.92 351.938C1034.16 357.303 1037.83 362.713 1041.48 368.13C1045.05 373.546 1047.88 378.899 1049.65 384.154C1050.35 389.33 1049.5 394.362 1046.99 399.254C1042.97 404.012 1037.26 408.627 1029.97 413.095C1021.42 417.472 1011.64 421.736 1000.9 425.918C989.605 430.061 977.917 434.168 966.112 438.271C954.571 442.406 943.422 446.577 932.873 450.789C923.194 455.097 914.384 459.457 906.503 463.891C899.716 468.412 893.852 472.986 888.825 477.596C884.743 482.266 881.288 486.941 878.288 491.583C875.82 496.233 873.483 500.807 871.13 505.278C868.837 509.686 866.207 513.933 863.141 518.004C859.749 521.956 855.729 525.687 851.007 529.175C845.766 532.499 839.768 535.556 833.044 538.327C825.77 540.912 817.811 543.208 809.263 545.204C800.247 547 790.755 548.507 780.88 549.72C770.703 550.749 760.295 551.497 749.709 551.963C739.014 552.29 728.278 552.354 717.561 552.176C706.877 551.898 696.293 551.405 685.842 550.713C675.511 549.978 665.35 549.088 655.355 548.058C645.522 547.049 635.85 545.953 626.347 544.785C616.968 543.709 607.715 542.612 598.573 541.531C589.523 540.602 580.533 539.726 571.595 538.93C562.673 538.353 553.752 537.885 544.8 537.55C535.835 537.48 526.805 537.56 517.694 537.802C508.516 538.318 499.24 539.001 489.86 539.838C480.403 540.94 470.819 542.18 461.107 543.53C451.347 545.094 441.457 546.734 431.475 548.414C421.435 550.224 411.313 552.006 401.131 553.735C390.945 555.477 380.823 557.068 370.82 558.467C360.846 559.779 351.002 560.825 341.306 561.592C331.684 562.182 322.245 562.428 313.002 562.331C303.867 561.993 294.94 561.28 286.249 560.18C277.673 558.818 269.345 557.078 261.277 554.961C253.335 552.59 245.631 549.867 238.212 546.809C230.894 543.53 223.835 539.954 217.022 536.116C210.306 532.11 203.836 527.881 197.588 523.462C191.399 518.947 185.429 514.289 179.641 509.518C173.877 504.715 168.265 499.852 162.812 494.942C157.322 490.063 151.939 485.18 146.656 480.306C141.266 475.518 135.956 470.764 130.678 466.068C125.274 461.476 119.884 456.953 114.495 452.505C108.945 448.185 103.383 443.939 97.808 439.767C92.0697 435.729 86.3216 431.758 80.5888 427.857C74.7073 424.084 68.8606 420.363 63.0615 416.694C57.1711 413.138 51.3855 409.62 45.7199 406.133C40.0204 402.746 34.5004 399.368 29.1852 396.002C23.9086 392.715 18.8838 389.417 14.1109 386.108C9.4235 382.855 5.03502 379.569 0.930511 376.254C-4.94022 371.305 -15.1497 361.169 -19.5508 355.935C-23.705 350.629 -30.9949 339.56 -34.1812 333.792C-36.321 329.891 -38.2751 325.905 -40.0515 321.82C-41.8613 317.718 -43.4831 313.525 -44.8914 309.242C-46.3229 304.951 -47.5155 300.573 -48.4614 296.123C-49.39 291.661 -50.0568 287.12 -50.4537 282.517C-50.8207 277.903 -50.9201 273.232 -50.7346 268.492C-50.5491 263.752 -50.0936 258.948 -49.3704 254.088C-48.6599 249.227 -47.6967 244.314 -46.4806 239.35C-45.275 234.378 -43.8211 229.368 -42.1145 224.307C-40.4079 219.245 -38.448 214.207 -36.2601 209.191C-34.0574 204.168 -31.6036 199.176 -28.9116 194.213C-26.2091 189.258 -23.2787 184.324 -20.1099 179.419C-16.9561 174.519 -13.5915 169.652 -10.0266 164.811C-6.48924 159.974 -2.76648 155.168 1.12679 150.398C5.00514 145.634 9.05624 140.899 13.2883 136.208C17.518 131.524 21.9563 126.88 26.5881 122.28C31.2534 117.698 36.1502 113.164 41.2741 108.692C46.4718 104.234 51.8987 99.8315 57.5734 95.5062C63.3093 91.1933 69.293 86.9579 75.4761 82.7887C81.7009 78.6506 88.1101 74.584 94.6741 70.5999C101.216 66.641 107.888 62.7622 114.647 58.9731C121.32 55.2033 128.053 51.5275 134.832 47.9445C141.482 44.3971 148.166 40.9413 154.864 37.5958C161.432 34.2859 168.028 31.0873 174.646 28.0134C181.172 24.9786 187.76 22.0719 194.42 19.2946C201.035 16.5742 207.758 13.9933 214.602 11.5596C221.452 9.18101 228.473 6.95434 235.651 4.87841C242.9 2.86349 250.344 1.00283 257.971 -0.704742C265.708 -2.35438 273.644 -3.85634 281.762 -5.20521C290.01 -6.51476 298.433 -7.68559 307.028 -8.7111C315.746 -9.71165 324.617 -10.589 333.63 -11.3444C342.731 -12.0915 351.952 -12.7322 361.294 -13.2664C370.695 -13.8223 380.186 -14.2951 389.763 -14.6781C399.38 -15.0984 409.051 -15.4522 418.779 -15.7396C428.542 -16.0918 438.337 -16.3865 448.168 -16.6303C458.023 -16.9467 467.915 -17.2188 477.819 -17.449C487.748 -17.7518 497.688 -18.0126 507.656 -18.2369C517.633 -18.5283 527.635 -18.7767 537.646 -18.9765C547.677 -19.2356 557.729 -19.4385 567.781 -19.5665C577.851 -19.7472 587.917 -19.8399 597.991 -19.8432C608.075 -19.873 618.145 -19.7882 628.216 -19.5878" stroke="url(#paint3_linear_4_596)" stroke-width="2.5" stroke-linecap="round" stroke-dasharray="13 18"/>
<path opacity="0.61" d="M650.022 -4.87705C659.577 -4.42797 668.916 -3.8543 678.067 -3.15943C687.193 -2.44005 696.107 -1.57497 704.783 -0.567313C713.425 0.48439 721.812 1.69014 729.945 3.04342C738.023 4.45874 745.833 6.02654 753.372 7.75334C760.827 9.54556 768.001 11.4887 774.869 13.5796C781.666 15.7376 788.17 18.0449 794.374 20.4869C800.507 22.996 806.344 25.6333 811.898 28.3939C817.419 31.1985 822.684 34.1296 827.698 37.174C832.719 40.2607 837.56 43.449 842.223 46.739C846.977 50.0611 851.62 53.4795 856.225 56.9827C860.989 60.5127 865.789 64.1367 870.656 67.845C875.804 71.5745 881.113 75.3861 886.608 79.283C892.477 83.199 898.598 87.2016 905.013 91.2822C911.834 95.3723 918.962 99.542 926.385 103.79C934.169 108.028 942.211 112.339 950.454 116.703C958.908 121.038 967.434 125.417 975.924 129.819C984.384 134.169 992.62 138.518 1000.5 142.858C1008.03 147.105 1014.98 151.315 1021.22 155.47C1026.81 159.502 1031.5 163.457 1035.22 167.332C1039.03 172.893 1040.33 183.417 1038.12 188.433C1034.6 193.299 1025.81 203.08 1021.78 208.164C1019.35 213.482 1020.12 225.155 1023.91 231.581C1027.99 236.079 1032.97 240.752 1038.73 245.598C1045.22 250.529 1052.02 255.574 1058.85 260.691C1065.57 265.789 1071.72 270.884 1076.97 275.942C1081.23 280.869 1084.06 285.688 1085.26 290.371C1084.95 294.866 1082.85 299.206 1078.97 303.386C1073.72 307.402 1067.01 311.297 1059.08 315.109C1050.59 318.844 1041.57 322.589 1032.42 326.38C1023.83 330.24 1015.94 334.201 1009.05 338.287C1003.55 342.555 999.391 346.996 996.616 351.617C995.401 356.44 995.413 361.416 996.444 366.533C998.488 371.776 1001 377.092 1003.68 382.429C1006.42 387.787 1008.68 393.091 1010.13 398.296C1010.78 403.413 1010.16 408.379 1008.13 413.169C1004.81 417.818 999.969 422.271 993.638 426.544C986.074 430.678 977.263 434.648 967.376 438.485C956.77 442.245 945.545 445.914 933.95 449.523C922.303 453.133 910.752 456.734 899.485 460.349C888.784 464.029 878.686 467.749 869.318 471.519C860.848 475.381 853.2 479.297 846.353 483.251C840.435 487.287 835.216 491.327 830.621 495.363C826.713 499.429 823.2 503.441 819.928 507.359C815.515 513.126 806.174 523.707 800.608 528.386C794.147 532.595 777.835 539.356 767.948 541.87C760.749 543.258 753.051 544.35 744.895 545.143C736.405 545.771 727.558 546.113 718.421 546.192C709.048 546.124 699.493 545.819 689.809 545.278C680.017 544.655 670.171 543.832 660.313 542.835C650.442 541.809 640.608 540.643 630.851 539.369C621.107 538.125 611.458 536.817 601.911 535.459C592.397 534.202 582.977 532.943 573.639 531.708C564.322 530.627 555.056 529.608 545.845 528.671C536.628 527.947 527.416 527.328 518.225 526.835C508.977 526.582 499.703 526.471 490.403 526.502C481.028 526.785 471.611 527.214 462.118 527.779C452.559 528.576 442.93 529.496 433.246 530.505C423.475 531.703 413.662 532.965 403.809 534.256C393.908 535.652 383.988 537.031 374.054 538.354C364.114 539.689 354.328 540.892 344.688 541.921C335.097 542.873 325.689 543.6 316.501 544.078C307.372 544.399 298.487 544.419 289.859 544.141C281.33 543.648 273.06 542.822 265.077 541.659C257.217 540.258 249.632 538.518 242.349 536.437C235.171 534.129 228.302 531.493 221.69 528.559C215.202 525.413 208.973 521.99 203.021 518.312C197.131 514.469 191.478 510.4 186.054 506.147C180.67 501.782 175.46 497.266 170.429 492.621C165.384 487.919 160.484 483.132 155.696 478.276C150.829 473.417 146.055 468.529 141.341 463.627C136.502 458.765 131.711 453.916 126.922 449.087C121.995 444.331 117.06 439.622 112.119 434.954C106.998 430.387 101.879 425.876 96.761 421.42C91.4704 417.08 86.2057 412.799 80.9517 408.58C75.581 404.472 70.277 400.42 65.049 396.432C59.7606 392.547 54.5822 388.71 49.567 384.922C44.5568 381.237 39.7437 377.584 35.1528 373.965C30.6164 370.429 26.3207 366.916 22.3122 363.412C16.5604 358.263 6.62067 348.017 2.40075 342.874C-1.49149 337.737 -8.09437 327.253 -10.8901 321.861C-13.5748 316.399 -18.2464 305.081 -20.2178 299.22C-21.5485 295.271 -22.7091 291.241 -23.6526 287.14C-24.6432 283.027 -25.4261 278.837 -25.9825 274.586C-26.5328 270.321 -26.8316 265.998 -26.8662 261.619C-26.8698 257.229 -26.6123 252.79 -26.0531 248.299C-25.4659 243.804 -24.605 239.261 -23.4581 234.671C-22.2736 230.086 -20.8029 225.453 -19.0741 220.777C-17.3078 216.106 -15.2709 211.393 -12.9788 206.643C-10.6617 201.895 -8.11346 197.163 -5.32757 192.461C-2.55419 187.757 0.431826 183.08 3.63048 178.429C6.80412 173.775 10.1654 169.145 13.7208 164.552C17.2386 159.955 20.9286 155.386 24.7752 150.851C28.5813 146.317 32.5595 141.812 36.6883 137.353C40.792 132.891 45.0619 128.47 49.5104 124.093C53.9405 119.727 58.5866 115.408 63.4399 111.157C68.3308 106.91 73.4538 102.734 78.7995 98.6199C84.2267 94.5299 89.8831 90.5167 95.7812 86.5819C101.761 82.6711 107.967 78.8436 114.383 75.1045C120.853 71.3927 127.496 67.7646 134.307 64.2331C141.095 60.7196 148.011 57.3046 155.015 53.9834C161.955 50.6885 168.946 47.4827 175.967 44.3841C182.861 41.3039 189.772 38.3293 196.675 35.4571C203.433 32.6149 210.18 29.8817 216.926 27.2654C223.539 24.6807 230.176 22.2161 236.806 19.8816C243.367 17.5799 249.957 15.4195 256.617 13.3919C263.231 11.4069 269.952 9.5659 276.777 7.86903C283.61 6.21438 290.589 4.702 297.708 3.34491C304.89 2.02326 312.243 0.84701 319.755 -0.185418C327.346 -1.18736 335.123 -2.04887 343.064 -2.77958C351.106 -3.4978 359.313 -4.08521 367.681 -4.56293C376.139 -5.03623 384.749 -5.40792 393.47 -5.67617C402.306 -5.96449 411.249 -6.17048 420.288 -6.2957C429.41 -6.45871 438.621 -6.55555 447.908 -6.58777C457.26 -6.67393 466.681 -6.71007 476.131 -6.69435C485.664 -6.74406 495.216 -6.74999 504.804 -6.7171C514.437 -6.75431 524.099 -6.73966 533.762 -6.69739C543.48 -6.71715 553.192 -6.69626 562.893 -6.62168C572.636 -6.6107 582.377 -6.53795 592.076 -6.40161C601.808 -6.30931 611.52 -6.14379 621.177 -5.88861C630.843 -5.65298 640.465 -5.31962 650.01 -4.87862" stroke="url(#paint4_linear_4_596)" stroke-width="2.5" stroke-linecap="round" stroke-dasharray="24 4"/>
<path opacity="0.18" d="M666.058 9.68295C675.032 10.3359 683.793 11.1021 692.331 11.9732C700.851 12.8764 709.112 13.8999 717.141 15.0476C725.126 16.2446 732.863 17.5703 740.33 19.0355C747.735 20.5609 754.887 22.2214 761.757 24.0195C768.574 25.8862 775.118 27.8988 781.385 30.0425C790.597 33.4283 807.722 40.9817 815.701 45.125C820.965 47.9996 826.051 50.9933 830.989 54.1037C835.991 57.2661 840.893 60.5528 845.733 63.9486C850.705 67.3933 855.679 70.9504 860.674 74.6089C865.872 78.3132 871.164 82.1306 876.576 86.0437C882.263 89.9932 888.118 94.0463 894.164 98.1856C900.51 102.365 907.063 106.626 913.808 110.974C920.843 115.332 928.036 119.764 935.371 124.254C942.884 128.737 950.453 133.263 958.006 137.815C965.554 142.331 972.942 146.844 980.075 151.357C986.979 155.779 993.445 160.166 999.392 164.5C1004.86 168.716 1009.63 172.85 1013.62 176.896C1018.21 182.688 1021.93 193.552 1021.11 198.632C1018.8 203.468 1011.17 212.857 1006.75 217.556C1002.97 222.386 998.658 232.808 998.93 238.536C1000.46 242.579 1002.88 246.817 1006.15 251.261C1010.41 255.846 1015.31 260.604 1020.74 265.506C1026.64 270.477 1032.63 275.524 1038.43 280.612C1043.98 285.653 1048.83 290.653 1052.72 295.572C1055.63 300.33 1057.2 304.945 1057.23 309.39C1055.92 313.614 1053.01 317.655 1048.52 321.512C1042.86 325.19 1035.92 328.73 1027.94 332.175C1019.49 335.546 1010.57 338.906 1001.54 342.326C992.992 345.815 985.041 349.411 977.932 353.155C972.041 357.091 967.316 361.218 963.79 365.548C961.655 370.098 960.621 374.835 960.547 379.724C961.453 384.774 962.87 389.919 964.545 395.105C966.425 400.33 968.019 405.517 969.042 410.621C969.512 415.637 968.968 420.501 967.268 425.182C964.508 429.696 960.416 434.007 954.985 438.099C948.422 442.013 940.644 445.729 931.765 449.256C922.086 452.657 911.631 455.915 900.608 459.062C889.318 462.16 877.858 465.204 866.408 468.207C855.253 471.235 844.428 474.273 834.1 477.334C824.428 480.471 815.412 483.633 807.086 486.835C799.57 490.123 792.771 493.425 786.614 496.731C781.206 500.092 776.329 503.418 771.876 506.685C766.086 511.533 755.657 520.5 750.428 524.478C744.929 528.063 731.946 533.75 724.266 535.793C715.687 537.303 695.957 538.691 684.925 538.596C677.204 538.33 669.194 537.822 660.948 537.095C652.506 536.288 643.901 535.301 635.152 534.145C626.284 532.963 617.337 531.663 608.33 530.256C599.249 528.886 590.144 527.463 581.041 525.992C571.866 524.621 562.715 523.255 553.578 521.911C544.384 520.712 535.205 519.579 526.034 518.524C516.796 517.655 507.567 516.884 498.325 516.231C489.008 515.797 479.673 515.487 470.305 515.303C460.863 515.34 451.383 515.51 441.876 515.795C432.283 516.277 422.666 516.867 413.026 517.544C403.312 518.371 393.577 519.257 383.86 520.16C374.094 521.167 364.348 522.143 354.656 523.071C344.956 524.011 335.458 524.837 326.152 525.518C316.887 526.128 307.855 526.544 299.072 526.741C290.364 526.809 281.927 526.619 273.781 526.159C265.743 525.514 257.995 524.579 250.552 523.348C243.221 521.905 236.198 520.16 229.482 518.12C222.88 515.86 216.568 513.31 210.551 510.484C204.633 507.464 198.974 504.184 193.591 500.661C188.248 496.975 183.15 493.077 178.245 488.985C173.367 484.778 168.667 480.403 164.127 475.892C159.546 471.312 155.098 466.62 150.739 461.844C146.305 457.035 141.941 452.174 137.628 447.272C133.202 442.38 128.796 437.478 124.405 432.57C119.883 427.705 115.365 422.855 110.841 418.039C106.186 413.286 101.534 408.576 96.9044 403.918C92.1611 399.34 87.4534 394.817 82.7933 390.351C78.0613 385.985 73.4263 381.683 68.8958 377.433C64.3425 373.291 59.943 369.209 55.7131 365.181C51.521 361.25 47.5355 357.38 43.7925 353.555C40.1033 349.823 36.6725 346.131 33.5077 342.468C29.0161 337.111 21.4661 326.566 18.3808 321.333C15.5503 316.147 10.8803 305.666 8.96595 300.337C7.09369 294.959 3.92244 283.888 2.63576 278.196C1.73631 274.358 1.00098 270.469 0.42864 266.507C-0.18063 262.54 -0.597431 258.518 -0.789687 254.435C-0.994254 250.349 -0.957104 246.218 -0.649905 242.038C-0.314357 237.855 0.296101 233.639 1.18893 229.377C2.15561 225.126 3.41325 220.837 4.97041 216.518C6.59286 212.203 8.50252 207.856 10.7117 203.479C12.9664 199.116 15.5121 194.715 18.3375 190.296C21.179 185.872 24.2457 181.476 27.5378 177.109C30.8053 172.738 34.2574 168.396 37.8856 164.075C41.4731 159.755 45.2329 155.462 49.1245 151.196C52.9631 146.93 56.9371 142.684 61.0353 138.479C65.0843 134.267 69.2612 130.088 73.587 125.955C77.8598 121.819 82.2814 117.729 86.8728 113.693C91.4568 109.669 96.2264 105.697 101.195 101.797C106.197 97.9099 111.436 94.102 116.886 90.3695C122.414 86.6634 128.175 83.0429 134.165 79.5146C140.257 76.0165 146.563 72.615 153.069 69.3082C159.65 66.0341 166.415 62.8592 173.336 59.7858C180.267 56.742 187.325 53.8024 194.474 50.961C201.572 48.1395 208.727 45.4252 215.917 42.8143C223.002 40.2218 230.084 37.7269 237.156 35.3424C244.082 32.9769 250.977 30.7114 257.845 28.5609C264.564 26.4357 271.248 24.4171 277.918 22.5152C287.733 19.7584 307.235 14.9037 317.033 12.8233C326.827 10.9104 346.893 7.7898 357.221 6.57711C367.765 5.52451 389.667 4.05193 401.029 3.60435C408.762 3.34042 416.627 3.1742 424.627 3.09931C432.731 3.00595 440.959 3.00196 449.304 3.07258C457.753 3.10355 466.295 3.20525 474.934 3.37125C483.66 3.4809 492.474 3.64651 501.352 3.86419C510.304 4.02357 519.324 4.2286 528.374 4.47347C537.499 4.66005 546.658 4.88004 555.828 5.15074C565.051 5.35285 574.297 5.60762 583.517 5.90727C592.795 6.1531 602.04 6.45663 611.263 6.81982C620.509 7.14454 629.714 7.53979 638.845 8.01452C647.993 8.48477 657.068 9.0345 666.046 9.68101" stroke="url(#paint5_linear_4_596)" stroke-width="2.5" stroke-linecap="round" stroke-dasharray="8 12"/>
<path opacity="0.46" d="M678.956 24.1686C687.359 25.0026 695.544 25.9305 703.519 26.961C711.472 28.023 719.2 29.1915 726.696 30.4729C734.149 31.7959 741.375 33.2467 748.35 34.8206C758.637 37.3301 777.975 43.1113 787.041 46.3789C795.87 49.8865 812.559 57.6871 820.523 61.9713C825.827 64.9383 831.025 68.0349 836.142 71.266C841.341 74.5555 846.516 77.9761 851.671 81.5215C856.966 85.1221 862.293 88.8504 867.691 92.6923C873.252 96.594 878.905 100.599 884.669 104.718C890.626 108.874 896.698 113.138 902.888 117.489C909.263 121.868 915.718 126.327 922.264 130.853C928.914 135.385 935.574 139.962 942.203 144.583C948.814 149.171 955.294 153.77 961.57 158.366C967.672 162.9 973.434 167.39 978.783 171.844C983.784 176.188 988.249 180.457 992.093 184.636C996.75 190.65 1001.57 201.905 1001.66 207.143C1000.32 212.077 994.279 221.435 990.145 225.982C986.063 230.533 979.184 240.066 977.195 245.225C976.88 248.849 977.258 252.656 978.369 256.667C980.422 260.839 983.189 265.204 986.631 269.756C990.807 274.434 995.414 279.259 1000.31 284.204C1005.45 289.175 1010.48 294.196 1015.18 299.218C1019.51 304.153 1023.06 309.012 1025.65 313.743C1027.3 318.293 1027.68 322.664 1026.67 326.834C1024.48 330.769 1020.87 334.503 1015.87 338.036C1009.89 341.379 1002.81 344.575 994.819 347.669C986.451 350.683 977.688 353.693 968.797 356.749C960.344 359.882 952.389 363.125 945.138 366.518C938.953 370.108 933.744 373.907 929.573 377.905C926.634 382.139 924.687 386.578 923.593 391.187C923.441 395.978 923.819 400.87 924.519 405.831C925.528 410.858 926.417 415.863 926.931 420.795C927.095 425.661 926.504 430.374 925.007 434.913C922.669 439.284 919.198 443.438 914.58 447.35C908.974 451.072 902.221 454.553 894.42 457.812C885.803 460.907 876.347 463.812 866.205 466.542C855.633 469.183 844.694 471.704 833.568 474.139C822.473 476.551 811.485 478.927 800.736 481.277C790.418 483.674 780.553 486.072 771.211 488.485C762.528 490.975 754.443 493.472 746.98 495.981C737.101 499.833 720.885 507.432 714.164 511.062C708.27 514.551 697.275 520.659 691.733 523.166C679.531 526.715 657.699 529.095 649.032 528.867C639.709 528.249 619.317 525.878 608.388 524.217C600.833 523.038 593.105 521.734 585.225 520.337C577.189 518.966 569.042 517.538 560.787 516.069C552.39 514.686 543.922 513.304 535.382 511.929C526.726 510.697 517.999 509.508 509.228 508.382C500.341 507.419 491.404 506.547 482.416 505.765C473.32 505.176 464.176 504.692 454.986 504.314C445.698 504.131 436.363 504.054 427.002 504.071C417.546 504.263 408.072 504.537 398.59 504.881C389.022 505.366 379.472 505.883 369.946 506.425C360.366 507.043 350.844 507.637 341.407 508.189C331.948 508.752 322.699 509.212 313.69 509.547C304.72 509.825 295.993 509.935 287.545 509.864C279.157 509.668 271.071 509.259 263.276 508.613C255.58 507.807 248.184 506.752 241.113 505.431C234.131 503.927 227.473 502.157 221.113 500.123C214.861 497.895 208.906 495.403 203.239 492.659C197.648 489.73 192.319 486.565 187.249 483.172C182.224 479.616 177.424 475.86 172.813 471.912C168.235 467.842 163.817 463.603 159.538 459.226C155.244 454.753 151.07 450.168 146.997 445.481C142.861 440.746 138.795 435.932 134.781 431.063C130.695 426.181 126.643 421.269 122.621 416.334C118.516 411.42 114.428 406.501 110.384 401.598C106.247 396.749 102.149 391.921 98.1106 387.126C94.0021 382.411 89.9769 377.733 86.0456 373.116C82.0807 368.585 78.2384 364.114 74.5429 359.706C70.862 355.394 67.3563 351.144 64.0337 346.965C60.7829 342.878 57.7315 338.858 54.9202 334.906C50.9279 329.135 44.2601 317.959 41.5783 312.525C39.1748 307.201 35.4228 296.671 33.9912 291.427C32.6167 286.179 30.4248 275.555 29.5407 270.138C28.6274 264.664 27.2645 253.45 26.8797 247.714C26.6259 243.867 26.5537 239.976 26.6874 236.046C26.8211 232.116 27.1847 228.151 27.8025 224.157C28.4729 220.166 29.4216 216.15 30.6682 212.119C31.9796 208.094 33.601 204.057 35.5413 199.995C37.5495 195.953 39.8678 191.9 42.5005 187.828C45.1935 183.768 48.1845 179.694 51.4448 175.607C54.7413 171.527 58.2518 167.474 61.9676 163.46C65.6471 159.439 69.5122 155.447 73.5176 151.489C77.4672 147.513 81.5406 143.575 85.7347 139.66C89.8398 135.735 94.0612 131.84 98.3824 127.978C102.615 124.106 106.959 120.27 111.406 116.482C115.8 112.691 120.338 108.95 125.002 105.261C129.658 101.584 134.478 97.968 139.475 94.4287C144.5 90.9089 149.74 87.4731 155.182 84.1191C160.696 80.8002 166.444 77.5762 172.402 74.4425C178.459 71.3634 184.726 68.3747 191.202 65.4975C197.756 62.6639 204.5 59.9309 211.396 57.3128C218.335 54.7313 225.405 52.2538 232.579 49.8818C239.727 47.5475 246.942 45.3119 254.195 43.1765C261.362 41.0672 268.538 39.0599 275.713 37.1521C282.753 35.2612 289.762 33.4716 296.724 31.7872C306.927 29.3182 326.862 24.9321 336.633 23.0157C346.194 21.2231 365.196 18.2145 374.709 17.0125C384.219 15.9312 403.602 14.3597 413.542 13.8535C423.666 13.4542 444.597 13.1437 455.422 13.2073C462.765 13.2524 470.241 13.3803 477.827 13.5863C485.508 13.7535 493.307 13.9863 501.196 14.2862C509.186 14.5411 517.266 14.842 525.423 15.2078C533.678 15.5137 541.995 15.8672 550.375 16.2684C558.835 16.6136 567.333 17.0019 575.869 17.4332C584.465 17.8188 593.088 18.2451 601.698 18.7263C610.373 19.1556 619.02 19.6438 627.651 20.1932C636.304 20.7112 644.925 21.2943 653.476 21.9569C662.052 22.6029 670.538 23.3386 678.944 24.1663" stroke="url(#paint6_linear_4_596)" stroke-width="2.5" stroke-linecap="round" stroke-dasharray="21 15"/>
<path opacity="0.47" d="M691.281 39.007C699.138 39.9976 706.809 41.0773 714.294 42.261C721.764 43.4632 729.043 44.7755 736.131 46.1979C746.608 48.4499 766.536 53.6266 775.977 56.5786C785.221 59.749 802.819 66.8669 811.254 70.8183C816.833 73.5717 822.311 76.4629 827.693 79.4858C833.128 82.5792 838.485 85.8157 843.808 89.1761C849.191 92.616 854.569 96.179 859.948 99.8739C865.42 103.626 870.91 107.507 876.435 111.498C882.068 115.544 887.735 119.699 893.43 123.955C899.237 128.245 905.059 132.618 910.883 137.072C916.754 141.537 922.585 146.066 928.345 150.629C934.07 155.185 939.657 159.754 945.051 164.336C950.288 168.854 955.253 173.361 959.862 177.824C964.204 182.204 968.101 186.513 971.507 190.753C974.527 194.869 976.972 198.883 978.819 202.791C980.576 208.396 980.303 218.833 978.391 223.691C975.558 228.325 968.013 237.29 963.879 241.753C960.233 246.319 955.081 256.113 954.128 261.468C954.453 265.248 955.396 269.213 956.962 273.372C959.282 277.686 962.155 282.178 965.498 286.828C969.359 291.582 973.466 296.442 977.639 301.376C981.892 306.313 985.881 311.249 989.427 316.143C992.519 320.926 994.827 325.589 996.186 330.095C996.662 334.399 995.981 338.492 994.052 342.367C991.085 346.006 986.875 349.42 981.492 352.626C975.272 355.641 968.11 358.508 960.171 361.265C951.943 363.947 943.361 366.616 934.663 369.323C926.33 372.114 918.428 375.01 911.11 378.046C904.7 381.289 899.121 384.728 894.427 388.369C890.812 392.262 888.045 396.348 886.075 400.623C884.971 405.088 884.38 409.676 884.171 414.344C884.335 419.105 884.497 423.85 884.47 428.552C884.26 433.205 883.513 437.729 882.074 442.074C880.022 446.279 877.061 450.262 873.131 453.996C868.368 457.533 862.613 460.815 855.893 463.841C848.394 466.675 840.048 469.28 831.001 471.667C821.422 473.919 811.353 476 800.942 477.938C790.37 479.817 779.701 481.594 769.088 483.303C758.66 485.01 748.494 486.69 738.671 488.344C729.297 490.05 720.394 491.746 711.997 493.441C700.533 496.082 681.054 501.352 672.871 503.914C659.526 508.664 642.169 514.367 636.612 515.588C624.731 516.818 604.333 516.287 596.479 515.326C588.082 514.125 569.788 510.951 559.948 509.078C553.136 507.828 546.127 506.511 538.946 505.148C531.578 503.859 524.057 502.55 516.405 501.248C508.573 500.059 500.607 498.897 492.523 497.775C484.287 496.8 475.942 495.889 467.5 495.043C458.9 494.351 450.223 493.752 441.473 493.224C432.567 492.865 423.611 492.582 414.609 492.369C405.491 492.313 396.339 492.314 387.162 492.361C377.904 492.522 368.65 492.712 359.43 492.91C350.143 493.174 340.916 493.414 331.759 493.605C322.592 493.808 313.641 493.921 304.909 493.923C296.213 493.882 287.772 493.687 279.587 493.339C271.473 492.889 263.644 492.249 256.112 491.405C245.086 489.825 224.692 485.288 215.306 482.305C209.26 480.074 203.489 477.599 197.978 474.898C192.566 472.029 187.408 468.94 182.482 465.641C177.628 462.189 172.979 458.544 168.526 454.716C164.105 450.764 159.859 446.654 155.759 442.387C151.657 438.04 147.691 433.563 143.841 428.98C139.962 424.332 136.174 419.61 132.476 414.814C128.741 409.994 125.076 405.125 121.489 400.229C117.845 395.335 114.292 390.433 110.796 385.528C107.282 380.664 103.849 375.818 100.511 370.994C97.1744 366.235 93.9397 361.522 90.8362 356.854C87.7638 352.265 84.8239 347.736 82.0691 343.271C79.3519 338.895 76.8314 334.586 74.5025 330.349C72.2349 326.207 70.1809 322.128 68.3472 318.121C65.7931 312.262 61.8551 300.955 60.4328 295.469C59.2065 290.102 57.5238 279.52 56.9937 274.26C56.4599 269.021 55.728 258.443 55.4982 253.076C55.1896 247.668 54.9381 236.652 55.0778 231.061C55.2992 225.424 56.6926 214.036 57.9877 208.306C59.6238 202.588 64.4868 191.163 67.744 185.47C70.1212 181.697 72.821 177.925 75.8095 174.16C78.8857 170.407 82.2506 166.662 85.8924 162.921C89.563 159.179 93.439 155.477 97.4986 151.823C101.54 148.159 105.722 144.526 110.029 140.929C114.266 137.316 118.61 133.742 123.036 130.187C127.37 126.625 131.781 123.089 136.264 119.583C140.654 116.071 145.117 112.59 149.665 109.157C154.137 105.715 158.724 102.321 163.409 98.9924C168.077 95.6677 172.873 92.4086 177.826 89.2293C182.805 86.0702 187.965 82.9963 193.296 80.0198C198.71 77.077 204.325 74.2308 210.146 71.49C216.041 68.7953 222.165 66.2113 228.474 63.7424C234.868 61.3222 241.452 59.0109 248.198 56.8242C254.999 54.672 261.939 52.639 268.982 50.7173C276.051 48.8309 283.189 47.0476 290.372 45.3772C297.523 43.7286 304.696 42.1874 311.861 40.7394C322.447 38.6439 343.268 34.9363 353.435 33.3232C363.341 31.8041 382.68 29.2288 392.125 28.1752C401.4 27.2072 419.795 25.7406 428.98 25.2491C438.171 24.8325 456.83 24.4418 466.358 24.4601C476.054 24.5309 495.999 25.0326 506.269 25.4389C516.778 25.8627 538.401 26.9581 549.514 27.6146C557.019 28.0207 564.622 28.4781 572.282 28.985C580.028 29.4386 587.826 29.9478 595.669 30.5037C603.577 31.0159 611.518 31.5722 619.476 32.1911C627.488 32.7635 635.5 33.4019 643.495 34.0947C651.534 34.7684 659.546 35.5088 667.507 36.3256C675.495 37.1267 683.423 38.0164 691.269 39.0043" stroke="url(#paint7_linear_4_596)" stroke-width="2.5" stroke-linecap="round" stroke-dasharray="18 15"/>
<path opacity="0.21" d="M704.746 54.742C712.094 55.8773 719.319 57.1079 726.395 58.434C736.905 60.5126 757.119 65.2601 766.822 67.959C773.205 69.8458 779.448 71.861 785.54 74.0015C797.665 78.4621 809.27 83.4691 820.424 89.0108C831.604 94.8224 842.461 101.187 853.097 108.072C863.868 115.219 874.501 122.847 884.989 130.918C895.59 139.14 905.963 147.699 915.952 156.503C925.689 165.27 934.655 174.117 942.522 182.907C949.513 191.412 954.884 199.684 958.328 207.595C960.397 215.052 960.355 222.084 958.214 228.68C955.105 234.908 950.527 240.866 945.013 246.704C940.12 252.586 935.615 258.706 932.18 265.253C931.142 272.33 932.011 280.085 934.901 288.533C940.154 297.532 946.516 307.021 953.105 316.75C959.425 326.37 963.725 335.666 964.886 344.333C963.484 350.245 953.982 360.567 945.944 364.999C939.575 367.694 932.396 370.242 924.581 372.674C916.513 375.039 908.164 377.381 899.682 379.757C891.538 382.214 883.733 384.769 876.426 387.448C869.881 390.337 864.025 393.408 858.925 396.68C854.742 400.195 851.322 403.904 848.595 407.789C846.642 411.887 845.211 416.116 844.158 420.43C843.182 429.35 841.949 438.149 839.318 446.472C834.985 454.322 827.576 461.229 816.873 467.09C803.403 472.135 787.075 476.205 768.63 479.429C749.052 482.216 728.951 484.52 709.177 486.489C690.437 488.536 673.125 490.481 657.546 492.337C643.902 494.442 631.991 496.412 621.596 498.146C612.638 499.989 604.554 501.41 596.926 502.305C589.776 503.109 582.434 503.269 574.681 502.77C566.63 502.133 557.8 500.875 548.16 499.073C537.847 497.279 526.629 495.111 514.593 492.674C501.794 490.5 488.202 488.266 473.908 486.057C458.906 484.337 443.275 482.773 427.163 481.405C418.869 480.929 410.487 480.497 402.013 480.116C393.405 479.857 384.751 479.631 376.045 479.429C367.25 479.331 358.427 479.233 349.61 479.129C340.752 479.082 331.9 478.999 323.118 478.86C314.319 478.738 305.71 478.524 297.304 478.221C288.928 477.873 280.783 477.391 272.876 476.769C265.033 476.067 257.446 475.191 250.131 474.14C242.91 472.978 235.956 471.617 229.276 470.049C216.248 466.514 204.324 462.115 193.441 456.885C182.957 451.07 173.404 444.465 164.677 437.146C156.199 429.367 148.4 421.008 141.207 412.179C134.091 403.107 127.469 393.737 121.32 384.177C115.212 374.621 109.582 365.033 104.497 355.522C99.5472 346.212 95.2224 337.075 91.6248 328.184C88.2476 319.599 85.6433 311.287 83.8577 303.259C82.2179 295.525 81.3228 288.019 81.0981 280.713C80.7676 273.574 80.9075 266.53 81.4553 259.527C81.5886 252.549 81.9699 245.523 82.634 238.43C82.8097 231.29 83.3434 224.05 84.3554 216.749C85.1836 209.428 86.7714 202.084 89.262 194.761C91.3999 189.306 97.25 178.528 100.997 173.214C105.214 167.965 115.264 157.6 121.056 152.483C125.036 149.087 129.199 145.74 133.534 142.439C137.841 139.137 142.285 135.872 146.826 132.641C151.293 129.397 155.835 126.18 160.439 123.003C164.951 119.801 169.503 116.632 174.112 113.494C182.998 107.158 192.123 100.992 201.527 95.042C210.753 89.0975 220.475 83.4575 230.767 78.1791C241.282 73.0274 252.551 68.3159 264.52 64.0833C276.873 60.0349 289.881 56.4683 303.428 53.3981C317.124 50.4722 331.124 47.9879 345.239 45.9325C359.175 43.9273 372.991 42.2963 386.601 41.0242C399.797 39.7175 412.719 38.7365 425.371 38.0901C437.622 37.3524 449.708 36.9316 461.709 36.8342C473.504 36.6222 485.376 36.7161 497.381 37.1161C509.424 37.3754 521.755 37.9144 534.383 38.7272C547.225 39.3639 560.421 40.2447 573.93 41.3513C587.729 42.2642 601.836 43.3939 616.165 44.7402C627.065 45.6815 649.132 47.8079 660.241 49.0077C667.674 49.8047 675.117 50.6796 682.525 51.6352C689.962 52.5761 697.363 53.6126 704.728 54.7449" stroke="url(#paint8_linear_4_596)" stroke-width="2.5" stroke-linecap="round" stroke-dasharray="25 8"/>
<path opacity="0.96" d="M719.602 71.7906C733.419 74.3486 746.804 77.3182 759.717 80.6949C772.52 84.2091 784.848 88.1994 796.692 92.6866C808.43 97.3743 819.72 102.593 830.605 108.333C841.408 114.304 851.869 120.791 861.977 127.753C872.035 134.918 881.723 142.505 890.976 150.441C900.044 158.46 908.5 166.719 916.186 175.094C923.314 183.368 929.334 191.607 934.008 199.692C937.717 207.467 939.775 214.949 940.051 222.066C939.291 228.805 936.842 235.177 932.889 241.23C928.598 247.08 923.52 252.821 918.171 258.604C913.89 264.604 910.358 270.972 908.061 277.833C907.945 285.273 909.448 293.354 912.448 302.039C917.117 311.163 922.293 320.604 927.133 330.106C931.317 339.369 933.354 348.156 932.381 356.212C928.609 363.392 921.087 369.623 909.918 374.936C896.579 379.58 881.073 383.765 864.532 387.837C849.097 392.238 835.251 397.108 823.72 402.637C815.291 409.12 809.294 416.289 805.194 423.958C802.821 432.147 800.599 440.28 797.591 448.026C793.542 455.425 787.161 461.941 778.142 467.436C766.819 472.143 752.885 475.791 736.842 478.478C719.395 480.597 700.984 482.049 682.336 482.995C664.045 483.863 646.584 484.495 630.371 484.972C615.583 485.665 602.33 486.253 590.56 486.702C580.221 487.362 570.984 487.784 562.608 487.878C554.963 488.063 547.614 487.826 540.273 487.117C532.946 486.437 525.209 485.297 516.912 483.716C508.158 482.235 498.627 480.425 488.321 478.363C477.308 476.558 465.474 474.636 452.843 472.68C439.499 471.12 425.415 469.622 410.721 468.202C395.402 467.22 379.601 466.309 363.46 465.434C346.93 464.867 330.267 464.205 313.646 463.346C296.975 462.519 280.976 461.307 265.751 459.616C250.808 457.662 236.794 455.067 223.76 451.785C211.157 448.053 199.58 443.554 188.984 438.314C178.847 432.585 169.626 426.134 161.288 419.043C153.294 411.553 146.06 403.519 139.561 395.056C133.309 386.374 127.71 377.401 122.761 368.262C118.039 359.107 113.96 349.922 110.575 340.81C107.43 331.855 105.007 323.067 103.322 314.511C101.883 306.201 101.154 298.147 101.155 290.345C101.218 282.78 101.85 275.412 103 268.233C103.918 261.154 105.154 254.163 106.655 247.215C107.661 240.256 108.851 233.267 110.211 226.245C111.125 219.157 112.353 212.04 114.022 204.903C115.553 197.77 117.827 190.677 120.96 183.683C124.381 176.777 128.902 170.019 134.589 163.431C140.704 156.965 147.941 150.656 156.26 144.497C164.724 138.382 173.783 132.48 183.25 126.772C192.439 120.98 201.801 115.325 211.261 109.81C220.291 104.186 229.432 98.7279 238.725 93.4795C247.791 88.2083 257.234 83.2383 267.103 78.6313C277.121 74.1314 287.774 70.0737 299.035 66.4963C310.664 63.1088 322.922 60.2232 335.704 57.8391C348.737 55.6167 362.114 53.8565 375.702 52.533C389.241 51.2799 402.767 50.3957 416.168 49.8615C429.287 49.2876 442.177 49.0092 454.807 49.0161C467.099 48.9123 479.169 49.0592 491.05 49.4668C502.721 49.7171 514.333 50.2055 525.948 50.9433C537.539 51.5032 549.268 52.2989 561.176 53.32C573.212 54.1474 585.519 55.1972 598.087 56.4662C610.841 57.5433 623.884 58.8406 637.157 60.371C650.618 61.7337 664.26 63.3608 678.004 65.2676C691.852 67.082 705.743 69.2432 719.591 71.7872" stroke="url(#paint9_linear_4_596)" stroke-width="2.5" stroke-linecap="round" stroke-dasharray="17 1"/>
<path opacity="0.67" d="M734.701 90.156C747.703 92.9822 760.338 96.2041 772.561 99.831C784.682 103.575 796.363 107.771 807.591 112.429C818.684 117.265 829.302 122.581 839.459 128.365C849.445 134.331 858.946 140.749 867.915 147.546C876.644 154.493 884.775 161.764 892.188 169.268C899.191 176.791 905.313 184.435 910.386 192.101C914.799 199.618 917.945 207.025 919.683 214.217C920.582 221.133 920.001 227.769 917.947 234.094C915.247 240.163 911.371 245.992 906.57 251.637C901.915 257.276 897.029 262.963 892.307 268.837C888.865 275.074 886.322 281.745 884.945 288.942C885.419 296.709 887.107 305.027 889.782 313.817C893.513 322.917 897.222 332.155 900.211 341.279C902.283 350.045 902.212 358.227 899.372 365.6C894.104 372.105 885.625 377.664 874.093 382.323C860.845 386.378 845.8 389.977 829.895 393.439C814.917 397.215 801.234 401.393 789.481 406.152C780.321 411.82 773.279 418.128 767.975 424.927C764.372 432.292 761.212 439.675 757.737 446.771C753.76 453.644 748.149 459.74 740.552 464.889C731.121 469.319 719.472 472.681 705.89 475.017C690.842 476.723 674.592 477.617 657.728 477.855C640.687 477.869 623.956 477.508 607.938 476.88C592.806 476.382 578.857 475.756 566.147 475.021C554.617 474.534 544.229 473.929 534.822 473.149C526.239 472.583 518.217 471.785 510.529 470.701C503.085 469.789 495.551 468.573 487.757 467.065C479.716 465.737 471.116 464.158 461.888 462.37C452.121 460.845 441.573 459.193 430.304 457.453C418.365 456.067 405.69 454.651 392.352 453.222C378.436 452.148 363.964 451.05 349.078 449.889C333.831 448.973 318.363 447.891 302.821 446.566C287.242 445.269 272.196 443.593 257.831 441.469C243.712 439.141 230.41 436.234 217.997 432.719C206.037 428.838 195.02 424.293 184.948 419.094C175.39 413.494 166.759 407.266 159.046 400.479C151.783 393.364 145.383 385.769 139.814 377.802C134.648 369.653 130.257 361.249 126.662 352.695C123.426 344.138 120.94 335.55 119.239 327.026C117.83 318.636 117.167 310.376 117.249 302.319C117.516 294.455 118.426 286.79 119.938 279.342C121.397 272.045 123.316 264.908 125.578 257.914C127.504 250.964 129.647 244.074 131.923 237.213C133.699 230.308 135.589 223.387 137.605 216.452C139.217 209.458 141.118 202.467 143.447 195.529C145.697 188.603 148.64 181.79 152.421 175.13C156.512 168.603 161.62 162.283 167.848 156.2C174.475 150.264 182.162 144.551 190.837 139.044C199.651 133.586 208.997 128.376 218.645 123.377C228.048 118.292 237.554 113.356 247.066 108.559C256.159 103.632 265.265 98.8632 274.403 94.2986C283.277 89.6745 292.383 85.3404 301.789 81.3519C311.251 77.4396 321.224 73.9622 331.699 70.9494C342.492 68.1113 353.841 65.7806 365.689 63.9536C377.844 62.2976 390.388 61.1228 403.184 60.3904C416.092 59.7528 429.077 59.4887 442.048 59.5739C454.88 59.635 467.58 59.9803 480.073 60.5839C492.337 61.076 504.406 61.7818 516.256 62.6938C527.932 63.4404 539.476 64.3747 550.944 65.5003C562.363 66.4234 573.818 67.5361 585.326 68.8364C596.923 69.9342 608.666 71.2197 620.598 72.7078C632.67 74.0026 644.945 75.5131 657.401 77.2558C670.015 78.8517 682.793 80.706 695.666 82.8594C708.637 84.9255 721.667 87.3429 734.691 90.1523" stroke="url(#paint10_linear_4_596)" stroke-width="2.5" stroke-linecap="round" stroke-dasharray="21 11"/>
<path opacity="0.25" d="M747.948 109.341C760.134 112.399 771.941 115.828 783.335 119.632C794.604 123.522 805.423 127.822 815.735 132.527C825.861 137.36 835.446 142.611 844.445 148.244C853.193 154.004 861.29 160.114 868.676 166.514C875.706 172.993 881.919 179.679 887.224 186.502C892.024 193.296 895.787 200.126 898.393 206.887C900.367 213.517 901.107 219.998 900.552 226.27C899.405 232.352 897.041 238.215 893.574 243.863C889.888 249.415 885.477 254.868 880.583 260.298C876.19 265.883 871.903 271.661 868.054 277.738C865.46 284.249 863.735 291.229 862.969 298.703C863.632 306.682 865.1 315.094 867.075 323.824C869.582 332.721 871.692 341.58 872.822 350.17C872.908 358.324 870.95 365.808 866.514 372.434C860.03 378.238 850.856 383.117 839.165 387.132C826.129 390.617 811.643 393.657 796.443 396.534C782.015 399.724 768.663 403.227 756.869 407.235C747.238 412.085 739.416 417.522 733.168 423.418C728.504 429.912 724.484 436.484 720.523 442.861C716.456 449.154 711.35 454.786 704.855 459.586C697.021 463.775 687.419 466.949 676.139 469.102C663.511 470.606 649.643 471.219 634.958 471.074C619.74 470.585 604.394 469.584 589.331 468.198C574.649 466.828 560.714 465.265 547.688 463.565C535.484 462.087 524.242 460.534 513.914 458.896C504.321 457.531 495.389 456.064 486.956 454.475C478.857 453.135 470.91 451.645 462.947 449.989C454.887 448.588 446.518 447.033 437.745 445.335C428.558 443.911 418.783 442.381 408.393 440.753C397.464 439.44 385.871 438.052 373.68 436.588C360.972 435.424 347.74 434.154 334.089 432.762C320.113 431.561 305.889 430.153 291.551 428.457C277.185 426.791 263.271 424.758 249.926 422.311C236.842 419.706 224.492 416.583 212.956 412.933C201.87 409.006 191.693 404.497 182.446 399.447C173.718 394.072 165.953 388.178 159.126 381.804C152.845 375.175 147.478 368.15 143.029 360.815C139.065 353.334 135.981 345.646 133.768 337.847C131.962 330.024 130.979 322.188 130.798 314.4C130.915 306.695 131.759 299.1 133.297 291.66C134.929 284.334 137.124 277.153 139.804 270.137C142.352 263.179 145.205 256.333 148.302 249.574C151.009 242.796 153.843 236.052 156.737 229.323C159.161 222.517 161.646 215.702 164.265 208.907C166.537 202.05 169.09 195.245 172.053 188.534C175.008 181.863 178.633 175.362 183.034 169.083C187.75 162.953 193.427 157.084 200.094 151.52C207.17 146.109 215.2 140.973 224.109 136.099C233.169 131.275 242.661 126.732 252.4 122.419C261.891 118.009 271.436 113.763 280.947 109.663C290.021 105.407 299.035 101.305 307.998 97.3927C316.654 93.3928 325.416 89.653 334.335 86.2271C343.267 82.8481 352.543 79.865 362.197 77.3329C372.11 74.9446 382.503 73.0477 393.322 71.646C404.472 70.4165 416.007 69.6661 427.827 69.3637C439.881 69.1784 452.091 69.3739 464.371 69.9327C476.69 70.4983 488.963 71.3398 501.113 72.4438C513.192 73.4524 525.112 74.6591 536.862 76.0504C548.522 77.2808 560.04 78.6649 571.444 80.2057C582.813 81.548 594.147 83.0364 605.468 84.6788C616.844 86.1163 628.284 87.7214 639.804 89.4929C651.441 91.0836 663.196 92.8716 675.054 94.8768C687.042 96.7483 699.124 98.8665 711.265 101.277C723.487 103.61 735.726 106.286 747.938 109.337" stroke="url(#paint11_linear_4_596)" stroke-width="2.5" stroke-linecap="round" stroke-dasharray="22 16"/>
<path opacity="0.16" d="M757.021 128.402C768.339 131.648 779.222 135.213 789.612 139.078C799.895 143.019 809.636 147.291 818.778 151.878C827.698 156.569 835.982 161.577 843.55 166.857C850.814 172.23 857.301 177.84 862.942 183.637C868.186 189.469 872.481 195.417 875.788 201.411C878.607 207.372 880.353 213.298 880.982 219.141C881.122 224.891 880.157 230.51 878.136 235.969C875.766 241.353 872.521 246.62 868.532 251.795C864.615 257.029 860.33 262.301 855.908 267.689C852.14 273.358 848.645 279.316 845.659 285.623C843.775 292.393 842.568 299.596 842.074 307.22C842.572 315.251 843.463 323.578 844.458 332.049C845.603 340.552 846.082 348.873 845.441 356.793C843.739 364.216 840.167 370.923 834.455 376.768C827.029 381.843 817.399 386.055 805.747 389.447C793.067 392.383 779.218 394.897 764.785 397.23C751.006 399.846 738.088 402.72 726.455 405.998C716.583 410.057 708.24 414.629 701.294 419.617C695.783 425.226 691.001 430.947 686.568 436.559C682.296 442.216 677.478 447.339 671.769 451.768C665.175 455.725 657.264 458.762 648.039 460.847C637.653 462.319 626.124 462.878 613.722 462.627C600.618 461.959 587.121 460.685 573.556 458.914C559.967 457.045 546.727 454.89 534.04 452.532C521.776 450.318 510.201 448.013 499.366 445.649C489.018 443.555 479.294 441.421 470.104 439.26C461.186 437.386 452.562 435.468 444.085 433.491C435.58 431.81 426.964 430.062 418.163 428.241C409.042 426.709 399.555 425.111 389.637 423.437C379.278 422.042 368.423 420.567 357.107 419.003C345.353 417.675 333.17 416.227 320.651 414.613C307.856 413.158 294.843 411.473 281.767 409.497C268.649 407.546 255.964 405.259 243.823 402.598C231.912 399.827 220.709 396.614 210.286 392.954C200.278 389.083 191.156 384.742 182.968 379.944C175.292 374.916 168.581 369.454 162.852 363.617C157.65 357.584 153.422 351.234 150.16 344.644C147.382 337.935 145.528 331.063 144.582 324.102C144.023 317.11 144.3 310.093 145.359 303.115C146.659 296.165 148.636 289.287 151.212 282.507C153.838 275.759 156.926 269.101 160.375 262.542C163.638 255.962 167.128 249.429 170.754 242.948C174.02 236.387 177.333 229.829 180.701 223.278C183.635 216.631 186.651 209.985 189.793 203.386C192.671 196.732 195.855 190.169 199.435 183.747C203.062 177.399 207.315 171.258 212.284 165.392C217.579 159.687 223.736 154.304 230.782 149.254C238.212 144.383 246.482 139.815 255.519 135.542C264.71 131.33 274.239 127.418 283.952 123.754C293.45 119.995 302.955 116.398 312.355 112.956C321.356 109.346 330.251 105.883 339.008 102.587C347.444 99.1669 355.872 95.9893 364.351 93.0805C372.766 90.179 381.392 87.6348 390.272 85.5031C399.332 83.4779 408.764 81.9078 418.54 80.8081C428.634 79.8664 439.099 79.3893 449.843 79.3616C460.87 79.46 472.123 79.9577 483.514 80.8157C495.064 81.7099 506.661 82.9062 518.235 84.365C529.88 85.7589 541.449 87.3652 552.899 89.1475C564.374 90.8004 575.734 92.5959 586.978 94.5246C598.26 96.2853 609.469 98.1632 620.623 100.167C631.842 101.987 643.053 103.946 654.261 106.052C665.578 107.987 676.932 110.096 688.288 112.401C699.752 114.577 711.233 116.98 722.69 119.646C734.201 122.248 745.667 125.156 757.002 128.393" stroke="url(#paint12_linear_4_596)" stroke-width="2.5" stroke-linecap="round" stroke-dasharray="17 16"/>
<path opacity="0.82" d="M760.225 146.228C770.62 149.594 780.47 153.198 789.765 157.026C798.925 160.908 807.467 165.028 815.309 169.374C822.953 173.789 829.841 178.42 835.936 183.221C841.724 188.082 846.653 193.09 850.677 198.193C854.328 203.314 857.017 208.483 858.732 213.649C860.046 218.8 860.368 223.909 859.703 228.944C858.719 233.949 856.841 238.888 854.151 243.755C851.352 248.652 847.963 253.55 844.119 258.472C840.528 263.577 836.807 268.839 833.113 274.309C830.096 280.127 827.375 286.27 825.077 292.772C823.641 299.687 822.657 306.976 822.076 314.578C822.089 322.459 822.171 330.485 822.053 338.504C821.786 346.43 820.715 354.056 818.497 361.193C815.266 367.805 810.387 373.686 803.692 378.734C795.623 383.086 785.784 386.627 774.333 389.428C762.13 391.843 749.001 393.861 735.419 395.69C722.338 397.778 709.993 400.058 698.679 402.658C688.785 405.959 680.155 409.696 672.75 413.813C666.587 418.533 661.204 423.4 656.31 428.225C651.768 433.197 647.038 437.778 641.858 441.8C636.146 445.501 629.53 448.416 621.989 450.478C613.526 452.014 604.1 452.689 593.879 452.548C582.912 451.97 571.436 450.719 559.675 448.917C547.614 446.91 535.593 444.524 523.798 441.86C512.095 439.242 500.787 436.478 489.948 433.624C479.354 430.975 469.232 428.303 459.537 425.63C450.008 423.226 440.779 420.833 431.77 418.457C422.717 416.365 413.71 414.278 404.657 412.177C395.36 410.353 385.871 408.517 376.145 406.636C366.064 405.006 355.681 403.327 344.994 401.551C333.961 399.992 322.641 398.309 311.124 396.471C299.366 394.755 287.5 392.826 275.659 390.632C263.774 388.462 252.35 386.002 241.488 383.248C230.822 380.396 220.852 377.196 211.659 373.642C202.842 369.932 194.911 365.847 187.885 361.416C181.334 356.805 175.743 351.866 171.142 346.642C167.026 341.27 163.883 335.65 161.696 329.85C159.961 323.95 159.139 317.913 159.188 311.809C159.58 305.654 160.771 299.462 162.673 293.281C164.755 287.079 167.439 280.89 170.652 274.752C173.845 268.577 177.404 262.426 181.273 256.309C184.911 250.114 188.731 243.918 192.661 237.729C196.24 231.421 199.883 225.099 203.571 218.78C206.918 212.357 210.367 205.955 213.972 199.614C217.412 193.246 221.149 187.008 225.293 180.945C229.523 174.972 234.353 169.252 239.824 163.843C245.612 158.611 252.168 153.726 259.502 149.202C267.18 144.859 275.582 140.85 284.659 137.16C293.849 133.536 303.315 130.216 312.909 127.156C322.317 124.003 331.687 121.025 340.918 118.201C349.814 115.201 358.534 112.335 367.068 109.617C375.296 106.757 383.424 104.096 391.496 101.668C399.458 99.2035 407.506 97.0507 415.704 95.2518C423.995 93.5181 432.558 92.1985 441.355 91.3029C450.431 90.5369 459.807 90.2179 469.454 90.3225C479.388 90.5518 489.574 91.1766 499.93 92.1738C510.525 93.2348 521.25 94.6024 532.022 96.2444C542.967 97.8797 553.921 99.7235 564.827 101.767C575.858 103.714 586.83 105.818 597.727 108.051C608.718 110.155 619.64 112.373 630.486 114.702C641.443 116.882 652.342 119.181 663.182 121.599C674.143 123.884 685.038 126.311 695.866 128.891C706.809 131.379 717.658 134.053 728.389 136.937C739.173 139.773 749.812 142.862 760.216 146.223" stroke="url(#paint13_linear_4_596)" stroke-width="2.5" stroke-linecap="round" stroke-dasharray="10 21"/>
<path opacity="0.29" d="M757.035 161.894C766.415 165.304 775.201 168.864 783.35 172.558C791.376 176.302 798.71 180.188 805.306 184.202C811.697 188.279 817.315 192.472 822.089 196.763C826.604 201.096 830.259 205.497 833.02 209.938C835.477 214.405 837.042 218.893 837.707 223.358C838.106 227.851 837.642 232.322 836.379 236.768C834.967 241.258 832.853 245.758 830.165 250.27C827.522 254.916 824.49 259.649 821.194 264.509C818.235 269.628 815.231 274.968 812.309 280.561C809.962 286.508 807.838 292.776 805.973 299.348C804.702 306.263 803.639 313.444 802.698 320.812C802.029 328.332 801.169 335.853 799.891 343.238C798.298 350.437 795.842 357.248 792.299 363.507C787.836 369.259 781.988 374.292 774.632 378.536C766.201 382.175 756.368 385.085 745.3 387.321C733.672 389.252 721.334 390.813 708.646 392.178C696.369 393.783 684.683 395.513 673.834 397.497C664.087 400.091 655.387 403.047 647.729 406.333C641.12 410.198 635.274 414.216 629.99 418.255C625.163 422.52 620.401 426.517 615.479 430.099C610.333 433.495 604.652 436.255 598.349 438.301C591.403 439.937 583.731 440.789 575.396 440.894C566.408 440.582 556.887 439.597 546.981 438.02C536.639 436.188 526.138 433.913 515.618 431.281C504.948 428.594 494.411 425.696 484.103 422.651C473.805 419.721 463.767 416.729 454.039 413.724C444.305 410.923 434.806 408.145 425.505 405.391C416.123 402.886 406.828 400.421 397.578 397.98C388.118 395.787 378.602 393.611 368.995 391.434C359.09 389.473 349.051 387.486 338.888 385.449C328.44 383.578 317.87 381.618 307.237 379.534C296.406 377.555 285.614 375.401 274.938 373.037C264.225 370.681 254.037 368.117 244.429 365.328C234.99 362.476 226.253 359.358 218.3 355.981C210.665 352.487 203.878 348.72 197.992 344.701C192.508 340.544 187.969 336.149 184.365 331.549C181.189 326.826 178.936 321.921 177.603 316.883C176.642 311.739 176.544 306.489 177.252 301.179C178.229 295.784 179.929 290.342 182.277 284.879C184.731 279.338 187.714 273.779 191.162 268.216C194.544 262.556 198.255 256.864 202.213 251.164C205.953 245.34 209.859 239.482 213.876 233.597C217.612 227.584 221.422 221.544 225.322 215.515C228.975 209.386 232.779 203.303 236.767 197.314C240.684 191.314 244.908 185.467 249.525 179.841C254.289 174.317 259.579 169.079 265.463 164.166C271.644 159.439 278.481 155.07 285.999 151.086C293.806 147.273 302.233 143.808 311.228 140.673C320.345 137.607 329.64 134.847 339.016 132.341C348.243 129.76 357.412 127.354 366.416 125.091C375.131 122.666 383.655 120.361 391.951 118.184C399.968 115.849 407.818 113.677 415.554 111.707C423.141 109.644 430.717 107.851 438.318 106.347C445.981 104.868 453.764 103.743 461.719 102.991C469.886 102.328 478.261 102.068 486.861 102.201C495.736 102.448 504.828 103.075 514.103 104.06C523.655 105.123 533.366 106.501 543.165 108.165C553.208 109.858 563.325 111.781 573.444 113.911C583.768 115.999 594.097 118.257 604.361 120.656C614.813 122.973 625.219 125.413 635.518 127.96C645.988 130.406 656.386 132.959 666.668 135.615C677.103 138.169 687.428 140.849 697.599 143.65C707.884 146.376 718.004 149.256 727.92 152.298C737.904 155.298 747.618 158.492 757.017 161.894" stroke="url(#paint14_linear_4_596)" stroke-width="2.5" stroke-linecap="round" stroke-dasharray="21 2"/>
<path opacity="0.44" d="M748.165 174.996C756.519 178.365 764.227 181.812 771.275 185.325C778.233 188.876 784.474 192.5 789.981 196.188C795.316 199.914 799.872 203.705 803.635 207.532C807.198 211.402 809.94 215.311 811.886 219.231C813.613 223.194 814.552 227.173 814.739 231.162C814.751 235.208 814.081 239.287 812.786 243.382C811.432 247.597 809.572 251.882 807.292 256.26C805.124 260.824 802.707 265.547 800.11 270.452C797.817 275.634 795.489 281.056 793.215 286.724C791.339 292.708 789.543 298.952 787.85 305.421C786.488 312.13 785.097 318.99 783.614 325.908C782.159 332.864 780.342 339.708 777.995 346.31C775.246 352.658 771.649 358.564 767.077 363.916C761.718 368.78 755.207 372.968 747.495 376.437C738.982 379.4 729.368 381.707 718.812 383.428C707.872 384.906 696.39 386.053 684.643 387.009C673.214 388.167 662.254 389.411 651.989 390.843C642.55 392.797 633.971 395.042 626.254 397.56C619.398 400.611 613.232 403.826 607.651 407.094C602.537 410.647 597.648 414.027 592.829 417.124C585.425 421.442 568.4 426.925 558.399 427.827C551.037 427.859 543.217 427.262 535.029 426.086C526.373 424.634 517.457 422.711 508.377 420.39C499.01 417.949 489.586 415.22 480.211 412.28C470.656 409.373 461.207 406.343 451.88 403.243C442.438 400.27 433.116 397.289 423.94 394.316C414.593 391.519 405.339 388.761 396.153 386.034C386.757 383.502 377.363 381.003 368.002 378.525C358.381 376.219 348.742 373.912 339.106 371.587C329.234 369.397 319.374 367.15 309.591 364.827C299.638 362.585 289.836 360.218 280.254 357.705C270.651 355.2 261.604 352.562 253.167 349.783C244.86 346.948 237.261 343.941 230.444 340.763C223.863 337.493 218.111 334.041 213.204 330.417C208.628 326.687 204.933 322.787 202.115 318.746C199.637 314.593 198.016 310.308 197.235 305.923C196.74 301.433 197.021 296.844 198.036 292.193C199.244 287.432 201.086 282.608 203.514 277.733C206.006 272.752 208.949 267.708 212.311 262.623C215.589 257.401 219.179 252.123 222.997 246.8C226.64 241.334 230.467 235.816 234.419 230.262C238.175 224.583 242.053 218.887 246.065 213.211C249.944 207.463 254.011 201.781 258.295 196.214C262.584 190.663 267.196 185.294 272.193 180.168C277.35 175.155 282.992 170.439 289.163 166.067C295.594 161.871 302.605 158.042 310.177 154.59C318 151.306 326.352 148.369 335.173 145.76C344.093 143.213 353.138 140.968 362.217 138.986C371.183 136.922 380.069 135.04 388.801 133.302C397.271 131.399 405.553 129.62 413.605 127.948C421.398 126.1 428.999 124.396 436.444 122.845C443.719 121.177 450.907 119.727 458.053 118.504C468.782 116.787 490.78 114.96 502.215 114.944C510.121 115.131 518.199 115.668 526.435 116.538C534.938 117.492 543.593 118.754 552.351 120.302C561.375 121.892 570.508 123.731 579.673 125.79C589.093 127.852 598.534 130.096 607.963 132.502C617.61 134.866 627.222 137.367 636.767 139.983C646.496 142.546 656.151 145.211 665.676 147.983C675.36 150.687 684.906 153.493 694.258 156.409C703.739 159.269 713.007 162.247 721.996 165.345C731.053 168.422 739.792 171.635 748.157 174.991" stroke="url(#paint15_linear_4_596)" stroke-width="2.5" stroke-linecap="round" stroke-dasharray="8 2"/>
<path opacity="0.47" d="M735.317 185.787C742.639 189.043 749.341 192.344 755.411 195.661C761.399 199.009 766.714 202.388 771.339 205.798C777.723 210.976 786.739 221.531 789.375 226.897C791.124 232.392 791.37 243.73 790.104 249.64C789.111 253.755 787.715 257.991 786 262.363C784.409 266.938 782.597 271.695 780.644 276.648C778.902 281.843 777.075 287.261 775.204 292.887C773.558 298.742 771.851 304.77 770.084 310.936C768.434 317.232 766.591 323.561 764.486 329.839C762.259 336.063 759.57 342.083 756.32 347.792C752.648 353.223 748.221 358.193 742.919 362.618C737.011 366.609 730.165 369.986 722.379 372.725C713.999 375.051 704.796 376.811 694.888 378.067C684.723 379.14 674.141 379.914 663.356 380.509C652.828 381.288 642.678 382.097 633.059 383.037C624.079 384.422 615.767 386.034 608.155 387.862C601.216 390.172 594.896 392.628 589.112 395.171C581.247 399.391 566.732 407.104 559.405 410.092C551.539 412.364 533.722 413.837 523.712 413.018C516.527 412.056 509.057 410.629 501.383 408.784C493.376 406.79 485.21 404.468 476.967 401.885C468.459 399.261 459.912 396.461 451.387 393.529C442.627 390.645 433.904 387.696 425.239 384.709C416.365 381.835 407.52 378.958 398.753 376.092C389.745 373.36 380.794 370.647 371.892 367.958C362.76 365.388 353.68 362.833 344.692 360.275C335.509 357.816 326.416 355.332 317.491 352.808C308.439 350.341 299.595 347.795 291.044 345.163C282.465 342.533 274.476 339.836 267.089 337.069C259.806 334.263 253.218 331.35 247.339 328.341C241.659 325.258 236.758 322.061 232.634 318.76C227.217 313.613 220.717 302.65 219.562 296.863C219.249 292.862 219.634 288.779 220.647 284.622C221.809 280.344 223.535 275.991 225.753 271.569C228.02 267.011 230.713 262.383 233.769 257.684C236.767 252.841 240.062 247.927 243.596 242.955C247.033 237.846 250.662 232.68 254.464 227.491C258.158 222.201 262.03 216.902 266.081 211.651C270.081 206.353 274.321 201.147 278.814 196.076C283.358 191.053 288.238 186.225 293.485 181.647C298.896 177.198 304.76 173.05 311.074 169.236C317.621 165.599 324.66 162.315 332.161 159.394C339.881 156.63 348.037 154.19 356.573 152.078C365.192 150.026 373.899 148.263 382.608 146.741C391.24 145.164 399.768 143.752 408.15 142.486C416.346 141.075 424.336 139.767 432.112 138.557C443.352 136.547 464.661 132.928 474.878 131.438C484.964 130.048 505.23 128.517 515.566 128.465C522.658 128.576 529.861 128.992 537.167 129.71C544.695 130.484 552.356 131.547 560.108 132.891C568.113 134.28 576.21 135.916 584.357 137.781C592.748 139.662 601.188 141.748 609.641 144.003C618.297 146.255 626.944 148.66 635.544 151.191C644.325 153.703 653.044 156.33 661.628 159.065C670.38 161.762 678.973 164.561 687.381 167.455C695.908 170.32 704.193 173.285 712.192 176.342C720.251 179.385 727.976 182.53 735.309 185.782" stroke="url(#paint16_linear_4_596)" stroke-width="2.5" stroke-linecap="round" stroke-dasharray="16 6"/>
<path opacity="0.7" d="M720.509 195.126C726.861 198.233 732.645 201.362 737.864 204.505C745.292 209.266 757.015 218.937 761.301 223.866C764.817 228.9 768.851 239.303 769.5 244.716C769.729 248.461 769.509 252.3 768.897 256.255C768.301 260.348 767.383 264.588 766.189 268.977C765.061 273.542 763.73 278.279 762.216 283.188C760.802 288.279 759.237 293.532 757.532 298.92C755.89 304.445 754.088 310.064 752.074 315.722C750.042 321.402 747.704 327.033 745.008 332.521C742.129 337.887 738.753 342.997 734.82 347.768C730.516 352.249 725.547 356.292 719.861 359.826C713.705 362.991 706.818 365.613 699.2 367.692C691.171 369.437 682.53 370.711 673.372 371.552C664.043 372.268 654.412 372.726 644.613 373.01C634.997 373.455 625.698 373.898 616.793 374.424C608.357 375.318 600.441 376.374 593.086 377.599C583.073 380.128 565.963 386.113 558.464 389.219C551.361 392.335 537.143 397.082 529.669 398.435C521.644 399.105 504.004 397.926 494.4 396.162C487.627 394.709 480.668 392.92 473.579 390.84C466.215 388.685 458.74 386.304 451.2 383.746C443.403 381.178 435.564 378.489 427.706 375.711C419.633 372.981 411.544 370.2 403.488 367.385C395.215 364.642 386.971 361.897 378.788 359.14C370.41 356.472 362.092 353.792 353.914 351.113C345.558 348.501 337.332 345.87 329.321 343.215C321.208 340.602 313.328 337.942 305.765 335.217C298.187 332.504 291.16 329.767 284.711 327.003C278.342 324.204 272.606 321.361 267.525 318.467C260.476 314.001 250.1 304.628 246.798 299.705C244.452 294.566 243.229 283.74 244.202 278.056C245.138 274.128 246.577 270.112 248.457 266.019C250.38 261.801 252.703 257.497 255.352 253.123C257.998 248.624 260.936 244.05 264.147 239.425C267.293 234.686 270.687 229.912 274.299 225.129C277.874 220.279 281.673 215.449 285.716 210.681C289.752 205.908 294.059 201.242 298.647 196.73C303.336 192.288 308.346 188.056 313.708 184.073C319.23 180.22 325.142 176.658 331.457 173.423C337.967 170.346 344.887 167.602 352.206 165.194C359.688 162.93 367.523 160.978 375.674 159.319C383.912 157.719 392.183 156.394 400.443 155.295C408.648 154.151 416.766 153.172 424.747 152.318C432.582 151.346 440.235 150.474 447.704 149.688C458.535 148.319 479.065 145.839 488.861 144.808C498.446 143.792 517.394 142.646 526.868 142.607C536.541 142.827 556.442 144.587 566.688 146.129C573.74 147.274 580.862 148.65 588.031 150.249C595.413 151.873 602.82 153.703 610.246 155.71C617.872 157.73 625.478 159.908 633.047 162.241C640.781 164.559 648.456 167.016 656.021 169.582C663.722 172.134 671.291 174.802 678.664 177.559C686.144 180.304 693.396 183.15 700.382 186.076C707.425 189 714.14 192.017 720.503 195.12" stroke="url(#paint17_linear_4_596)" stroke-width="2.5" stroke-linecap="round" stroke-dasharray="14 18"/>
<path opacity="0.35" d="M705.411 204.164C713.337 208.584 726.716 217.594 732.119 222.192C738.769 228.438 743.399 234.891 746.171 241.55C748.671 248.504 749.502 255.838 748.926 263.592C748.337 271.827 746.601 280.612 743.959 289.87C741.387 299.576 737.864 309.576 733.31 319.525C728.344 329.309 721.807 338.416 713.429 346.31C703.797 353.164 691.888 358.318 677.771 361.589C670.266 362.825 662.306 363.68 653.961 364.178C645.522 364.588 636.855 364.774 628.052 364.806C619.371 364.965 610.935 365.105 602.815 365.292C595.01 365.771 587.601 366.356 580.613 367.072C567.739 369.526 556.358 372.312 546.224 375.117C536.716 378.53 527.536 381.194 518.383 382.79C508.689 384.075 498.435 383.925 487.628 382.4C475.832 380.397 463.419 377.205 450.634 373.109C436.873 368.86 422.837 364.014 408.792 358.818C393.919 353.757 379.148 348.49 364.804 343.112C357.42 340.493 350.17 337.835 343.131 335.154C335.997 332.493 329.111 329.789 322.515 327.039C315.897 324.296 309.791 321.549 304.202 318.789C298.669 316.013 293.692 313.204 289.289 310.381C280.82 304.583 274.764 298.586 271.039 292.398C267.884 285.89 266.96 279.097 268.027 272.045C269.453 264.573 272.571 256.781 277.09 248.757C281.692 240.332 287.47 231.724 294.286 223.134C301.158 214.406 309.132 205.946 318.204 198.08C327.68 190.534 338.494 183.887 350.66 178.397C356.986 175.877 363.65 173.657 370.642 171.741C377.762 169.957 385.177 168.447 392.861 167.213C400.6 166.031 408.369 165.094 416.11 164.365C423.809 163.61 431.447 163.004 438.947 162.53C453.64 161.242 467.731 160.299 481.083 159.642C493.976 158.45 506.366 157.667 518.307 157.384C530.224 156.847 542.053 157.035 553.84 158.004C566.042 158.99 578.423 160.838 590.867 163.497C603.923 166.231 617.071 169.707 630.042 173.811C643.578 177.934 656.824 182.595 669.45 187.707C675.883 190.25 682.129 192.895 688.132 195.642C694.174 198.384 699.949 201.221 705.405 204.158" stroke="url(#paint18_linear_4_596)" stroke-width="2.5" stroke-linecap="round" stroke-dasharray="25 13"/>
<path opacity="0.89" d="M690.872 213.95C700.114 219.475 707.736 225.225 713.743 231.146C719.529 237.168 723.676 243.471 726.311 250.039C728.722 256.842 729.722 264.033 729.471 271.586C729.094 279.462 727.587 287.736 725.033 296.253C722.321 304.952 718.481 313.669 713.444 322.07C707.88 330.136 700.796 337.403 692.073 343.498C682.407 348.692 670.935 352.444 657.798 354.643C643.968 356.131 628.951 356.52 613.26 356.125C597.946 356.149 583.478 356.19 570.188 356.513C557.924 357.917 546.805 359.597 536.72 361.358C527.214 363.784 518.165 365.766 509.372 367.057C500.35 368.302 491.09 368.512 481.558 367.636C471.337 366.45 460.659 364.225 449.694 361.112C437.916 357.817 425.863 353.847 413.764 349.367C400.985 344.91 388.266 340.103 375.908 335.04C363.11 330.074 350.899 324.862 339.659 319.434C328.349 314.023 318.83 308.553 311.187 303.025C303.857 297.372 298.527 291.548 295.161 285.575C292.203 279.35 291.143 272.875 291.79 266.191C292.771 259.19 295.276 251.937 299.118 244.539C303.15 236.884 308.408 229.164 314.757 221.57C321.313 213.967 329.018 206.722 337.815 200.094C347.025 193.816 357.466 188.395 369.071 184.021C381.166 180.156 394.386 177.325 408.538 175.538C422.889 173.948 437.206 173.133 451.202 172.877C464.928 172.302 478.181 172.048 490.814 172.048C503.105 171.561 514.919 171.389 526.259 171.568C537.52 171.432 548.58 171.831 559.415 172.816C570.511 173.713 581.61 175.302 592.621 177.577C604.063 179.854 615.474 182.817 626.665 186.387C638.265 189.966 649.572 194.103 660.339 198.734C671.332 203.346 681.601 208.424 690.867 213.944" stroke="url(#paint19_linear_4_596)" stroke-width="2.5" stroke-linecap="round" stroke-dasharray="22 19"/>
<path opacity="0.88" d="M676.788 225.009C684.53 230.167 690.942 235.613 696.045 241.285C700.975 247.038 704.556 253.09 706.856 259.406C708.963 265.879 709.828 272.666 709.542 279.702C709.066 286.902 707.464 294.296 704.773 301.722C701.801 309.13 697.669 316.339 692.32 323.072C686.489 329.394 679.288 334.924 670.714 339.38C661.49 343.129 650.861 345.694 638.991 347.018C626.711 347.866 613.522 347.836 599.793 347.147C586.313 346.789 573.403 346.358 561.315 346.068C549.883 346.615 539.284 347.352 529.482 348.178C520.12 349.626 511.235 350.834 502.7 351.624C494.099 352.56 485.495 352.777 476.84 352.215C467.754 351.514 458.428 349.972 448.953 347.65C438.907 345.19 428.665 342.047 418.417 338.34C407.647 334.607 396.952 330.409 386.6 325.838C375.895 321.315 365.693 316.444 356.304 311.265C346.879 306.095 338.911 300.812 332.489 295.44C326.284 289.993 321.728 284.376 318.776 278.623C316.145 272.713 315.099 266.59 315.53 260.328C316.259 253.864 318.363 247.254 321.724 240.597C325.326 233.822 330.125 227.099 336.02 220.597C342.19 214.194 349.465 208.198 357.793 202.822C366.479 197.79 376.248 193.539 387.043 190.205C398.174 187.292 410.274 185.279 423.149 184.164C436.173 183.221 449.181 182.971 461.936 183.225C474.532 183.245 486.781 183.58 498.537 184.152C510.069 184.323 521.195 184.735 531.876 185.409C542.468 185.762 552.802 186.491 562.824 187.649C572.989 188.653 583.014 190.182 592.822 192.257C602.909 194.28 612.843 196.88 622.508 200.032C632.423 203.166 642.035 206.845 651.13 211.027C660.377 215.191 669.005 219.852 676.788 225.009Z" stroke="url(#paint20_linear_4_596)" stroke-width="2.5" stroke-linecap="round" stroke-dasharray="9 21"/>
<path opacity="0.78" d="M662.288 237.114C668.662 241.874 673.925 246.928 678.075 252.213C682.109 257.547 684.986 263.148 686.77 268.947C688.373 274.822 688.876 280.904 688.323 287.078C687.551 293.292 685.714 299.522 682.828 305.61C679.661 311.563 675.388 317.186 670.034 322.273C664.289 326.978 657.384 330.95 649.378 334.007C640.948 336.553 631.467 338.162 621.05 338.819C610.406 339.177 599.048 338.834 587.232 337.951C575.573 337.322 564.256 336.553 553.481 335.821C543.101 335.698 533.272 335.667 524.027 335.693C515.072 336.255 506.508 336.689 498.308 336.873C490.119 337.296 482.043 337.258 474.071 336.684C465.859 336.118 457.594 334.923 449.341 333.094C440.708 331.206 432.027 328.717 423.424 325.674C414.475 322.602 405.644 319.034 397.15 315.035C388.405 311.046 380.108 306.649 372.497 301.872C364.85 297.102 358.406 292.156 353.208 287.098C348.172 281.995 344.465 276.722 342.062 271.34C339.912 265.87 339.085 260.259 339.516 254.575C340.206 248.808 342.111 242.985 345.144 237.219C348.433 231.448 352.824 225.819 358.244 220.485C363.917 215.304 370.625 210.552 378.281 206.38C386.213 202.52 395.103 199.337 404.835 196.945C414.816 194.884 425.598 193.571 437.063 193.036C448.618 192.633 460.18 192.832 471.571 193.488C482.868 193.983 493.938 194.79 504.651 195.817C515.218 196.545 525.478 197.484 535.34 198.623C545.138 199.483 554.666 200.612 563.861 202.057C573.12 203.313 582.161 204.956 590.908 207.015C599.8 208.983 608.467 211.411 616.793 214.305C625.265 217.152 633.395 220.486 641.013 224.296C648.724 228.083 655.874 232.354 662.288 237.114Z" stroke="url(#paint21_linear_4_596)" stroke-width="2.5" stroke-linecap="round" stroke-dasharray="20 3"/>
<path opacity="0.7" d="M646.306 249.299C651.418 253.599 655.552 258.142 658.747 262.851C661.851 267.588 663.966 272.499 665.124 277.516C666.15 282.539 666.193 287.645 665.306 292.714C664.232 297.735 662.19 302.648 659.221 307.307C656.027 311.799 651.879 315.915 646.808 319.514C641.49 322.808 635.233 325.482 628.11 327.427C620.76 329.029 612.593 329.917 603.73 330.092C594.748 330.098 585.202 329.559 575.238 328.574C565.37 327.764 555.678 326.787 546.321 325.761C537.18 325.156 528.363 324.559 519.941 323.973C511.684 323.787 503.73 323.522 496.067 323.102C488.435 322.935 480.967 322.48 473.686 321.683C466.277 320.968 458.947 319.81 451.745 318.2C444.331 316.595 436.988 314.505 429.828 311.942C422.452 309.376 415.28 306.349 408.453 302.901C401.467 299.456 394.912 295.599 388.948 291.355C382.96 287.114 377.961 282.679 373.988 278.113C370.101 273.533 367.302 268.814 365.567 264.014C364.007 259.189 363.54 254.285 364.115 249.38C364.903 244.472 366.722 239.592 369.539 234.85C372.55 230.17 376.541 225.693 381.429 221.537C386.514 217.546 392.504 213.965 399.312 210.903C406.314 208.098 414.105 205.859 422.617 204.28C431.288 202.942 440.629 202.222 450.534 202.143C460.511 202.172 470.526 202.71 480.42 203.643C490.282 204.489 499.992 205.623 509.454 206.989C518.85 208.134 528.012 209.489 536.85 211.009C545.666 212.317 554.22 213.831 562.469 215.571C570.732 217.141 578.748 218.993 586.432 221.143C594.194 223.192 601.666 225.59 608.759 228.351C615.94 231.05 622.736 234.147 629.026 237.639C635.37 241.11 641.178 244.994 646.306 249.299Z" stroke="url(#paint22_linear_4_596)" stroke-width="2.5" stroke-linecap="round" stroke-dasharray="9 9"/>
<path opacity="0.89" d="M628.05 260.136C635.874 267.668 640.319 275.74 641.558 283.832C642.415 291.864 639.922 299.639 634.362 306.394C628.247 312.589 619.002 317.216 607.094 319.667C594.746 321.33 580.009 321.033 563.639 318.968C547.49 317.392 531.692 315.247 516.919 312.97C502.468 311.795 488.666 310.162 475.84 307.818C462.754 305.917 450.136 302.76 438.587 298.245C426.518 293.777 415.53 287.852 406.621 280.59C397.633 273.33 392.038 265.431 389.81 257.399C388.032 249.403 389.807 241.396 394.836 234.009C400.418 226.963 409.193 220.922 420.711 216.56C432.669 212.924 447.201 211.159 463.699 211.542C480.336 212.252 497.129 214.474 513.217 217.642C529.199 220.315 544.578 223.736 558.752 227.763C572.995 231.302 586.283 235.726 597.978 241.082C609.846 246.253 620.16 252.606 628.05 260.136Z" stroke="url(#paint23_linear_4_596)" stroke-width="2.5" stroke-linecap="round" stroke-dasharray="2 2"/>
<path opacity="0.2" d="M607.393 268.206C613.096 274.461 615.988 280.808 616.313 286.854C616.414 292.811 613.857 298.256 608.916 302.686C603.695 306.759 596.115 309.557 586.562 310.769C576.825 311.596 565.284 311.006 552.418 309.075C539.646 307.448 526.909 305.173 514.784 302.603C502.774 300.702 491.18 298.373 480.436 295.593C469.568 293.169 459.304 289.955 450.17 285.887C440.796 281.886 432.549 276.888 426.205 270.965C419.795 265.041 416.129 258.758 415.102 252.547C414.305 246.405 416.268 240.466 420.734 235.214C425.523 230.247 432.782 226.194 442.139 223.499C451.742 221.265 463.327 220.473 476.472 221.323C489.697 222.389 503.11 224.702 516.057 227.828C528.984 230.718 541.482 234.288 552.997 238.347C564.555 242.125 575.25 246.524 584.466 251.495C593.789 256.348 601.662 261.947 607.393 268.206Z" stroke="url(#paint24_linear_4_596)" stroke-width="2.5" stroke-linecap="round" stroke-dasharray="11 8"/>
<path opacity="0.29" d="M584.924 272.534C588.736 277.351 590.425 281.949 590.2 286.075C588.777 291.894 576.784 299.552 566.824 300.794C559.66 301.115 551.194 300.454 541.71 298.803C532.247 297.325 522.702 295.226 513.515 292.771C504.34 290.646 495.426 288.129 487.2 285.294C478.9 282.679 471.178 279.575 464.507 276.025C457.706 272.536 451.96 268.48 447.775 263.946C443.552 259.413 441.414 254.831 441.219 250.471C442.049 244.192 453.255 234.468 463.115 231.837C470.281 230.654 478.876 230.513 488.63 231.551C498.411 232.729 508.359 234.841 518.007 237.609C527.639 240.296 536.996 243.564 545.585 247.208C554.189 250.73 562.088 254.687 568.79 258.935C575.534 263.134 581.086 267.718 584.924 272.534Z" stroke="url(#paint25_linear_4_596)" stroke-width="2.5" stroke-linecap="round" stroke-dasharray="4 26"/>
<path opacity="0.67" d="M561.662 272.944C565.515 282.055 549.136 290.435 531.842 288.099C519.436 285.892 506.598 281.803 495.722 276.961C484.719 272.478 475.501 266.796 470.722 260.602C465.904 254.416 466.661 248.867 471.876 245.154C477.241 241.712 487.015 240.462 499.752 242.3C512.52 244.378 525.765 248.887 536.891 254.441C548.06 259.88 557.193 266.429 561.662 272.944Z" stroke="url(#paint26_linear_4_596)" stroke-width="2.5" stroke-linecap="round" stroke-dasharray="24 3"/>
</g>
<defs>
<linearGradient id="paint0_linear_4_596" x1="529.163" y1="-62.4899" x2="529.163" y2="613.303" gradientUnits="userSpaceOnUse">
<stop stop-color="#FFB500"/>
<stop offset="1" stop-color="white"/>
</linearGradient>
<linearGradient id="paint1_linear_4_596" x1="564.776" y1="-49.9569" x2="544.758" y2="602.593" gradientUnits="userSpaceOnUse">
<stop stop-color="#FFB500"/>
<stop offset="1" stop-color="white"/>
</linearGradient>
<linearGradient id="paint2_linear_4_596" x1="597.562" y1="-36.4286" x2="558.759" y2="593.837" gradientUnits="userSpaceOnUse">
<stop stop-color="#FFB500"/>
<stop offset="1" stop-color="white"/>
</linearGradient>
<linearGradient id="paint3_linear_4_596" x1="627.422" y1="-22.0231" x2="570.871" y2="586.776" gradientUnits="userSpaceOnUse">
<stop stop-color="#FFB500"/>
<stop offset="1" stop-color="white"/>
</linearGradient>
<linearGradient id="paint4_linear_4_596" x1="654.286" y1="-6.87628" x2="580.855" y2="581.148" gradientUnits="userSpaceOnUse">
<stop stop-color="#FFB500"/>
<stop offset="1" stop-color="white"/>
</linearGradient>
<linearGradient id="paint5_linear_4_596" x1="678.11" y1="8.87158" x2="588.52" y2="576.68" gradientUnits="userSpaceOnUse">
<stop stop-color="#FFB500"/>
<stop offset="1" stop-color="white"/>
</linearGradient>
<linearGradient id="paint6_linear_4_596" x1="698.871" y1="25.0836" x2="593.719" y2="573.09" gradientUnits="userSpaceOnUse">
<stop stop-color="#FFB500"/>
<stop offset="1" stop-color="white"/>
</linearGradient>
<linearGradient id="paint7_linear_4_596" x1="716.49" y1="41.7125" x2="596.403" y2="569.581" gradientUnits="userSpaceOnUse">
<stop stop-color="#FFB500"/>
<stop offset="1" stop-color="white"/>
</linearGradient>
<linearGradient id="paint8_linear_4_596" x1="730.251" y1="58.251" x2="595.421" y2="567.072" gradientUnits="userSpaceOnUse">
<stop stop-color="#FFB500"/>
<stop offset="1" stop-color="white"/>
</linearGradient>
<linearGradient id="paint9_linear_4_596" x1="742.023" y1="75.1207" x2="592.921" y2="564.311" gradientUnits="userSpaceOnUse">
<stop stop-color="#FFB500"/>
<stop offset="1" stop-color="white"/>
</linearGradient>
<linearGradient id="paint10_linear_4_596" x1="750.538" y1="91.909" x2="587.501" y2="561.157" gradientUnits="userSpaceOnUse">
<stop stop-color="#FFB500"/>
<stop offset="1" stop-color="white"/>
</linearGradient>
<linearGradient id="paint11_linear_4_596" x1="756.077" y1="108.525" x2="579.439" y2="557.325" gradientUnits="userSpaceOnUse">
<stop stop-color="#FFB500"/>
<stop offset="1" stop-color="white"/>
</linearGradient>
<linearGradient id="paint12_linear_4_596" x1="758.712" y1="124.847" x2="568.852" y2="552.446" gradientUnits="userSpaceOnUse">
<stop stop-color="#FFB500"/>
<stop offset="1" stop-color="white"/>
</linearGradient>
<linearGradient id="paint13_linear_4_596" x1="758.522" y1="140.754" x2="555.918" y2="546.141" gradientUnits="userSpaceOnUse">
<stop stop-color="#FFB500"/>
<stop offset="1" stop-color="white"/>
</linearGradient>
<linearGradient id="paint14_linear_4_596" x1="755.561" y1="156.105" x2="540.867" y2="537.972" gradientUnits="userSpaceOnUse">
<stop stop-color="#FFB500"/>
<stop offset="1" stop-color="white"/>
</linearGradient>
<linearGradient id="paint15_linear_4_596" x1="749.923" y1="170.768" x2="524.052" y2="527.512" gradientUnits="userSpaceOnUse">
<stop stop-color="#FFB500"/>
<stop offset="1" stop-color="white"/>
</linearGradient>
<linearGradient id="paint16_linear_4_596" x1="741.804" y1="184.665" x2="506.048" y2="514.393" gradientUnits="userSpaceOnUse">
<stop stop-color="#FFB500"/>
<stop offset="1" stop-color="white"/>
</linearGradient>
<linearGradient id="paint17_linear_4_596" x1="730.826" y1="197.942" x2="487.694" y2="497.638" gradientUnits="userSpaceOnUse">
<stop stop-color="#FFB500"/>
<stop offset="1" stop-color="white"/>
</linearGradient>
<linearGradient id="paint18_linear_4_596" x1="718.762" y1="209.811" x2="469.491" y2="478.724" gradientUnits="userSpaceOnUse">
<stop stop-color="#FFB500"/>
<stop offset="1" stop-color="white"/>
</linearGradient>
<linearGradient id="paint19_linear_4_596" x1="704.262" y1="220.994" x2="452.793" y2="456.068" gradientUnits="userSpaceOnUse">
<stop stop-color="#FFB500"/>
<stop offset="1" stop-color="white"/>
</linearGradient>
<linearGradient id="paint20_linear_4_596" x1="687.891" y1="231.011" x2="438.629" y2="430.129" gradientUnits="userSpaceOnUse">
<stop stop-color="#FFB500"/>
<stop offset="1" stop-color="white"/>
</linearGradient>
<linearGradient id="paint21_linear_4_596" x1="669.924" y1="239.854" x2="428.417" y2="401.512" gradientUnits="userSpaceOnUse">
<stop stop-color="#FFB500"/>
<stop offset="1" stop-color="white"/>
</linearGradient>
<linearGradient id="paint22_linear_4_596" x1="650.544" y1="247.456" x2="423.489" y2="371.228" gradientUnits="userSpaceOnUse">
<stop stop-color="#FFB500"/>
<stop offset="1" stop-color="white"/>
</linearGradient>
<linearGradient id="paint23_linear_4_596" x1="629.942" y1="253.876" x2="425.013" y2="340.961" gradientUnits="userSpaceOnUse">
<stop stop-color="#FFB500"/>
<stop offset="1" stop-color="white"/>
</linearGradient>
<linearGradient id="paint24_linear_4_596" x1="608.383" y1="258.807" x2="433.393" y2="312.683" gradientUnits="userSpaceOnUse">
<stop stop-color="#FFB500"/>
<stop offset="1" stop-color="white"/>
</linearGradient>
<linearGradient id="paint25_linear_4_596" x1="586.05" y1="262.377" x2="448.477" y2="288.928" gradientUnits="userSpaceOnUse">
<stop stop-color="#FFB500"/>
<stop offset="1" stop-color="white"/>
</linearGradient>
<linearGradient id="paint26_linear_4_596" x1="561.32" y1="263.936" x2="468.951" y2="271.276" gradientUnits="userSpaceOnUse">
<stop stop-color="#FFB500"/>
<stop offset="1" stop-color="white"/>
</linearGradient>
<clipPath id="clip0_4_596">
<rect width="1029" height="536" fill="white"/>
</clipPath>
</defs>
</svg>
