<svg width="1067" height="546" viewBox="0 0 1067 546" fill="none" xmlns="http://www.w3.org/2000/svg">
<g clip-path="url(#clip0_9_7242)">
<path opacity="0.05" d="M1312.36 365.514L293.27 -282L-150 641.75L1312.36 365.514Z" stroke="url(#paint0_linear_9_7242)" stroke-width="2.5"/>
<path opacity="0.08" d="M1302.27 345.127L254.69 -254.094L-91.2191 654.618L1302.27 345.127Z" stroke="url(#paint1_linear_9_7242)" stroke-width="2.5"/>
<path opacity="0.11" d="M1290.09 325.59L220.211 -225.495L-32.3991 665.093L1290.09 325.59Z" stroke="url(#paint2_linear_9_7242)" stroke-width="2.5"/>
<path opacity="0.13" d="M1275.98 306.968L189.856 -196.366L26.179 673.209L1275.98 306.968Z" stroke="url(#paint3_linear_9_7242)" stroke-width="2.5"/>
<path opacity="0.16" d="M1260.07 289.318L163.626 -166.87L84.2356 679.011L1260.07 289.318Z" stroke="url(#paint4_linear_9_7242)" stroke-width="2.5"/>
<path opacity="0.19" d="M1242.5 272.694L141.502 -137.164V682.553L1242.5 272.694Z" stroke="url(#paint5_linear_9_7242)" stroke-width="2.5"/>
<path opacity="0.22" d="M1223.42 257.143L123.445 -107.408L197.714 683.9L1223.42 257.143Z" stroke="url(#paint6_linear_9_7242)" stroke-width="2.5"/>
<path opacity="0.25" d="M1202.98 242.705L109.406 -77.7553L252.624 683.123L1202.98 242.705Z" stroke="url(#paint7_linear_9_7242)" stroke-width="2.5"/>
<path opacity="0.27" d="M1181.35 229.416L99.3108 -48.3584L305.992 680.304L1181.35 229.416Z" stroke="url(#paint8_linear_9_7242)" stroke-width="2.5"/>
<path opacity="0.3" d="M1158.67 217.305L93.0669 -19.3646L357.586 675.533L1158.67 217.305Z" stroke="url(#paint9_linear_9_7242)" stroke-width="2.5"/>
<path opacity="0.33" d="M1135.12 206.395L90.571 9.0831L407.192 668.905L1135.12 206.395Z" stroke="url(#paint10_linear_9_7242)" stroke-width="2.5"/>
<path opacity="0.36" d="M1110.84 196.703L91.7003 36.8474L454.609 660.525L1110.84 196.703Z" stroke="url(#paint11_linear_9_7242)" stroke-width="2.5"/>
<path opacity="0.39" d="M1086.02 188.238L96.3185 63.7964L499.649 650.505L1086.02 188.238Z" stroke="url(#paint12_linear_9_7242)" stroke-width="2.5"/>
<path opacity="0.41" d="M1060.8 181.007L104.27 89.804L542.135 638.96L1060.8 181.007Z" stroke="url(#paint13_linear_9_7242)" stroke-width="2.5"/>
<path opacity="0.44" d="M1035.35 175.007L115.39 114.752L581.91 626.013L1035.35 175.007Z" stroke="url(#paint14_linear_9_7242)" stroke-width="2.5"/>
<path opacity="0.47" d="M1009.83 170.23L129.502 138.527L618.835 611.791L1009.83 170.23Z" stroke="url(#paint15_linear_9_7242)" stroke-width="2.5"/>
<path opacity="0.5" d="M984.402 166.663L146.414 161.027L652.782 596.426L984.402 166.663Z" stroke="url(#paint16_linear_9_7242)" stroke-width="2.5"/>
<path opacity="0.53" d="M959.218 164.286L165.922 182.154L683.642 580.053L959.218 164.286Z" stroke="url(#paint17_linear_9_7242)" stroke-width="2.5"/>
<path opacity="0.55" d="M934.431 163.073L187.815 201.821L711.325 562.81L934.431 163.073Z" stroke="url(#paint18_linear_9_7242)" stroke-width="2.5"/>
<path opacity="0.58" d="M910.188 162.995L211.872 219.949L735.756 544.839L910.188 162.995Z" stroke="url(#paint19_linear_9_7242)" stroke-width="2.5"/>
<path opacity="0.61" d="M886.631 164.014L237.861 236.468L756.877 526.282L886.631 164.014Z" stroke="url(#paint20_linear_9_7242)" stroke-width="2.5"/>
<path opacity="0.64" d="M863.9 166.09L265.55 251.316L774.653 507.282L863.9 166.09Z" stroke="url(#paint21_linear_9_7242)" stroke-width="2.5"/>
<path opacity="0.66" d="M842.123 169.176L294.691 264.443L789.059 487.984L842.123 169.176Z" stroke="url(#paint22_linear_9_7242)" stroke-width="2.5"/>
<path opacity="0.69" d="M821.429 173.22L325.042 275.806L800.096 468.533L821.429 173.22Z" stroke="url(#paint23_linear_9_7242)" stroke-width="2.5"/>
<path opacity="0.72" d="M801.936 178.167L356.351 285.373L807.779 449.071L801.936 178.167Z" stroke="url(#paint24_linear_9_7242)" stroke-width="2.5"/>
<path opacity="0.75" d="M783.75 183.957L388.364 293.122L812.138 429.741L783.75 183.957Z" stroke="url(#paint25_linear_9_7242)" stroke-width="2.5"/>
<path opacity="0.78" d="M766.977 190.528L420.825 299.04L813.223 410.683L766.977 190.528Z" stroke="url(#paint26_linear_9_7242)" stroke-width="2.5"/>
<path opacity="0.8" d="M751.709 197.81L453.481 303.125L811.103 392.034L751.709 197.81Z" stroke="url(#paint27_linear_9_7242)" stroke-width="2.5"/>
<path opacity="0.83" d="M738.033 205.733L486.077 305.384L805.859 373.928L738.033 205.733Z" stroke="url(#paint28_linear_9_7242)" stroke-width="2.5"/>
<path opacity="0.86" d="M726.023 214.225L518.363 305.834L797.593 356.495L726.023 214.225Z" stroke="url(#paint29_linear_9_7242)" stroke-width="2.5"/>
<path opacity="0.89" d="M715.747 223.208L550.089 304.501L786.418 339.861L715.747 223.208Z" stroke="url(#paint30_linear_9_7242)" stroke-width="2.5"/>
<path opacity="0.92" d="M707.261 232.604L581.012 301.423L772.468 324.147L707.261 232.604Z" stroke="url(#paint31_linear_9_7242)" stroke-width="2.5"/>
<path opacity="0.94" d="M700.612 242.334L610.893 296.644L755.885 309.467L700.612 242.334Z" stroke="url(#paint32_linear_9_7242)" stroke-width="2.5"/>
<path opacity="0.97" d="M695.837 252.314L639.499 290.219L736.83 295.931L695.837 252.314Z" stroke="url(#paint33_linear_9_7242)" stroke-width="2.5"/>
<path d="M692.96 262.462L666.607 282.212L715.473 283.642L692.96 262.462Z" stroke="url(#paint34_linear_9_7242)" stroke-width="2.5"/>
</g>
<defs>
<linearGradient id="paint0_linear_9_7242" x1="1312.36" y1="365.514" x2="231.451" y2="-153.173" gradientUnits="userSpaceOnUse">
<stop stop-color="#8B6A1C"/>
<stop offset="1" stop-color="white"/>
</linearGradient>
<linearGradient id="paint1_linear_9_7242" x1="1302.27" y1="345.127" x2="188.044" y2="-79.0119" gradientUnits="userSpaceOnUse">
<stop stop-color="#8B6A1C"/>
<stop offset="1" stop-color="white"/>
</linearGradient>
<linearGradient id="paint2_linear_9_7242" x1="1290.09" y1="325.59" x2="155.205" y2="3.68573" gradientUnits="userSpaceOnUse">
<stop stop-color="#8B6A1C"/>
<stop offset="1" stop-color="white"/>
</linearGradient>
<linearGradient id="paint3_linear_9_7242" x1="1275.98" y1="306.968" x2="135.521" y2="92.3027" gradientUnits="userSpaceOnUse">
<stop stop-color="#8B6A1C"/>
<stop offset="1" stop-color="white"/>
</linearGradient>
<linearGradient id="paint4_linear_9_7242" x1="1260.07" y1="289.318" x2="130.758" y2="183.327" gradientUnits="userSpaceOnUse">
<stop stop-color="#8B6A1C"/>
<stop offset="1" stop-color="white"/>
</linearGradient>
<linearGradient id="paint5_linear_9_7242" x1="1242.5" y1="272.694" x2="141.502" y2="272.694" gradientUnits="userSpaceOnUse">
<stop stop-color="#8B6A1C"/>
<stop offset="1" stop-color="white"/>
</linearGradient>
<linearGradient id="paint6_linear_9_7242" x1="1223.42" y1="257.143" x2="166.966" y2="356.296" gradientUnits="userSpaceOnUse">
<stop stop-color="#8B6A1C"/>
<stop offset="1" stop-color="white"/>
</linearGradient>
<linearGradient id="paint7_linear_9_7242" x1="1202.98" y1="242.705" x2="205.08" y2="430.537" gradientUnits="userSpaceOnUse">
<stop stop-color="#8B6A1C"/>
<stop offset="1" stop-color="white"/>
</linearGradient>
<linearGradient id="paint8_linear_9_7242" x1="1181.35" y1="229.416" x2="252.805" y2="492.793" gradientUnits="userSpaceOnUse">
<stop stop-color="#8B6A1C"/>
<stop offset="1" stop-color="white"/>
</linearGradient>
<linearGradient id="paint9_linear_9_7242" x1="1158.67" y1="217.305" x2="306.621" y2="541.647" gradientUnits="userSpaceOnUse">
<stop stop-color="#8B6A1C"/>
<stop offset="1" stop-color="white"/>
</linearGradient>
<linearGradient id="paint10_linear_9_7242" x1="1135.12" y1="206.395" x2="363.036" y2="576.885" gradientUnits="userSpaceOnUse">
<stop stop-color="#8B6A1C"/>
<stop offset="1" stop-color="white"/>
</linearGradient>
<linearGradient id="paint11_linear_9_7242" x1="1110.84" y1="196.702" x2="418.977" y2="599.29" gradientUnits="userSpaceOnUse">
<stop stop-color="#8B6A1C"/>
<stop offset="1" stop-color="white"/>
</linearGradient>
<linearGradient id="paint12_linear_9_7242" x1="1086.02" y1="188.238" x2="472.027" y2="610.324" gradientUnits="userSpaceOnUse">
<stop stop-color="#8B6A1C"/>
<stop offset="1" stop-color="white"/>
</linearGradient>
<linearGradient id="paint13_linear_9_7242" x1="1060.8" y1="181.007" x2="520.492" y2="611.816" gradientUnits="userSpaceOnUse">
<stop stop-color="#8B6A1C"/>
<stop offset="1" stop-color="white"/>
</linearGradient>
<linearGradient id="paint14_linear_9_7242" x1="1035.35" y1="175.007" x2="563.363" y2="605.687" gradientUnits="userSpaceOnUse">
<stop stop-color="#8B6A1C"/>
<stop offset="1" stop-color="white"/>
</linearGradient>
<linearGradient id="paint15_linear_9_7242" x1="1009.83" y1="170.23" x2="600.2" y2="593.768" gradientUnits="userSpaceOnUse">
<stop stop-color="#8B6A1C"/>
<stop offset="1" stop-color="white"/>
</linearGradient>
<linearGradient id="paint16_linear_9_7242" x1="984.402" y1="166.663" x2="630.986" y2="577.685" gradientUnits="userSpaceOnUse">
<stop stop-color="#8B6A1C"/>
<stop offset="1" stop-color="white"/>
</linearGradient>
<linearGradient id="paint17_linear_9_7242" x1="959.218" y1="164.286" x2="656.002" y2="558.81" gradientUnits="userSpaceOnUse">
<stop stop-color="#8B6A1C"/>
<stop offset="1" stop-color="white"/>
</linearGradient>
<linearGradient id="paint18_linear_9_7242" x1="934.431" y1="163.073" x2="675.72" y2="538.259" gradientUnits="userSpaceOnUse">
<stop stop-color="#8B6A1C"/>
<stop offset="1" stop-color="white"/>
</linearGradient>
<linearGradient id="paint19_linear_9_7242" x1="910.188" y1="162.995" x2="690.71" y2="516.903" gradientUnits="userSpaceOnUse">
<stop stop-color="#8B6A1C"/>
<stop offset="1" stop-color="white"/>
</linearGradient>
<linearGradient id="paint20_linear_9_7242" x1="886.631" y1="164.014" x2="701.584" y2="495.407" gradientUnits="userSpaceOnUse">
<stop stop-color="#8B6A1C"/>
<stop offset="1" stop-color="white"/>
</linearGradient>
<linearGradient id="paint21_linear_9_7242" x1="863.9" y1="166.09" x2="708.962" y2="474.254" gradientUnits="userSpaceOnUse">
<stop stop-color="#8B6A1C"/>
<stop offset="1" stop-color="white"/>
</linearGradient>
<linearGradient id="paint22_linear_9_7242" x1="842.123" y1="169.176" x2="713.429" y2="453.786" gradientUnits="userSpaceOnUse">
<stop stop-color="#8B6A1C"/>
<stop offset="1" stop-color="white"/>
</linearGradient>
<linearGradient id="paint23_linear_9_7242" x1="821.429" y1="173.22" x2="715.539" y2="434.229" gradientUnits="userSpaceOnUse">
<stop stop-color="#8B6A1C"/>
<stop offset="1" stop-color="white"/>
</linearGradient>
<linearGradient id="paint24_linear_9_7242" x1="801.936" y1="178.167" x2="715.795" y2="415.716" gradientUnits="userSpaceOnUse">
<stop stop-color="#8B6A1C"/>
<stop offset="1" stop-color="white"/>
</linearGradient>
<linearGradient id="paint25_linear_9_7242" x1="783.751" y1="183.957" x2="714.646" y2="398.311" gradientUnits="userSpaceOnUse">
<stop stop-color="#8B6A1C"/>
<stop offset="1" stop-color="white"/>
</linearGradient>
<linearGradient id="paint26_linear_9_7242" x1="766.977" y1="190.528" x2="712.493" y2="382.024" gradientUnits="userSpaceOnUse">
<stop stop-color="#8B6A1C"/>
<stop offset="1" stop-color="white"/>
</linearGradient>
<linearGradient id="paint27_linear_9_7242" x1="751.709" y1="197.81" x2="709.691" y2="366.822" gradientUnits="userSpaceOnUse">
<stop stop-color="#8B6A1C"/>
<stop offset="1" stop-color="white"/>
</linearGradient>
<linearGradient id="paint28_linear_9_7242" x1="738.033" y1="205.733" x2="706.544" y2="352.64" gradientUnits="userSpaceOnUse">
<stop stop-color="#8B6A1C"/>
<stop offset="1" stop-color="white"/>
</linearGradient>
<linearGradient id="paint29_linear_9_7242" x1="726.023" y1="214.225" x2="703.314" y2="339.39" gradientUnits="userSpaceOnUse">
<stop stop-color="#8B6A1C"/>
<stop offset="1" stop-color="white"/>
</linearGradient>
<linearGradient id="paint30_linear_9_7242" x1="715.747" y1="223.208" x2="700.223" y2="326.964" gradientUnits="userSpaceOnUse">
<stop stop-color="#8B6A1C"/>
<stop offset="1" stop-color="white"/>
</linearGradient>
<linearGradient id="paint31_linear_9_7242" x1="707.261" y1="232.604" x2="697.453" y2="315.243" gradientUnits="userSpaceOnUse">
<stop stop-color="#8B6A1C"/>
<stop offset="1" stop-color="white"/>
</linearGradient>
<linearGradient id="paint32_linear_9_7242" x1="700.612" y1="242.334" x2="695.15" y2="304.096" gradientUnits="userSpaceOnUse">
<stop stop-color="#8B6A1C"/>
<stop offset="1" stop-color="white"/>
</linearGradient>
<linearGradient id="paint33_linear_9_7242" x1="695.837" y1="252.314" x2="693.427" y2="293.384" gradientUnits="userSpaceOnUse">
<stop stop-color="#8B6A1C"/>
<stop offset="1" stop-color="white"/>
</linearGradient>
<linearGradient id="paint34_linear_9_7242" x1="692.96" y1="262.462" x2="692.36" y2="282.966" gradientUnits="userSpaceOnUse">
<stop stop-color="#8B6A1C"/>
<stop offset="1" stop-color="white"/>
</linearGradient>
<clipPath id="clip0_9_7242">
<rect width="1067" height="546" fill="white"/>
</clipPath>
</defs>
</svg>
