<svg width="1286" height="800" viewBox="0 0 1286 800" fill="none" xmlns="http://www.w3.org/2000/svg">
<g clip-path="url(#clip0_6_6513)">
<path opacity="0.38" d="M1146.27 560.244C1288.14 387.028 1177.43 175.062 898.984 86.8046C620.54 -1.45305 279.805 67.4188 137.931 240.634C-3.94331 413.85 106.768 625.816 385.212 714.073C663.656 802.331 1004.39 733.459 1146.27 560.244Z" stroke="url(#paint0_linear_6_6513)" stroke-width="8" stroke-linecap="round" stroke-dasharray="28 17"/>
<path opacity="0.39" d="M790.975 723.423C1077.72 672.274 1243.52 486.204 1161.29 307.825C1079.07 129.446 779.965 26.3056 493.221 77.455C206.476 128.604 40.6785 314.674 122.901 493.053C205.124 671.432 504.231 774.572 790.975 723.423Z" stroke="url(#paint1_linear_6_6513)" stroke-width="7" stroke-linecap="round" stroke-dasharray="14 38"/>
<path opacity="0.27" d="M1078.33 230.865C927.786 80.9884 610.434 35.4104 369.508 129.064C128.581 222.717 55.3146 420.137 205.862 570.013C356.41 719.89 673.762 765.468 914.689 671.814C1155.62 578.161 1228.88 380.741 1078.33 230.865Z" stroke="url(#paint2_linear_6_6513)" stroke-width="7" stroke-linecap="round" stroke-dasharray="20 31"/>
<path opacity="0.77" d="M1091.93 519.221C1197.38 364.674 1081.48 186.207 833.041 120.606C584.605 55.0039 297.72 127.109 192.266 281.657C86.8111 436.205 202.72 614.671 451.156 680.272C699.591 745.874 986.476 673.769 1091.93 519.221Z" stroke="url(#paint3_linear_6_6513)" stroke-width="7" stroke-linecap="round" stroke-dasharray="41 35"/>
<path opacity="0.71" d="M187.644 345.486C138.857 501.622 302.773 652.798 553.761 683.148C804.749 713.497 1047.77 611.528 1096.55 455.392C1145.34 299.256 981.423 148.08 730.435 117.73C479.447 87.3806 236.431 189.35 187.644 345.486Z" stroke="url(#paint4_linear_6_6513)" stroke-width="6" stroke-linecap="round" stroke-dasharray="20 22"/>
<path opacity="0.12" d="M880.236 628.557C1082.76 546.741 1140.32 378.283 1008.8 252.297C877.278 126.311 606.483 90.5041 403.96 172.321C201.437 254.137 143.878 422.594 275.398 548.581C406.918 674.567 677.713 710.374 880.236 628.557Z" stroke="url(#paint5_linear_6_6513)" stroke-width="6" stroke-linecap="round" stroke-dasharray="47 33"/>
<path opacity="0.85" d="M816.014 632.454C1022 572.702 1111.11 420.387 1015.06 292.249C919.011 164.11 674.164 108.672 468.182 168.424C262.2 228.176 173.083 380.491 269.134 508.629C365.185 636.767 610.032 692.206 816.014 632.454Z" stroke="url(#paint6_linear_6_6513)" stroke-width="6" stroke-linecap="round" stroke-dasharray="22 14"/>
<path opacity="0.92" d="M259.174 371.19C233.207 502.751 383.598 622.496 595.081 638.65C806.564 654.804 999.055 561.248 1025.02 429.688C1050.99 298.127 900.598 178.381 689.115 162.228C477.632 146.074 285.141 239.63 259.174 371.19Z" stroke="url(#paint7_linear_6_6513)" stroke-width="6" stroke-linecap="round" stroke-dasharray="20 33"/>
<path opacity="0.97" d="M978.261 480.713C1049.53 365.219 956.797 235.651 771.139 191.317C585.481 146.983 377.202 204.67 305.934 320.165C234.667 435.66 327.399 565.227 513.057 609.561C698.715 653.895 906.994 596.208 978.261 480.713Z" stroke="url(#paint8_linear_6_6513)" stroke-width="5" stroke-linecap="round" stroke-dasharray="42 30"/>
<path opacity="0.29" d="M750.955 597.107C925.556 559.707 1018.36 441.337 958.242 332.721C898.122 224.104 707.842 166.371 533.241 203.771C358.64 241.171 265.835 359.54 325.955 468.157C386.075 576.774 576.354 634.507 750.955 597.107Z" stroke="url(#paint9_linear_6_6513)" stroke-width="5" stroke-linecap="round" stroke-dasharray="53 13"/>
<path opacity="0.1" d="M583.207 588.911C750.532 609.144 912.543 541.165 945.068 437.074C977.592 332.984 868.315 232.2 700.989 211.967C533.664 191.733 371.653 259.713 339.129 363.804C306.604 467.894 415.881 568.678 583.207 588.911Z" stroke="url(#paint10_linear_6_6513)" stroke-width="5" stroke-linecap="round" stroke-dasharray="18 41"/>
<path opacity="0.42" d="M691.227 227.113C537.348 210.234 390.609 274.151 363.476 369.877C336.343 465.602 439.091 556.886 592.97 573.765C746.848 590.644 893.587 526.726 920.72 431.001C947.853 335.276 845.105 243.992 691.227 227.113Z" stroke="url(#paint11_linear_6_6513)" stroke-width="4" stroke-linecap="round" stroke-dasharray="20 44"/>
<path opacity="0.59" d="M566.9 247.43C431.059 273.266 354.606 362.714 396.137 447.218C437.667 531.723 581.455 579.283 717.296 553.448C853.137 527.612 929.591 438.164 888.06 353.659C846.529 269.155 702.741 221.595 566.9 247.43Z" stroke="url(#paint12_linear_6_6513)" stroke-width="4" stroke-linecap="round" stroke-dasharray="51 50"/>
<path opacity="0.18" d="M410.653 402.952C412.885 482.469 518.315 545.805 646.138 544.417C773.961 543.029 875.774 477.443 873.543 397.926C871.312 318.409 765.882 255.073 638.058 256.461C510.235 257.849 408.422 323.435 410.653 402.952Z" stroke="url(#paint13_linear_6_6513)" stroke-width="4" stroke-linecap="round" stroke-dasharray="53 54"/>
<path opacity="0.3" d="M496.604 490.949C576.958 540.936 707.238 540.936 787.592 490.949C867.947 440.962 867.947 359.916 787.592 309.929C707.238 259.942 576.958 259.942 496.604 309.929C416.25 359.916 416.25 440.962 496.604 490.949Z" stroke="url(#paint14_linear_6_6513)" stroke-width="4" stroke-linecap="round" stroke-dasharray="47 36"/>
<path opacity="0.25" d="M805.27 447.772C847.292 391.712 808.304 325.074 718.186 298.932C628.069 272.791 520.949 297.045 478.927 353.106C436.904 409.166 475.893 475.804 566.01 501.945C656.127 528.087 763.248 503.833 805.27 447.772Z" stroke="url(#paint15_linear_6_6513)" stroke-width="3" stroke-linecap="round" stroke-dasharray="36 47"/>
<path opacity="0.98" d="M768.51 455.502C817.395 412.071 800.428 352.211 730.613 321.8C660.797 291.39 564.572 301.945 515.687 345.376C466.802 388.806 483.769 448.667 553.584 479.078C623.399 509.488 719.625 498.933 768.51 455.502Z" stroke="url(#paint16_linear_6_6513)" stroke-width="3" stroke-linecap="round" stroke-dasharray="16 49"/>
<path opacity="0.72" d="M562.924 337.398C506.956 364.6 497.033 414.875 540.76 449.692C584.487 484.508 665.305 490.681 721.272 463.48C777.24 436.278 787.163 386.002 743.436 351.186C699.71 316.369 618.892 310.196 562.924 337.398Z" stroke="url(#paint17_linear_6_6513)" stroke-width="3" stroke-linecap="round" stroke-dasharray="53 53"/>
<path opacity="0.83" d="M548.857 373.391C524.844 405.426 547.123 443.505 598.619 458.443C650.115 473.381 711.326 459.521 735.339 427.486C759.352 395.452 737.072 357.373 685.577 342.435C634.081 327.497 572.87 341.357 548.857 373.391Z" stroke="url(#paint18_linear_6_6513)" stroke-width="2" stroke-linecap="round" stroke-dasharray="17 51"/>
<path opacity="0.6" d="M575.276 424.439C596.583 447.397 643.773 455.263 680.678 442.008C717.583 428.753 730.228 399.397 708.921 376.439C687.614 353.481 640.423 345.615 603.518 358.87C566.613 372.125 553.969 401.481 575.276 424.439Z" stroke="url(#paint19_linear_6_6513)" stroke-width="2" stroke-linecap="round" stroke-dasharray="37 16"/>
<path opacity="0.41" d="M693.506 399.322C692.515 381.66 668.695 367.842 640.303 368.458C611.91 369.075 589.698 383.893 590.689 401.556C591.681 419.218 615.501 433.036 643.893 432.419C672.285 431.803 694.498 416.985 693.506 399.322Z" stroke="url(#paint20_linear_6_6513)" stroke-width="2" stroke-linecap="round" stroke-dasharray="52 32"/>
<path opacity="0.35" d="M625.224 388.364C614.504 394.161 613.368 404.267 622.687 410.936C632.006 417.605 648.251 418.312 658.972 412.514C669.692 406.717 670.828 396.611 661.509 389.942C652.19 383.273 635.944 382.566 625.224 388.364Z" stroke="url(#paint21_linear_6_6513)" stroke-width="2" stroke-linecap="round" stroke-dasharray="24 31"/>
</g>
<defs>
<linearGradient id="paint0_linear_6_6513" x1="137.931" y1="240.634" x2="898.086" y2="863.248" gradientUnits="userSpaceOnUse">
<stop stop-color="white"/>
<stop offset="1" stop-color="#D5B25B"/>
</linearGradient>
<linearGradient id="paint1_linear_6_6513" x1="493.221" y1="77.455" x2="614.077" y2="754.978" gradientUnits="userSpaceOnUse">
<stop stop-color="white"/>
<stop offset="1" stop-color="#D5B25B"/>
</linearGradient>
<linearGradient id="paint2_linear_6_6513" x1="205.862" y1="570.013" x2="809.722" y2="-36.5502" gradientUnits="userSpaceOnUse">
<stop stop-color="white"/>
<stop offset="1" stop-color="#D5B25B"/>
</linearGradient>
<linearGradient id="paint3_linear_6_6513" x1="192.266" y1="281.657" x2="916.727" y2="775.988" gradientUnits="userSpaceOnUse">
<stop stop-color="white"/>
<stop offset="1" stop-color="#D5B25B"/>
</linearGradient>
<linearGradient id="paint4_linear_6_6513" x1="1096.55" y1="455.392" x2="237.205" y2="186.875" gradientUnits="userSpaceOnUse">
<stop stop-color="white"/>
<stop offset="1" stop-color="#D5B25B"/>
</linearGradient>
<linearGradient id="paint5_linear_6_6513" x1="403.96" y1="172.321" x2="629.238" y2="729.957" gradientUnits="userSpaceOnUse">
<stop stop-color="white"/>
<stop offset="1" stop-color="#D5B25B"/>
</linearGradient>
<linearGradient id="paint6_linear_6_6513" x1="468.182" y1="168.424" x2="619.339" y2="689.506" gradientUnits="userSpaceOnUse">
<stop stop-color="white"/>
<stop offset="1" stop-color="#D5B25B"/>
</linearGradient>
<linearGradient id="paint7_linear_6_6513" x1="1025.02" y1="429.688" x2="276.777" y2="282.002" gradientUnits="userSpaceOnUse">
<stop stop-color="white"/>
<stop offset="1" stop-color="#D5B25B"/>
</linearGradient>
<linearGradient id="paint8_linear_6_6513" x1="305.934" y1="320.165" x2="864.607" y2="664.9" gradientUnits="userSpaceOnUse">
<stop stop-color="white"/>
<stop offset="1" stop-color="#D5B25B"/>
</linearGradient>
<linearGradient id="paint9_linear_6_6513" x1="533.241" y1="203.771" x2="623.349" y2="624.44" gradientUnits="userSpaceOnUse">
<stop stop-color="white"/>
<stop offset="1" stop-color="#D5B25B"/>
</linearGradient>
<linearGradient id="paint10_linear_6_6513" x1="700.989" y1="211.967" x2="654.368" y2="597.516" gradientUnits="userSpaceOnUse">
<stop stop-color="white"/>
<stop offset="1" stop-color="#D5B25B"/>
</linearGradient>
<linearGradient id="paint11_linear_6_6513" x1="592.97" y1="573.765" x2="631.71" y2="220.584" gradientUnits="userSpaceOnUse">
<stop stop-color="white"/>
<stop offset="1" stop-color="#D5B25B"/>
</linearGradient>
<linearGradient id="paint12_linear_6_6513" x1="717.296" y1="553.448" x2="655.876" y2="230.508" gradientUnits="userSpaceOnUse">
<stop stop-color="white"/>
<stop offset="1" stop-color="#D5B25B"/>
</linearGradient>
<linearGradient id="paint13_linear_6_6513" x1="873.543" y1="397.926" x2="410.877" y2="410.908" gradientUnits="userSpaceOnUse">
<stop stop-color="white"/>
<stop offset="1" stop-color="#D5B25B"/>
</linearGradient>
<linearGradient id="paint14_linear_6_6513" x1="787.592" y1="309.929" x2="625.213" y2="570.954" gradientUnits="userSpaceOnUse">
<stop stop-color="white"/>
<stop offset="1" stop-color="#D5B25B"/>
</linearGradient>
<linearGradient id="paint15_linear_6_6513" x1="478.927" y1="353.106" x2="733.302" y2="543.783" gradientUnits="userSpaceOnUse">
<stop stop-color="white"/>
<stop offset="1" stop-color="#D5B25B"/>
</linearGradient>
<linearGradient id="paint16_linear_6_6513" x1="515.687" y1="345.376" x2="681.893" y2="532.455" gradientUnits="userSpaceOnUse">
<stop stop-color="white"/>
<stop offset="1" stop-color="#D5B25B"/>
</linearGradient>
<linearGradient id="paint17_linear_6_6513" x1="721.272" y1="463.48" x2="641.445" y2="299.235" gradientUnits="userSpaceOnUse">
<stop stop-color="white"/>
<stop offset="1" stop-color="#D5B25B"/>
</linearGradient>
<linearGradient id="paint18_linear_6_6513" x1="735.339" y1="427.486" x2="589.982" y2="318.528" gradientUnits="userSpaceOnUse">
<stop stop-color="white"/>
<stop offset="1" stop-color="#D5B25B"/>
</linearGradient>
<linearGradient id="paint19_linear_6_6513" x1="708.921" y1="376.439" x2="613.188" y2="465.288" gradientUnits="userSpaceOnUse">
<stop stop-color="white"/>
<stop offset="1" stop-color="#D5B25B"/>
</linearGradient>
<linearGradient id="paint20_linear_6_6513" x1="590.689" y1="401.556" x2="693.308" y2="395.795" gradientUnits="userSpaceOnUse">
<stop stop-color="white"/>
<stop offset="1" stop-color="#D5B25B"/>
</linearGradient>
<linearGradient id="paint21_linear_6_6513" x1="658.972" y1="412.514" x2="641.231" y2="379.708" gradientUnits="userSpaceOnUse">
<stop stop-color="white"/>
<stop offset="1" stop-color="#D5B25B"/>
</linearGradient>
<clipPath id="clip0_6_6513">
<rect width="1286" height="800" fill="white"/>
</clipPath>
</defs>
</svg>
