<svg width="914" height="219" viewBox="0 0 914 219" fill="none" xmlns="http://www.w3.org/2000/svg">
<path d="M38.3333 38.3333V138.333M38.3333 38.3333H88.3333C97.1739 38.3333 105.652 41.8452 111.904 48.0964C118.155 54.3476 121.667 62.8261 121.667 71.6667C121.667 80.5072 118.155 88.9857 111.904 95.2369C105.652 101.488 97.1739 105 88.3333 105H38.3333V38.3333ZM38.3333 138.333C29.4928 138.333 21.0143 141.845 14.7631 148.096C8.51189 154.348 5 162.826 5 171.667M38.3333 138.333H105C118.261 138.333 130.979 131.31 140.355 118.807C149.732 106.305 155 89.3478 155 71.6667C155 53.9856 149.732 37.0286 140.355 24.5262C130.979 12.0238 118.261 5 105 5H5V171.667M5 171.667C5 180.507 8.51189 188.986 14.7631 195.237C21.0143 201.488 29.4928 205 38.3333 205V155" stroke="white" stroke-width="10" stroke-linecap="square" stroke-linejoin="round"/>
<path d="M85.4514 148.595L95.9184 140.985L128.782 186.182C132.985 191.962 131.706 200.056 125.925 204.259C120.145 208.462 112.051 207.183 107.848 201.403L82.5951 166.673C78.3919 160.892 79.6707 152.798 85.4514 148.595Z" stroke="white" stroke-width="10"/>
<path d="M196.966 213.008C187.678 213.008 179.667 210.958 172.932 206.858C166.239 202.717 161.072 196.944 157.433 189.539C153.835 182.093 152.036 173.433 152.036 163.56C152.036 153.688 153.835 144.986 157.433 137.456C161.072 129.884 166.134 123.986 172.618 119.761C179.144 115.493 186.758 113.36 195.46 113.36C200.48 113.36 205.437 114.197 210.331 115.87C215.226 117.543 219.681 120.263 223.697 124.028C227.713 127.751 230.914 132.687 233.298 138.837C235.683 144.986 236.875 152.558 236.875 161.552V167.828H162.578V155.026H221.815C221.815 149.588 220.727 144.735 218.552 140.468C216.418 136.201 213.364 132.834 209.39 130.365C205.458 127.897 200.814 126.663 195.46 126.663C189.561 126.663 184.457 128.127 180.148 131.056C175.881 133.942 172.597 137.707 170.297 142.351C167.996 146.994 166.845 151.973 166.845 157.285V165.82C166.845 173.099 168.1 179.269 170.61 184.331C173.162 189.351 176.697 193.179 181.215 195.814C185.733 198.408 190.983 199.705 196.966 199.705C200.856 199.705 204.37 199.161 207.508 198.073C210.687 196.944 213.427 195.271 215.728 193.053C218.029 190.794 219.807 187.991 221.062 184.645L235.369 188.661C233.863 193.513 231.332 197.781 227.776 201.462C224.22 205.101 219.828 207.946 214.599 209.996C209.369 212.004 203.492 213.008 196.966 213.008ZM295.798 213.008C287.766 213.008 280.675 210.979 274.525 206.921C268.376 202.821 263.565 197.048 260.093 189.602C256.621 182.114 254.884 173.266 254.884 163.058C254.884 152.935 256.621 144.15 260.093 136.703C263.565 129.257 268.397 123.505 274.588 119.447C280.78 115.389 287.933 113.36 296.049 113.36C302.324 113.36 307.281 114.406 310.921 116.498C314.602 118.547 317.405 120.89 319.329 123.526C321.296 126.119 322.822 128.253 323.91 129.926H325.165V82.4866H339.974V211H325.667V196.191H323.91C322.822 197.948 321.275 200.165 319.267 202.842C317.259 205.478 314.393 207.842 310.67 209.933C306.947 211.983 301.989 213.008 295.798 213.008ZM297.806 199.705C303.746 199.705 308.766 198.157 312.866 195.061C316.966 191.924 320.082 187.594 322.216 182.072C324.349 176.508 325.416 170.087 325.416 162.807C325.416 155.612 324.37 149.316 322.279 143.92C320.187 138.481 317.091 134.256 312.992 131.244C308.892 128.19 303.83 126.663 297.806 126.663C291.531 126.663 286.302 128.274 282.118 131.495C277.977 134.674 274.86 139.004 272.768 144.484C270.719 149.923 269.694 156.03 269.694 162.807C269.694 169.668 270.739 175.901 272.831 181.507C274.965 187.071 278.102 191.505 282.244 194.81C286.427 198.073 291.614 199.705 297.806 199.705ZM369.153 211V114.615H383.963V211H369.153ZM376.683 98.5508C373.797 98.5508 371.308 97.5677 369.216 95.6015C367.166 93.6353 366.141 91.2717 366.141 88.5107C366.141 85.7497 367.166 83.3861 369.216 81.4199C371.308 79.4537 373.797 78.4706 376.683 78.4706C379.57 78.4706 382.038 79.4537 384.088 81.4199C386.18 83.3861 387.226 85.7497 387.226 88.5107C387.226 91.2717 386.18 93.6353 384.088 95.6015C382.038 97.5677 379.57 98.5508 376.683 98.5508ZM411.087 211V114.615H425.394V129.173H426.398C428.155 124.404 431.334 120.534 435.936 117.564C440.538 114.594 445.725 113.109 451.498 113.109C452.586 113.109 453.945 113.13 455.577 113.172C457.208 113.214 458.442 113.276 459.279 113.36V128.42C458.777 128.295 457.627 128.106 455.828 127.855C454.071 127.563 452.209 127.416 450.243 127.416C445.558 127.416 441.374 128.399 437.693 130.365C434.053 132.29 431.167 134.967 429.033 138.397C426.942 141.786 425.896 145.656 425.896 150.006V211H411.087ZM514.311 213.008C505.024 213.008 497.013 210.958 490.278 206.858C483.584 202.717 478.418 196.944 474.778 189.539C471.181 182.093 469.382 173.433 469.382 163.56C469.382 153.688 471.181 144.986 474.778 137.456C478.418 129.884 483.48 123.986 489.964 119.761C496.49 115.493 504.104 113.36 512.805 113.36C517.825 113.36 522.783 114.197 527.677 115.87C532.572 117.543 537.027 120.263 541.043 124.028C545.059 127.751 548.259 132.687 550.644 138.837C553.029 144.986 554.221 152.558 554.221 161.552V167.828H479.924V155.026H539.161C539.161 149.588 538.073 144.735 535.898 140.468C533.764 136.201 530.71 132.834 526.736 130.365C522.804 127.897 518.16 126.663 512.805 126.663C506.907 126.663 501.803 128.127 497.494 131.056C493.227 133.942 489.943 137.707 487.642 142.351C485.341 146.994 484.191 151.973 484.191 157.285V165.82C484.191 173.099 485.446 179.269 487.956 184.331C490.508 189.351 494.043 193.179 498.561 195.814C503.079 198.408 508.329 199.705 514.311 199.705C518.202 199.705 521.716 199.161 524.853 198.073C528.033 196.944 530.773 195.271 533.074 193.053C535.375 190.794 537.153 187.991 538.408 184.645L552.715 188.661C551.209 193.513 548.678 197.781 545.122 201.462C541.566 205.101 537.174 207.946 531.944 209.996C526.715 212.004 520.837 213.008 514.311 213.008ZM615.905 213.008C606.869 213.008 599.088 210.874 592.561 206.607C586.035 202.34 581.015 196.463 577.501 188.975C573.987 181.486 572.23 172.931 572.23 163.309C572.23 153.52 574.029 144.882 577.627 137.393C581.266 129.863 586.328 123.986 592.812 119.761C599.339 115.493 606.952 113.36 615.654 113.36C622.431 113.36 628.539 114.615 633.977 117.125C639.415 119.635 643.871 123.149 647.343 127.667C650.815 132.185 652.969 137.456 653.806 143.48H638.997C637.867 139.088 635.357 135.197 631.467 131.809C627.618 128.378 622.431 126.663 615.905 126.663C610.132 126.663 605.07 128.169 600.719 131.181C596.41 134.151 593.043 138.356 590.616 143.794C588.232 149.191 587.039 155.528 587.039 162.807C587.039 170.254 588.211 176.738 590.553 182.26C592.938 187.782 596.285 192.07 600.594 195.124C604.944 198.178 610.048 199.705 615.905 199.705C619.753 199.705 623.247 199.036 626.384 197.697C629.522 196.358 632.178 194.434 634.353 191.924C636.529 189.414 638.077 186.402 638.997 182.888H653.806C652.969 188.577 650.899 193.702 647.594 198.262C644.331 202.78 640.001 206.377 634.604 209.055C629.25 211.69 623.016 213.008 615.905 213.008ZM657.32 96.2918V82.4866H753.705V96.2918H713.294V211H697.732V96.2918H657.32ZM800.894 213.008C792.192 213.008 784.558 210.937 777.99 206.796C771.464 202.654 766.36 196.86 762.679 189.414C759.039 181.967 757.219 173.266 757.219 163.309C757.219 153.269 759.039 144.505 762.679 137.017C766.36 129.529 771.464 123.714 777.99 119.572C784.558 115.431 792.192 113.36 800.894 113.36C809.595 113.36 817.209 115.431 823.735 119.572C830.303 123.714 835.407 129.529 839.046 137.017C842.727 144.505 844.568 153.269 844.568 163.309C844.568 173.266 842.727 181.967 839.046 189.414C835.407 196.86 830.303 202.654 823.735 206.796C817.209 210.937 809.595 213.008 800.894 213.008ZM800.894 199.705C807.503 199.705 812.942 198.011 817.209 194.622C821.476 191.234 824.634 186.778 826.684 181.256C828.734 175.734 829.759 169.752 829.759 163.309C829.759 156.867 828.734 150.864 826.684 145.3C824.634 139.736 821.476 135.239 817.209 131.809C812.942 128.378 807.503 126.663 800.894 126.663C794.284 126.663 788.846 128.378 784.578 131.809C780.311 135.239 777.153 139.736 775.103 145.3C773.053 150.864 772.028 156.867 772.028 163.309C772.028 169.752 773.053 175.734 775.103 181.256C777.153 186.778 780.311 191.234 784.578 194.622C788.846 198.011 794.284 199.705 800.894 199.705ZM877.967 212.004C874.871 212.004 872.215 210.895 869.998 208.678C867.781 206.461 866.672 203.805 866.672 200.709C866.672 197.613 867.781 194.957 869.998 192.74C872.215 190.522 874.871 189.414 877.967 189.414C881.063 189.414 883.719 190.522 885.937 192.74C888.154 194.957 889.262 197.613 889.262 200.709C889.262 202.759 888.739 204.641 887.694 206.356C886.69 208.072 885.33 209.452 883.615 210.498C881.941 211.502 880.059 212.004 877.967 212.004Z" fill="white"/>
</svg>
