<svg width="1212" height="230" viewBox="0 0 1212 230" fill="none" xmlns="http://www.w3.org/2000/svg">
<path d="M36.8889 41.4319V141.728M36.8889 41.4319H83.2222C91.4145 41.4319 99.2712 44.9541 105.064 51.2238C110.857 57.4935 114.111 65.9971 114.111 74.8638C114.111 83.7304 110.857 92.234 105.064 98.5037C99.2712 104.773 91.4145 108.296 83.2222 108.296H36.8889V41.4319ZM36.8889 141.728C28.6966 141.728 20.8399 145.25 15.0471 151.519C9.25435 157.789 6 166.293 6 175.159M36.8889 141.728H98.6667C110.955 141.728 122.74 134.683 131.429 122.144C140.118 109.604 145 92.5971 145 74.8638C145 57.1304 140.118 40.1233 131.429 27.5839C122.74 15.0446 110.955 8 98.6667 8H6V175.159M6 175.159C6 184.026 9.25435 192.53 15.0471 198.799C20.8399 205.069 28.6966 208.591 36.8889 208.591V158.443" stroke="white" stroke-width="10.0296" stroke-linecap="square" stroke-linejoin="round"/>
<path d="M81.3168 151.58L90.129 144.645L120.746 190.219C124.471 195.765 123.236 203.61 117.986 207.741C112.736 211.873 105.459 210.727 101.734 205.181L78.355 170.381C74.3578 164.431 75.6838 156.014 81.3168 151.58Z" stroke="white" stroke-width="10.0296"/>
<path d="M234.625 212.879C222.722 212.879 212.307 211.47 203.38 208.651C194.61 205.675 187.248 201.368 181.297 195.73C175.502 190.092 171.195 183.2 168.376 175.056C165.557 166.755 164.147 157.28 164.147 146.63C164.147 133.318 166.575 121.728 171.43 111.861C176.442 101.837 183.333 94.0847 192.104 88.6031C201.031 83.1214 211.446 80.3806 223.349 80.3806C237.131 80.3806 248.251 83.1998 256.709 88.838C265.166 94.4763 271.196 102.385 274.798 112.566C278.557 122.746 280.201 134.57 279.731 148.04L279.496 154.618H179.183V136.763H257.178V134.884C257.178 123.137 254.359 114.288 248.721 108.337C243.083 102.229 234.625 99.1748 223.349 99.1748C216.771 99.1748 210.663 100.584 205.025 103.403C199.386 106.223 194.844 110.999 191.399 117.734C187.953 124.469 186.23 133.631 186.23 145.22V146.63C186.23 158.69 188.345 168.165 192.574 175.056C196.802 181.947 202.597 186.881 209.958 189.857C217.476 192.676 226.011 194.085 235.565 194.085C243.553 194.085 250.366 193.302 256.004 191.736C261.642 190.17 266.106 188.447 269.395 186.568H271.274V205.832C267.515 207.711 262.582 209.356 256.474 210.765C250.366 212.175 243.083 212.879 234.625 212.879ZM378.068 213.819C363.973 213.819 351.992 211.157 342.125 205.832C332.414 200.35 324.975 192.597 319.807 182.574C314.795 172.55 312.289 160.569 312.289 146.63C312.289 132.691 315.108 120.788 320.746 110.921C326.385 101.054 334.294 93.5365 344.474 88.3682C354.654 83.0431 366.479 80.3806 379.948 80.3806C385.43 80.3806 390.285 80.7722 394.513 81.5553C398.899 82.3384 402.423 83.3564 405.085 84.6093L404.145 103.403C402.423 102.62 399.603 101.759 395.688 100.819C391.929 99.723 387.152 99.1748 381.357 99.1748C366.166 99.1748 354.497 103.247 346.353 111.391C338.366 119.535 334.372 131.281 334.372 146.63C334.372 157.75 336.095 166.912 339.54 174.116C343.143 181.164 348.311 186.411 355.046 189.857C361.78 193.302 370.081 195.025 379.948 195.025C385.43 195.025 390.363 194.555 394.748 193.615C399.29 192.519 403.284 191.188 406.73 189.622L402.971 196.2C402.344 193.537 401.874 190.405 401.561 186.803C401.248 183.044 401.091 179.207 401.091 175.291V72.863C401.091 69.7306 401.013 65.6586 400.856 60.6468C400.856 55.635 400.7 50.7015 400.387 45.8464C400.23 40.9912 399.838 37.1541 399.212 34.335L399.682 32.4555H422.705V164.015C422.705 167.147 422.705 171.219 422.705 176.231C422.861 181.243 423.018 186.176 423.174 191.031C423.488 195.886 423.958 199.724 424.584 202.543L424.114 204.422C417.536 206.928 410.41 209.121 402.736 211C395.218 212.879 386.996 213.819 378.068 213.819ZM485.704 60.6468C481.788 60.6468 478.421 59.3938 475.602 56.888C472.939 54.2254 471.608 50.7798 471.608 46.5512C471.608 42.3225 472.939 38.9552 475.602 36.4493C478.421 33.7868 481.788 32.4555 485.704 32.4555C489.776 32.4555 493.143 33.7868 495.805 36.4493C498.468 38.9552 499.799 42.3225 499.799 46.5512C499.799 50.7798 498.468 54.2254 495.805 56.888C493.143 59.3938 489.776 60.6468 485.704 60.6468ZM474.897 211V123.607C474.897 120.475 474.819 116.403 474.662 111.391C474.662 106.379 474.505 101.446 474.192 96.5906C474.036 91.7354 473.644 87.8983 473.018 85.0792L473.487 83.1998H496.51V211H474.897ZM548.706 211V130.185C548.706 127.053 548.628 122.981 548.471 117.969C548.471 112.957 548.315 108.024 548.001 103.169C547.845 98.3134 547.453 94.4763 546.827 91.6571L547.297 89.7777C551.369 88.2115 556.38 86.8803 562.332 85.784C568.44 84.6876 574.47 83.8262 580.421 83.1998C586.529 82.5733 591.619 82.2601 595.692 82.2601C599.45 82.2601 602.504 82.3384 604.854 82.495C607.203 82.6516 609.161 82.8865 610.727 83.1998V101.994H608.847C606.811 101.681 604.384 101.446 601.565 101.289C598.746 101.133 596.161 101.054 593.812 101.054C588.957 101.054 583.867 101.446 578.542 102.229C573.217 103.012 568.597 103.795 564.681 104.578L568.91 98.7049C569.85 103.873 570.319 110.295 570.319 117.969V211H548.706ZM704.222 212.879C692.319 212.879 681.904 211.47 672.977 208.651C664.206 205.675 656.845 201.368 650.894 195.73C645.099 190.092 640.792 183.2 637.973 175.056C635.154 166.755 633.744 157.28 633.744 146.63C633.744 133.318 636.172 121.728 641.027 111.861C646.039 101.837 652.93 94.0847 661.7 88.6031C670.628 83.1214 681.043 80.3806 692.946 80.3806C706.728 80.3806 717.848 83.1998 726.305 88.838C734.763 94.4763 740.793 102.385 744.395 112.566C748.154 122.746 749.798 134.57 749.328 148.04L749.093 154.618H648.78V136.763H726.775V134.884C726.775 123.137 723.956 114.288 718.318 108.337C712.68 102.229 704.222 99.1748 692.946 99.1748C686.368 99.1748 680.26 100.584 674.621 103.403C668.983 106.223 664.441 110.999 660.996 117.734C657.55 124.469 655.827 133.631 655.827 145.22V146.63C655.827 158.69 657.942 168.165 662.17 175.056C666.399 181.947 672.194 186.881 679.555 189.857C687.073 192.676 695.608 194.085 705.162 194.085C713.149 194.085 719.962 193.302 725.601 191.736C731.239 190.17 735.702 188.447 738.991 186.568H740.871V205.832C737.112 207.711 732.179 209.356 726.07 210.765C719.962 212.175 712.68 212.879 704.222 212.879ZM781.886 146.63C781.886 132.691 784.627 120.788 790.108 110.921C795.747 101.054 803.656 93.5365 813.836 88.3682C824.173 83.0431 836.389 80.3806 850.484 80.3806C862.074 80.3806 871.785 82.1034 879.615 85.549V104.813H877.736C874.447 103.09 870.453 101.759 865.755 100.819C861.213 99.723 856.123 99.1748 850.484 99.1748C836.389 99.1748 825.112 103.169 816.655 111.156C808.198 118.987 803.969 130.812 803.969 146.63C803.969 162.292 808.198 174.116 816.655 182.104C825.112 190.092 836.389 194.085 850.484 194.085C856.123 194.085 861.213 193.537 865.755 192.441C870.453 191.344 874.447 190.013 877.736 188.447H879.615V207.711C871.785 211.157 862.074 212.879 850.484 212.879C836.076 212.879 823.703 210.295 813.366 205.127C803.186 199.802 795.355 192.206 789.873 182.339C784.548 172.472 781.886 160.569 781.886 146.63ZM897.918 41.8526H1029.48V61.5865H974.974V211H952.421V61.5865H897.918V41.8526ZM1032.74 146.63C1032.74 132.691 1035.17 120.788 1040.03 110.921C1045.04 101.054 1051.93 93.5365 1060.7 88.3682C1069.63 83.0431 1079.89 80.3806 1091.48 80.3806C1103.07 80.3806 1113.25 83.0431 1122.02 88.3682C1130.94 93.5365 1137.83 101.054 1142.69 110.921C1147.7 120.788 1150.21 132.691 1150.21 146.63C1150.21 160.569 1147.7 172.472 1142.69 182.339C1137.83 192.206 1130.94 199.802 1122.02 205.127C1113.25 210.295 1103.07 212.879 1091.48 212.879C1079.57 212.879 1069.24 210.295 1060.47 205.127C1051.69 199.802 1044.88 192.206 1040.03 182.339C1035.17 172.472 1032.74 160.569 1032.74 146.63ZM1054.83 146.63C1054.83 162.292 1057.96 174.116 1064.22 182.104C1070.65 190.092 1079.73 194.085 1091.48 194.085C1103.22 194.085 1112.23 190.092 1118.49 182.104C1124.91 174.116 1128.12 162.292 1128.12 146.63C1128.12 130.812 1124.91 118.987 1118.49 111.156C1112.23 103.169 1103.22 99.1748 1091.48 99.1748C1079.73 99.1748 1070.65 103.169 1064.22 111.156C1057.96 118.987 1054.83 130.812 1054.83 146.63ZM1174.06 213.114C1169.36 213.114 1165.36 211.626 1162.07 208.651C1158.94 205.518 1157.38 201.368 1157.38 196.2C1157.38 191.031 1158.94 186.959 1162.07 183.983C1165.36 180.851 1169.36 179.285 1174.06 179.285C1178.91 179.285 1182.9 180.851 1186.04 183.983C1189.33 186.959 1190.97 191.031 1190.97 196.2C1190.97 201.368 1189.33 205.518 1186.04 208.651C1182.9 211.626 1178.91 213.114 1174.06 213.114Z" fill="white"/>
</svg>
