<svg width="1217" height="239" viewBox="0 0 1217 239" fill="none" xmlns="http://www.w3.org/2000/svg">
<path d="M39.5556 42.3181V151.272M39.5556 42.3181H89.8889C98.7884 42.3181 107.323 46.1444 113.616 52.9554C119.909 59.7664 123.444 69.004 123.444 78.6362C123.444 88.2683 119.909 97.506 113.616 104.317C107.323 111.128 98.7884 114.954 89.8889 114.954H39.5556V42.3181ZM39.5556 151.272C30.6561 151.272 22.1211 155.099 15.8282 161.91C9.5353 168.721 6 177.958 6 187.59M39.5556 151.272H106.667C120.016 151.272 132.818 143.62 142.258 129.998C151.697 116.376 157 97.9005 157 78.6362C157 59.3719 151.697 40.8966 142.258 27.2746C132.818 13.6527 120.016 6 106.667 6H6V187.59M6 187.59C6 197.223 9.5353 206.46 15.8282 213.271C22.1211 220.082 30.6561 223.908 39.5556 223.908V169.431" stroke="white" stroke-width="10.8954" stroke-linecap="square" stroke-linejoin="round"/>
<path d="M87.819 161.975L97.3918 154.442L130.652 203.951C134.699 209.975 133.357 218.497 127.653 222.985C121.95 227.473 114.046 226.229 109.998 220.204L84.6014 182.4C80.2589 175.936 81.6995 166.791 87.819 161.975Z" stroke="white" stroke-width="10.8954"/>
<path d="M239.625 221.879C227.722 221.879 217.307 220.47 208.38 217.651C199.61 214.675 192.248 210.368 186.297 204.73C180.502 199.092 176.195 192.2 173.376 184.056C170.557 175.755 169.147 166.28 169.147 155.63C169.147 142.318 171.575 130.728 176.43 120.861C181.442 110.837 188.333 103.085 197.104 97.6031C206.031 92.1214 216.446 89.3806 228.349 89.3806C242.131 89.3806 253.251 92.1998 261.709 97.838C270.166 103.476 276.196 111.385 279.798 121.566C283.557 131.746 285.201 143.57 284.731 157.04L284.496 163.618H184.183V145.763H262.178V143.884C262.178 132.137 259.359 123.288 253.721 117.337C248.083 111.229 239.625 108.175 228.349 108.175C221.771 108.175 215.663 109.584 210.025 112.403C204.386 115.223 199.844 119.999 196.399 126.734C192.953 133.469 191.23 142.631 191.23 154.22V155.63C191.23 167.69 193.345 177.165 197.574 184.056C201.802 190.947 207.597 195.881 214.958 198.857C222.476 201.676 231.011 203.085 240.565 203.085C248.553 203.085 255.366 202.302 261.004 200.736C266.642 199.17 271.106 197.447 274.395 195.568H276.274V214.832C272.515 216.711 267.582 218.356 261.474 219.765C255.366 221.175 248.083 221.879 239.625 221.879ZM383.068 222.819C368.973 222.819 356.992 220.157 347.125 214.832C337.414 209.35 329.975 201.597 324.807 191.574C319.795 181.55 317.289 169.569 317.289 155.63C317.289 141.691 320.108 129.788 325.746 119.921C331.385 110.054 339.294 102.537 349.474 97.3682C359.654 92.0431 371.479 89.3806 384.948 89.3806C390.43 89.3806 395.285 89.7722 399.513 90.5553C403.899 91.3384 407.423 92.3564 410.085 93.6093L409.145 112.403C407.423 111.62 404.603 110.759 400.688 109.819C396.929 108.723 392.152 108.175 386.357 108.175C371.166 108.175 359.497 112.247 351.353 120.391C343.366 128.535 339.372 140.281 339.372 155.63C339.372 166.75 341.095 175.912 344.54 183.116C348.143 190.164 353.311 195.411 360.046 198.857C366.78 202.302 375.081 204.025 384.948 204.025C390.43 204.025 395.363 203.555 399.748 202.615C404.29 201.519 408.284 200.188 411.73 198.622L407.971 205.2C407.344 202.537 406.874 199.405 406.561 195.803C406.248 192.044 406.091 188.207 406.091 184.291V81.863C406.091 78.7306 406.013 74.6586 405.856 69.6468C405.856 64.635 405.7 59.7015 405.387 54.8464C405.23 49.9912 404.838 46.1541 404.212 43.335L404.682 41.4555H427.705V173.015C427.705 176.147 427.705 180.219 427.705 185.231C427.861 190.243 428.018 195.176 428.174 200.031C428.488 204.886 428.958 208.724 429.584 211.543L429.114 213.422C422.536 215.928 415.41 218.121 407.736 220C400.218 221.879 391.996 222.819 383.068 222.819ZM490.704 69.6468C486.788 69.6468 483.421 68.3938 480.602 65.888C477.939 63.2254 476.608 59.7798 476.608 55.5512C476.608 51.3225 477.939 47.9552 480.602 45.4493C483.421 42.7868 486.788 41.4555 490.704 41.4555C494.776 41.4555 498.143 42.7868 500.805 45.4493C503.468 47.9552 504.799 51.3225 504.799 55.5512C504.799 59.7798 503.468 63.2254 500.805 65.888C498.143 68.3938 494.776 69.6468 490.704 69.6468ZM479.897 220V132.607C479.897 129.475 479.819 125.403 479.662 120.391C479.662 115.379 479.505 110.446 479.192 105.591C479.036 100.735 478.644 96.8983 478.018 94.0792L478.487 92.1998H501.51V220H479.897ZM553.706 220V139.185C553.706 136.053 553.628 131.981 553.471 126.969C553.471 121.957 553.315 117.024 553.001 112.169C552.845 107.313 552.453 103.476 551.827 100.657L552.297 98.7777C556.369 97.2115 561.38 95.8803 567.332 94.784C573.44 93.6876 579.47 92.8262 585.421 92.1998C591.529 91.5733 596.619 91.2601 600.692 91.2601C604.45 91.2601 607.504 91.3384 609.854 91.495C612.203 91.6516 614.161 91.8865 615.727 92.1998V110.994H613.847C611.811 110.681 609.384 110.446 606.565 110.289C603.746 110.133 601.161 110.054 598.812 110.054C593.957 110.054 588.867 110.446 583.542 111.229C578.217 112.012 573.597 112.795 569.681 113.578L573.91 107.705C574.85 112.873 575.319 119.295 575.319 126.969V220H553.706ZM709.222 221.879C697.319 221.879 686.904 220.47 677.977 217.651C669.206 214.675 661.845 210.368 655.894 204.73C650.099 199.092 645.792 192.2 642.973 184.056C640.154 175.755 638.744 166.28 638.744 155.63C638.744 142.318 641.172 130.728 646.027 120.861C651.039 110.837 657.93 103.085 666.7 97.6031C675.628 92.1214 686.043 89.3806 697.946 89.3806C711.728 89.3806 722.848 92.1998 731.305 97.838C739.763 103.476 745.793 111.385 749.395 121.566C753.154 131.746 754.798 143.57 754.328 157.04L754.093 163.618H653.78V145.763H731.775V143.884C731.775 132.137 728.956 123.288 723.318 117.337C717.68 111.229 709.222 108.175 697.946 108.175C691.368 108.175 685.26 109.584 679.621 112.403C673.983 115.223 669.441 119.999 665.996 126.734C662.55 133.469 660.827 142.631 660.827 154.22V155.63C660.827 167.69 662.942 177.165 667.17 184.056C671.399 190.947 677.194 195.881 684.555 198.857C692.073 201.676 700.608 203.085 710.162 203.085C718.149 203.085 724.962 202.302 730.601 200.736C736.239 199.17 740.702 197.447 743.991 195.568H745.871V214.832C742.112 216.711 737.179 218.356 731.07 219.765C724.962 221.175 717.68 221.879 709.222 221.879ZM786.886 155.63C786.886 141.691 789.627 129.788 795.108 119.921C800.747 110.054 808.656 102.537 818.836 97.3682C829.173 92.0431 841.389 89.3806 855.484 89.3806C867.074 89.3806 876.785 91.1034 884.615 94.549V113.813H882.736C879.447 112.09 875.453 110.759 870.755 109.819C866.213 108.723 861.123 108.175 855.484 108.175C841.389 108.175 830.112 112.169 821.655 120.156C813.198 127.987 808.969 139.812 808.969 155.63C808.969 171.292 813.198 183.116 821.655 191.104C830.112 199.092 841.389 203.085 855.484 203.085C861.123 203.085 866.213 202.537 870.755 201.441C875.453 200.344 879.447 199.013 882.736 197.447H884.615V216.711C876.785 220.157 867.074 221.879 855.484 221.879C841.076 221.879 828.703 219.295 818.366 214.127C808.186 208.802 800.355 201.206 794.873 191.339C789.548 181.472 786.886 169.569 786.886 155.63ZM902.918 50.8526H1034.48V70.5865H979.974V220H957.421V70.5865H902.918V50.8526ZM1037.74 155.63C1037.74 141.691 1040.17 129.788 1045.03 119.921C1050.04 110.054 1056.93 102.537 1065.7 97.3682C1074.63 92.0431 1084.89 89.3806 1096.48 89.3806C1108.07 89.3806 1118.25 92.0431 1127.02 97.3682C1135.94 102.537 1142.83 110.054 1147.69 119.921C1152.7 129.788 1155.21 141.691 1155.21 155.63C1155.21 169.569 1152.7 181.472 1147.69 191.339C1142.83 201.206 1135.94 208.802 1127.02 214.127C1118.25 219.295 1108.07 221.879 1096.48 221.879C1084.57 221.879 1074.24 219.295 1065.47 214.127C1056.69 208.802 1049.88 201.206 1045.03 191.339C1040.17 181.472 1037.74 169.569 1037.74 155.63ZM1059.83 155.63C1059.83 171.292 1062.96 183.116 1069.22 191.104C1075.65 199.092 1084.73 203.085 1096.48 203.085C1108.22 203.085 1117.23 199.092 1123.49 191.104C1129.91 183.116 1133.12 171.292 1133.12 155.63C1133.12 139.812 1129.91 127.987 1123.49 120.156C1117.23 112.169 1108.22 108.175 1096.48 108.175C1084.73 108.175 1075.65 112.169 1069.22 120.156C1062.96 127.987 1059.83 139.812 1059.83 155.63ZM1179.06 222.114C1174.36 222.114 1170.36 220.626 1167.07 217.651C1163.94 214.518 1162.38 210.368 1162.38 205.2C1162.38 200.031 1163.94 195.959 1167.07 192.983C1170.36 189.851 1174.36 188.285 1179.06 188.285C1183.91 188.285 1187.9 189.851 1191.04 192.983C1194.33 195.959 1195.97 200.031 1195.97 205.2C1195.97 210.368 1194.33 214.518 1191.04 217.651C1187.9 220.626 1183.91 222.114 1179.06 222.114Z" fill="white"/>
</svg>
