<svg width="19" height="18" viewBox="0 0 19 18" fill="none" xmlns="http://www.w3.org/2000/svg">
<path fill-rule="evenodd" clip-rule="evenodd" d="M0 0.5C0 0.414778 0.0907857 0.283067 0.201005 0.176218C0.363543 0.0186494 0.589928 0.0899277 0.75 0.25V0.25C0.910072 0.410072 1.12654 0.48853 1.35127 0.461225C1.64417 0.425635 2 0.393035 2 0.5V8.16473V16H18.5C19 16 19 16.6485 19 16.8125V17.7031C19 17.8671 18.8671 18 18.7031 18H0.59375C0.265831 18 0 17.7342 0 17.4062V0.5Z" fill="white"/>
<path fill-rule="evenodd" clip-rule="evenodd" d="M16.1891 2.76385C16.5559 2.36723 17.2188 2.62676 17.2188 3.16698V14.0852C17.2188 14.4131 16.9529 14.6789 16.625 14.6789H4.45312C4.12521 14.6789 3.85938 14.4131 3.85938 14.0852V9.12484C3.85938 8.96641 3.9227 8.81454 4.03526 8.70303L8.15312 4.62365C8.38253 4.39639 8.75149 4.39413 8.98366 4.61856L11.8824 7.42067L16.1891 2.76385ZM15.7344 5.44175L12.5368 9.4962C12.2466 9.89541 12.1457 10.2698 11.9062 10.0383L8.57863 6.29156L5.34375 9.4962V13.1945H15.7344V5.44175Z" fill="white"/>
</svg>
