<svg width="26" height="25" viewBox="0 0 26 25" fill="none" xmlns="http://www.w3.org/2000/svg">
<path d="M22.1625 14.675C22.1625 11.5671 17.3625 1 9.56249 1C10.3903 2.7152 10.8983 4.66704 11.2 6.59433M11.2 6.59433C11.9916 11.6516 11.3625 16.5398 11.3625 16.5398M11.2 6.59433C9.56249 10.3239 6.4 15.2966 3.56249 17.783M4.6 21.5126L2.02715 19.2913C1.62932 18.9479 1.81013 18.2787 2.32225 18.1991L23.8062 14.8605C24.2965 14.7844 24.6593 15.322 24.422 15.7729L21.4 21.5126M1 24L3 22.446C3.77553 21.8434 4.74135 21.6352 5.64843 21.8212C6.12758 21.9194 6.59034 22.1277 7 22.446C8.18519 23.3669 9.81482 23.3669 11 22.446C12.1852 21.5251 13.8148 21.5251 15 22.446C16.1852 23.3669 17.8148 23.3669 19 22.446C19.4097 22.1277 19.8724 21.9194 20.3516 21.8212C21.2586 21.6352 22.2245 21.8434 23 22.446L25 24" stroke="white" stroke-width="1.5" stroke-linecap="round" stroke-linejoin="round"/>
</svg>
